<svg width="30" height="38" viewBox="0 0 30 38" fill="none" xmlns="http://www.w3.org/2000/svg" xmlns:xlink="http://www.w3.org/1999/xlink">
<path d="M13.608,38C23.151,38 29.09,31.453 29.09,23.007C29.09,19.823 28.533,16.948 24.65,16.084C25.595,13.675 28.321,6.708 28.321,4.476C28.321,2.51 27.051,0.863 24.787,0.863C21.179,0.863 17.944,10.594 16.932,12.914C16.148,10.808 12.477,0.168 9.241,0.168C6.726,0.168 5.546,1.859 5.546,3.987C5.546,6.596 8.311,13.357 9.313,15.958C8.805,15.788 8.255,15.64 7.695,15.64C5.801,15.64 3.788,17.79 3.788,19.527C3.788,20.184 4.184,21.108 4.435,21.721C1.451,22.46 0.303,24.278 0.303,27.019C0.295,32.353 5.829,38 13.608,38L13.608,38ZM21.787,8.149C22.112,7.239 23.493,3.398 24.787,3.398C25.483,3.398 25.669,4.055 25.669,4.58C25.669,5.991 22.549,13.787 21.859,15.515L19.109,15.072L21.787,8.149ZM8.086,3.738L8.086,3.737C8.086,2.857 9.259,0.36 11.83,7.217L14.629,14.629C13.367,14.533 12.389,14.407 11.767,14.733C10.885,12.605 8.086,5.888 8.086,3.738L8.086,3.738ZM7.9,18.196L7.901,18.198C10.27,18.198 13.328,25.187 13.328,26.133C13.328,26.51 12.932,26.975 12.472,26.975C10.78,26.975 6.25,21.292 6.25,19.755C6.257,19.186 7.276,18.196 7.9,18.196L7.9,18.196ZM5.177,23.981C6.098,23.981 9.567,28.438 9.567,29.384C9.567,29.746 8.944,29.997 8.623,29.997C7.32,29.997 6.811,28.851 4.491,26.199C2.088,28.394 6.149,32.62 9.207,32.62C11.317,32.62 12.692,30.832 12.28,29.516C12.58,29.516 12.951,29.538 13.227,29.472C13.317,31.474 13.963,33.86 16.6,34.031C16.6,33.964 16.762,33.506 16.762,33.484C16.762,32.197 15.906,31.075 15.906,29.767C15.906,27.675 17.66,25.651 19.44,24.469C20.086,24.026 20.872,23.751 21.631,23.501C22.416,23.228 23.25,22.91 23.846,22.363C23.756,21.535 23.385,20.804 22.479,20.804C20.239,20.804 12.726,21.1 12.726,17.87C12.726,17.375 12.734,16.902 14.134,16.902C16.747,16.902 23.38,17.493 25.321,19.052C26.784,20.242 27.286,27.416 22.813,31.961L22.808,31.962C20.454,34.327 17.445,35.553 13.935,35.553C9.131,35.553 5.336,33.145 3.509,29.029C2.125,25.823 3.817,23.981 5.177,23.981L5.177,23.981ZM14.83,22.651C15.618,22.881 16.425,22.949 17.235,23.096C16.635,23.494 16.104,23.983 15.592,24.506C15.365,23.879 15.089,23.266 14.83,22.651Z" fill="#505F79"/>
</svg>
