<svg width="34" height="22" viewBox="0 0 34 22" fill="none" xmlns="http://www.w3.org/2000/svg" xmlns:xlink="http://www.w3.org/1999/xlink">
<path d="M31.332,-0.667L29.332,-0.667C28.227,-0.667 27.332,0.228 27.332,1.333L27.332,18.666C27.332,19.771 28.227,20.666 29.332,20.666L31.332,20.666C32.437,20.666 33.332,19.771 33.332,18.666L33.332,1.333C33.332,0.228 32.437,-0.667 31.332,-0.667ZM19.999,4L21.999,4C23.103,4 23.999,4.895 23.999,6L23.999,18.666C23.999,19.771 23.103,20.666 21.999,20.666L19.999,20.666C18.894,20.666 17.999,19.771 17.999,18.666L17.999,6C17.999,4.895 18.894,4 19.999,4ZM12.665,8.666L10.665,8.666C9.561,8.666 8.665,9.562 8.665,10.666L8.665,18.666C8.665,19.771 9.561,20.666 10.665,20.666L12.665,20.666C13.77,20.666 14.665,19.771 14.665,18.666L14.665,10.666C14.665,9.562 13.77,8.666 12.665,8.666ZM3.332,12.666L1.332,12.666C0.227,12.666 -0.668,13.562 -0.668,14.666L-0.668,18.666C-0.668,19.771 0.227,20.666 1.332,20.666L3.332,20.666C4.437,20.666 5.332,19.771 5.332,18.666L5.332,14.666C5.332,13.562 4.437,12.666 3.332,12.666Z" clip-rule="evenodd" fill-rule="evenodd" fill="#FFFFFF"/>
</svg>
