<svg width="34" height="22" viewBox="0 0 34 22" fill="none" xmlns="http://www.w3.org/2000/svg" xmlns:xlink="http://www.w3.org/1999/xlink">
<path d="M31.333,-0.666L29.333,-0.666C28.228,-0.666 27.333,0.229 27.333,1.334L27.333,18.667C27.333,19.772 28.228,20.667 29.333,20.667L31.333,20.667C32.438,20.667 33.333,19.772 33.333,18.667L33.333,1.334C33.333,0.229 32.438,-0.666 31.333,-0.666ZM20,4.001L22,4.001C23.104,4.001 24,4.896 24,6.001L24,18.667C24,19.772 23.104,20.667 22,20.667L20,20.667C18.895,20.667 18,19.772 18,18.667L18,6.001C18,4.896 18.895,4.001 20,4.001ZM12.666,8.667L10.666,8.667C9.562,8.667 8.666,9.563 8.666,10.667L8.666,18.667C8.666,19.772 9.562,20.667 10.666,20.667L12.666,20.667C13.771,20.667 14.666,19.772 14.666,18.667L14.666,10.667C14.666,9.563 13.771,8.667 12.666,8.667ZM3.333,12.667L1.333,12.667C0.228,12.667 -0.667,13.563 -0.667,14.667L-0.667,18.667C-0.667,19.772 0.228,20.667 1.333,20.667L3.333,20.667C4.438,20.667 5.333,19.772 5.333,18.667L5.333,14.667C5.333,13.563 4.438,12.667 3.333,12.667Z" clip-rule="evenodd" fill-rule="evenodd" fill="#000000"/>
</svg>
