<svg width="34" height="22" viewBox="0 0 34 22" fill="none" xmlns="http://www.w3.org/2000/svg" xmlns:xlink="http://www.w3.org/1999/xlink">
<path d="M31.332,-0.667L29.332,-0.667C28.227,-0.667 27.332,0.229 27.332,1.333L27.332,18.667C27.332,19.771 28.227,20.667 29.332,20.667L31.332,20.667C32.437,20.667 33.332,19.771 33.332,18.667L33.332,1.333C33.332,0.229 32.437,-0.667 31.332,-0.667ZM19.999,4L21.999,4C23.103,4 23.999,4.896 23.999,6L23.999,18.667C23.999,19.771 23.103,20.667 21.999,20.667L19.999,20.667C18.894,20.667 17.999,19.771 17.999,18.667L17.999,6C17.999,4.896 18.894,4 19.999,4ZM12.665,8.667L10.665,8.667C9.561,8.667 8.665,9.562 8.665,10.667L8.665,18.667C8.665,19.771 9.561,20.667 10.665,20.667L12.665,20.667C13.77,20.667 14.665,19.771 14.665,18.667L14.665,10.667C14.665,9.562 13.77,8.667 12.665,8.667ZM3.332,12.667L1.332,12.667C0.227,12.667 -0.668,13.562 -0.668,14.667L-0.668,18.667C-0.668,19.771 0.227,20.667 1.332,20.667L3.332,20.667C4.437,20.667 5.332,19.771 5.332,18.667L5.332,14.667C5.332,13.562 4.437,12.667 3.332,12.667Z" clip-rule="evenodd" fill-rule="evenodd" fill="#000000"/>
</svg>
