<svg width="294" height="26" viewBox="0 0 294 26" fill="none" xmlns="http://www.w3.org/2000/svg" xmlns:xlink="http://www.w3.org/1999/xlink">
<path d="M-1,24C-1,24.552 -0.552,25 0,25C0.552,25 1,24.552 1,24L-1,24ZM291,24C291,24.552 291.448,25 292,25C292.552,25 293,24.552 293,24L291,24ZM1,8C1,7.448 0.552,7 0,7C-0.552,7 -1,7.448 -1,8L1,8ZM293,8C293,7.448 292.552,7 292,7C291.448,7 291,7.448 291,8L293,8ZM1,24L1,16L-1,16L-1,24L1,24ZM0,17L292,17L292,15L0,15L0,17ZM291,16L291,24L293,24L293,16L291,16ZM1,16L1,8L-1,8L-1,16L1,16ZM293,16L293,8L291,8L291,16L293,16Z" fill="#CED6DE"/>
<line x1="145" y1="0" x2="145" y2="16" stroke="#CED6DE" stroke-width="1" stroke-miterlimit="3.999327" stroke-linecap="round" stroke-linejoin="round"/>
<circle cx="146" cy="16" r="6" fill="#FFFFFF" stroke="#CED6DE" stroke-width="1" stroke-miterlimit="3.999327"/>
</svg>
