<svg width="290" height="250" viewBox="0 0 290 250" fill="none" xmlns="http://www.w3.org/2000/svg" xmlns:xlink="http://www.w3.org/1999/xlink">
<path d="M24.726,52.19C24.726,52.19 46.152,32.273 80.863,34.414C115.574,36.556 211.565,85.813 211.565,85.813L251.846,221.805C251.846,221.805 136.572,168.479 104.004,170.406C72.935,172.119 51.509,191.822 51.509,191.822L24.726,52.19Z" transform="rotate(329.015 138.286 128.029)" fill="#262626"/>
<path d="M-0.599,16.986C-0.599,16.986 21.042,3.28 55.539,-0.789C86.607,-4.43 186.24,50.61 186.24,50.61L226.521,186.601C226.521,186.601 111.248,136.916 78.679,135.203C46.111,133.49 25.113,150.622 25.113,150.622L-0.599,16.986Z" transform="rotate(329.015 112.962 92.82)" fill="#FFFFFF" stroke="#FF6B00" stroke-width="0.496" stroke-miterlimit="10"/>
<path d="M45.296,8.025L61.795,69.275L134.645,100.757L116.647,37.151L63.295,13.593L45.296,8.025Z" transform="rotate(329.015 89.971 54.391)" fill="#262626"/>
<path d="M29.133,4.255L45.845,65.505L118.696,96.986L101.983,38.092L29.133,4.255Z" transform="rotate(329.015 73.914 50.621)" fill="#FFFFFF" stroke="#262626" stroke-width="0.496" stroke-miterlimit="10"/>
<path d="M48.682,72.618L54.682,94.248L80.394,105.385L74.394,84.611L48.682,72.618Z" transform="rotate(329.015 64.538 89.001)" fill="#FFFFFF" stroke="#262626" stroke-width="0.496" stroke-miterlimit="10"/>
<path d="M113.813,107.931L123.241,142.625L161.594,154.404L152.167,120.995L113.813,107.931Z" transform="rotate(329.015 137.704 131.168)" fill="#FFFFFF" stroke="#262626" stroke-width="0.496" stroke-miterlimit="10"/>
<path d="M260.556,127.947C276.058,127.947 288.625,115.386 288.625,99.892C288.625,84.398 276.058,71.837 260.556,71.837C245.054,71.837 232.488,84.398 232.488,99.892C232.488,115.386 245.054,127.947 260.556,127.947Z" transform="rotate(329.015 260.556 99.892)" fill="#262626"/>
<path d="M253.439,115.918C268.941,115.918 281.508,103.357 281.508,87.863C281.508,72.368 268.941,59.808 253.439,59.808C237.937,59.808 225.371,72.368 225.371,87.863C225.371,103.357 237.937,115.918 253.439,115.918Z" transform="rotate(329.015 253.439 87.863)" fill="#FFFFFF" stroke="#262626" stroke-width="0.496" stroke-miterlimit="10"/>
</svg>
