<svg width="352" height="352" viewBox="0 0 352 352" fill="none" xmlns="http://www.w3.org/2000/svg" xmlns:xlink="http://www.w3.org/1999/xlink">
<path d="M174.625,-0.614C271.505,-0.614 350.043,77.904 350.043,174.761L350.043,350.136L174.625,350.136C77.744,350.136 -0.793,271.618 -0.793,174.761C-0.793,77.904 77.744,-0.614 174.625,-0.614Z" clip-rule="evenodd" fill-rule="evenodd" transform="rotate(180 174.625 174.761)" fill="#E45865"/>
<path d="M174.625,-0.614C271.505,-0.614 350.043,77.904 350.043,174.761L350.043,350.136L174.625,350.136C77.744,350.136 -0.793,271.618 -0.793,174.761C-0.793,77.904 77.744,-0.614 174.625,-0.614Z" clip-rule="evenodd" fill-rule="evenodd" transform="rotate(180 174.625 174.761)" fill="url(#pattern_1_67_562)" style="mix-blend-mode:overlay"/>
<path d="M176.378,87.051L264.066,174.76L176.378,262.469L88.691,174.76L176.378,87.051Z" fill="#FFD4C4"/>
</svg>
