<svg width="160" height="242" viewBox="0 0 160 242" fill="none" xmlns="http://www.w3.org/2000/svg" xmlns:xlink="http://www.w3.org/1999/xlink">
<path d="M79.875,80.329L159.75,160.224L79.875,240.118L0,160.224L79.875,80.329Z" fill="#1C528A"/>
<path d="M159.75,160.224L0,160.224L0,0.435L159.75,160.224Z" clip-rule="evenodd" fill-rule="evenodd" fill="#98DEDE"/>
<path d="M159.75,160.224L0,160.224L0,0.435L159.75,160.224Z" clip-rule="evenodd" fill-rule="evenodd" fill="url(#pattern_1_67_1452)" style="mix-blend-mode:overlay"/>
<path d="M79.875,200.171C101.932,200.171 119.813,182.286 119.813,160.224C119.813,138.161 101.932,120.276 79.875,120.276C57.818,120.276 39.938,138.161 39.938,160.224C39.938,182.286 57.818,200.171 79.875,200.171Z" clip-rule="evenodd" fill-rule="evenodd" fill="#98DEDE"/>
<path d="M79.875,200.171C101.932,200.171 119.813,182.286 119.813,160.224C119.813,138.161 101.932,120.276 79.875,120.276C57.818,120.276 39.938,138.161 39.938,160.224C39.938,182.286 57.818,200.171 79.875,200.171Z" clip-rule="evenodd" fill-rule="evenodd" fill="url(#pattern_1_67_1472)" style="mix-blend-mode:overlay"/>
</svg>
