<svg width="160" height="160" viewBox="0 0 160 160" fill="none" xmlns="http://www.w3.org/2000/svg" xmlns:xlink="http://www.w3.org/1999/xlink">
<path d="M79.625,0.198C123.739,0.198 159.5,35.968 159.5,80.093C159.5,124.217 123.739,159.987 79.625,159.987L-0.25,159.987L-0.25,80.093C-0.25,35.968 35.511,0.198 79.625,0.198Z" clip-rule="evenodd" fill-rule="evenodd" fill="#E45865"/>
<path d="M79.625,0.198C123.739,0.198 159.5,35.968 159.5,80.093C159.5,124.217 123.739,159.987 79.625,159.987L-0.25,159.987L-0.25,80.093C-0.25,35.968 35.511,0.198 79.625,0.198Z" clip-rule="evenodd" fill-rule="evenodd" fill="url(#pattern_1_67_1193)" style="mix-blend-mode:overlay"/>
<path d="M79.625,120.04C101.682,120.04 119.563,102.155 119.563,80.093C119.563,58.031 101.682,40.146 79.625,40.146C57.568,40.146 39.688,58.031 39.688,80.093C39.688,102.155 57.568,120.04 79.625,120.04Z" clip-rule="evenodd" fill-rule="evenodd" fill="#98DEDE"/>
<path d="M79.625,120.04C101.682,120.04 119.563,102.155 119.563,80.093C119.563,58.031 101.682,40.146 79.625,40.146C57.568,40.146 39.688,58.031 39.688,80.093C39.688,102.155 57.568,120.04 79.625,120.04Z" clip-rule="evenodd" fill-rule="evenodd" fill="url(#pattern_1_67_1217)" style="mix-blend-mode:overlay"/>
</svg>
