<svg width="162" height="162" viewBox="0 0 162 162" fill="none" xmlns="http://www.w3.org/2000/svg" xmlns:xlink="http://www.w3.org/1999/xlink">
<path d="M160.5,80.118C160.5,124.243 124.739,160.013 80.625,160.013L0.75,160.013L0.75,80.118C0.75,35.994 36.511,0.224 80.625,0.224C124.739,0.224 160.5,35.994 160.5,80.118Z" fill="#1C528A"/>
<path d="M121.361,80.118C121.361,102.181 103.481,120.066 81.424,120.066L41.486,120.066L41.486,80.118C41.486,58.056 59.367,40.171 81.424,40.171C103.481,40.171 121.361,58.056 121.361,80.118Z" clip-rule="evenodd" fill-rule="evenodd" fill="#E45865"/>
<path d="M121.361,80.118C121.361,102.181 103.481,120.066 81.424,120.066L41.486,120.066L41.486,80.118C41.486,58.056 59.367,40.171 81.424,40.171C103.481,40.171 121.361,58.056 121.361,80.118Z" clip-rule="evenodd" fill-rule="evenodd" fill="url(#pattern_1_67_1427)" style="mix-blend-mode:overlay"/>
</svg>
