<svg width="352" height="352" viewBox="0 0 352 352" fill="none" xmlns="http://www.w3.org/2000/svg" xmlns:xlink="http://www.w3.org/1999/xlink">
<path d="M176.125,-0.329C272.982,-0.329 351.5,78.209 351.5,175.089C351.5,271.969 272.982,350.507 176.125,350.507L0.75,350.507L0.75,175.089C0.75,78.209 79.268,-0.329 176.125,-0.329Z" clip-rule="evenodd" fill-rule="evenodd" fill="#E45865"/>
<path d="M176.125,-0.329C272.982,-0.329 351.5,78.209 351.5,175.089C351.5,271.969 272.982,350.507 176.125,350.507L0.75,350.507L0.75,175.089C0.75,78.209 79.268,-0.329 176.125,-0.329Z" clip-rule="evenodd" fill-rule="evenodd" fill="url(#pattern_1_67_585)" style="mix-blend-mode:overlay"/>
<path d="M176.125,262.798C224.554,262.798 263.813,223.53 263.813,175.089C263.813,126.649 224.554,87.38 176.125,87.38C127.697,87.38 88.438,126.649 88.438,175.089C88.438,223.53 127.697,262.798 176.125,262.798Z" clip-rule="evenodd" fill-rule="evenodd" fill="#98DEDE"/>
<path d="M176.125,262.798C224.554,262.798 263.813,223.53 263.813,175.089C263.813,126.649 224.554,87.38 176.125,87.38C127.697,87.38 88.438,126.649 88.438,175.089C88.438,223.53 127.697,262.798 176.125,262.798Z" clip-rule="evenodd" fill-rule="evenodd" fill="url(#pattern_1_67_608)" style="mix-blend-mode:overlay"/>
</svg>
