<svg width="764" height="986" viewBox="0 0 764 986" fill="none" xmlns="http://www.w3.org/2000/svg" xmlns:xlink="http://www.w3.org/1999/xlink">
<path d="M700.205,936.214L332.215,936.214L128.529,936.214L220.867,802.26L756.331,802.26L748.637,859.281L700.205,936.214Z" transform="rotate(341.718 442.431 869.237)" fill="#172B4D"/>
<path d="M164.3,43.661L67.889,125.119L499.249,914.815L639.565,941.063L687.997,864.129L695.691,807.109L424.111,360.445L369.795,324.241L381.565,275.817L257.995,66.288L164.3,43.661Z" transform="rotate(341.718 381.79 492.361)" fill="#FFFFFF"/>
<path d="M221.935,461.283L200.208,420.554L157.661,421.007L136.84,381.635L178.935,381.183L158.113,342.716L200.208,341.811L221.935,380.73L244.114,420.554L288.472,420.102L312.009,461.283L358.178,461.736L383.072,504.728L335.998,503.823L289.83,503.37L266.745,461.283L221.935,461.283Z" transform="rotate(341.718 259.956 423.269)" fill="#C5E9DA"/>
<path d="M405.716,442.666L363.169,442.666L342.8,402.842L384.895,402.842L405.716,442.666Z" transform="rotate(341.718 374.258 422.754)" fill="#36B37E"/>
<path d="M350.09,494.031L305.732,493.579L284.005,452.397L327.458,452.849L350.09,494.031Z" transform="rotate(341.718 317.048 473.214)" fill="#36B37E"/>
<path d="M378.08,531.654L333.722,530.749L312.448,489.115L355.901,489.567L378.08,531.654Z" transform="rotate(341.718 345.264 510.385)" fill="#172B4D"/>
<path d="M246.763,547.128L223.679,504.136L268.942,505.041L292.932,548.033L317.374,592.383L270.3,590.572L224.131,589.215L201.5,545.77L246.763,547.128Z" transform="rotate(341.718 259.437 548.259)" fill="#172B4D"/>
<path d="M427.972,318.757L447.888,356.771L406.698,357.223L426.614,396.143L385.424,396.595L365.961,358.129L347.403,320.567L387.235,319.662L368.224,282.553L349.666,246.802L389.045,244.992L408.056,281.196L448.793,280.29L469.162,317.852L427.972,318.757Z" transform="rotate(341.718 408.282 320.794)" fill="#36B37E"/>
<path d="M317.295,252.139L358.032,250.781L378.4,287.89L336.758,289.248L317.295,252.139Z" transform="rotate(341.718 347.848 270.015)" fill="#172B4D"/>
<path d="M465.153,271.334L503.627,269.976L521.732,306.633L482.806,307.538L465.153,271.334Z" transform="rotate(341.718 493.443 288.757)" fill="#36B37E"/>
<path d="M468.985,434.208L489.806,474.937L447.259,474.484L405.616,473.579L386.153,433.755L367.143,394.836L407.427,394.836L426.89,434.208L468.985,434.208Z" transform="rotate(341.718 428.474 434.887)" fill="#36B37E"/>
<path d="M362.197,568.335L340.923,525.796L384.376,526.701L406.555,569.693L362.197,568.335Z" transform="rotate(341.718 373.739 547.744)" fill="#36B37E"/>
<path d="M348.891,625.473L303.175,623.663L280.543,579.766L325.354,581.123L348.891,625.473Z" transform="rotate(341.718 314.717 602.619)" fill="#36B37E"/>
<path d="M260.018,297.353L302.113,295.995L323.839,334.009L280.839,335.367L260.018,297.353Z" transform="rotate(341.718 291.928 315.681)" fill="#36B37E"/>
<path d="M220.07,39.202L695.335,936.604L555.019,910.356L123.659,120.661L220.07,39.202Z" transform="rotate(341.718 409.497 487.903)" fill="#C5E9DA"/>
<path d="M611.434,130.233L553.045,151.503L573.866,189.064L611.434,130.233Z" transform="rotate(341.718 582.239 159.649)" fill="#172B4D"/>
<path d="M164.3,43.661L164.669,42.133C164.182,42.015 163.668,42.137 163.286,42.46L164.3,43.661ZM67.889,125.119L66.875,123.919C66.304,124.401 66.152,125.217 66.51,125.872L67.889,125.119ZM499.249,914.815L497.869,915.567C498.095,915.983 498.497,916.273 498.959,916.359L499.249,914.815ZM639.565,941.063L639.277,942.607C639.909,942.725 640.551,942.445 640.895,941.899L639.565,941.063ZM687.997,864.129L689.327,864.967C689.447,864.777 689.525,864.563 689.555,864.339L687.997,864.129ZM695.691,807.109L697.249,807.319C697.297,806.961 697.221,806.599 697.035,806.291L695.691,807.109ZM424.111,360.445L425.455,359.627C425.335,359.431 425.175,359.263 424.983,359.137L424.111,360.445ZM369.795,324.241L368.269,323.869C368.113,324.511 368.375,325.181 368.923,325.549L369.795,324.241ZM381.565,275.817L383.091,276.189C383.187,275.791 383.125,275.371 382.917,275.019L381.565,275.817ZM257.995,66.288L259.349,65.49C259.133,65.123 258.777,64.86 258.364,64.76L257.995,66.288ZM163.286,42.46L66.875,123.919L68.903,126.32L165.314,44.861L163.286,42.46ZM66.51,125.872L497.869,915.567L500.629,914.061L69.268,124.366L66.51,125.872ZM498.959,916.359L639.277,942.607L639.855,939.517L499.537,913.269L498.959,916.359ZM640.895,941.899L689.327,864.967L686.667,863.293L638.235,940.225L640.895,941.899ZM689.555,864.339L697.249,807.319L694.135,806.899L686.439,863.919L689.555,864.339ZM697.035,806.291L425.455,359.627L422.769,361.261L694.349,807.925L697.035,806.291ZM424.983,359.137L370.667,322.933L368.923,325.549L423.239,361.751L424.983,359.137ZM371.323,324.611L383.091,276.189L380.037,275.447L368.269,323.869L371.323,324.611ZM382.917,275.019L259.349,65.49L256.641,67.086L380.211,276.617L382.917,275.019ZM258.364,64.76L164.669,42.133L163.931,45.188L257.626,67.816L258.364,64.76Z" transform="rotate(341.718 381.79 492.361)" fill="#36B37E"/>
<path d="M427.583,355.193L391.373,393.66L447.952,393.66L427.583,355.193Z" transform="rotate(341.718 419.662 374.426)" fill="#FFFFFF"/>
<path d="M445.85,389.305L446.081,390.859C446.431,390.807 446.752,390.639 446.994,390.382L445.85,389.305ZM482.06,350.838L483.205,351.916L483.205,351.916L482.06,350.838ZM373.207,401.721L446.081,390.859L445.618,387.751L372.744,398.612L373.207,401.721ZM446.994,390.382L483.205,351.916L480.916,349.761L444.705,388.228L446.994,390.382ZM483.205,351.916L519.415,313.449L517.127,311.295L480.916,349.761L483.205,351.916Z" transform="rotate(341.718 445.623 356.269)" fill="#36B37E"/>
<path d="M381.931,398.936L383.32,398.202C383.048,397.687 382.513,397.364 381.931,397.364L381.931,398.936ZM325.351,400.507L381.931,400.507L381.931,397.364L325.351,397.364L325.351,400.507ZM380.541,399.669L462.467,554.893L465.247,553.426L383.32,398.202L380.541,399.669Z" transform="rotate(341.718 394.604 476.548)" fill="#36B37E"/>
<path d="M496.773,83.117L496.945,81.555C496.35,81.489 495.768,81.768 495.447,82.273L496.773,83.117ZM422.962,202.075L498.099,83.96L495.447,82.273L420.31,200.388L422.962,202.075ZM496.6,84.679L586.674,94.635L587.02,91.511L496.945,81.555L496.6,84.679Z" transform="rotate(341.718 504.241 142.174)" fill="#36B37E"/>
<path d="M424.45,102.011L440.745,87.529L438.657,85.18L422.362,99.661L424.45,102.011Z" transform="rotate(341.718 431.554 93.595)" fill="#36B37E"/>
<path d="M107.594,622.734L167.795,540.37L347.038,834.978L339.342,892L290.911,968.932L107.594,622.734Z" transform="rotate(341.718 227.316 754.651)" fill="#FFFFFF" stroke="#36B37E" stroke-width="1.572" stroke-miterlimit="10" stroke-linejoin="round"/>
<path d="M312.053,655.686L426.569,621.293L429.285,578.301L408.916,591.877L312.053,655.686Z" transform="rotate(341.718 370.669 616.994)" fill="#172B4D"/>
</svg>
