<svg width="350" height="352" viewBox="0 0 350 352" fill="none" xmlns="http://www.w3.org/2000/svg" xmlns:xlink="http://www.w3.org/1999/xlink">
<path d="M174.375,0.507C271.232,0.507 349.75,79.044 349.75,175.925L349.75,351.343L174.375,351.343C77.518,351.343 -1,272.805 -1,175.925C-1,79.044 77.518,0.507 174.375,0.507Z" clip-rule="evenodd" fill-rule="evenodd" fill="#E45865"/>
<path d="M174.375,0.507C271.232,0.507 349.75,79.044 349.75,175.925L349.75,351.343L174.375,351.343C77.518,351.343 -1,272.805 -1,175.925C-1,79.044 77.518,0.507 174.375,0.507Z" clip-rule="evenodd" fill-rule="evenodd" fill="url(#pattern_1_67_560)" style="mix-blend-mode:overlay"/>
<path d="M176.129,88.216C224.557,88.216 263.816,127.485 263.816,175.925L263.816,263.634L176.129,263.634C127.7,263.634 88.441,224.365 88.441,175.925C88.441,127.485 127.7,88.216 176.129,88.216Z" clip-rule="evenodd" fill-rule="evenodd" fill="url(#pf_0_67_561)"/>
<path d="M176.129,88.216C224.557,88.216 263.816,127.485 263.816,175.925L263.816,263.634L176.129,263.634C127.7,263.634 88.441,224.365 88.441,175.925C88.441,127.485 127.7,88.216 176.129,88.216Z" clip-rule="evenodd" fill-rule="evenodd" fill="url(#pattern_1_67_561)" style="mix-blend-mode:overlay"/>
<defs>
<linearGradient id="pf_0_67_561" x1="1.415" y1="175.263" x2="175.466" y2="349.357" gradientUnits="userSpaceOnUse">
<stop stop-color="#FEC55F"/>
<stop offset="1" stop-color="#FCD06D"/>
</linearGradient>
</defs>
</svg>
