<svg width="160" height="160" viewBox="0 0 160 160" fill="none" xmlns="http://www.w3.org/2000/svg" xmlns:xlink="http://www.w3.org/1999/xlink">
<path d="M79.625,0.013C123.739,0.013 159.5,35.783 159.5,79.907C159.5,124.032 123.739,159.802 79.625,159.802L-0.25,159.802L-0.25,79.907C-0.25,35.783 35.511,0.013 79.625,0.013Z" clip-rule="evenodd" fill-rule="evenodd" fill="#E45865"/>
<path d="M79.625,0.013C123.739,0.013 159.5,35.783 159.5,79.907C159.5,124.032 123.739,159.802 79.625,159.802L-0.25,159.802L-0.25,79.907C-0.25,35.783 35.511,0.013 79.625,0.013Z" clip-rule="evenodd" fill-rule="evenodd" fill="url(#pattern_1_67_1447)" style="mix-blend-mode:overlay"/>
<path d="M79.625,119.855C101.682,119.855 119.563,101.97 119.563,79.907C119.563,57.845 101.682,39.96 79.625,39.96C57.568,39.96 39.688,57.845 39.688,79.907C39.688,101.97 57.568,119.855 79.625,119.855Z" clip-rule="evenodd" fill-rule="evenodd" fill="#98DEDE"/>
<path d="M79.625,119.855C101.682,119.855 119.563,101.97 119.563,79.907C119.563,57.845 101.682,39.96 79.625,39.96C57.568,39.96 39.688,57.845 39.688,79.907C39.688,101.97 57.568,119.855 79.625,119.855Z" clip-rule="evenodd" fill-rule="evenodd" fill="url(#pattern_1_67_1470)" style="mix-blend-mode:overlay"/>
</svg>
