<svg width="172" height="182" viewBox="0 0 172 182" fill="none" xmlns="http://www.w3.org/2000/svg" xmlns:xlink="http://www.w3.org/1999/xlink">
<path d="M84.958,165.715C123.176,165.715 154.157,134.749 154.157,96.549C154.157,58.35 123.176,27.384 84.958,27.384C46.74,27.384 15.758,58.35 15.758,96.549C15.758,134.749 46.74,165.715 84.958,165.715Z" transform="rotate(329.015 84.958 96.549)" fill="#FFFFFF" stroke="#F55800" stroke-width="1.223" stroke-miterlimit="10"/>
<path d="M95.424,2.349L96.383,1.59L95.102,-0.029L94.297,1.872L95.424,2.349ZM54.749,98.442L53.623,97.965L53.312,98.699L53.857,99.279L54.749,98.442ZM127.118,175.528L126.226,176.365L127.541,177.765L128.254,175.982L127.118,175.528ZM114.344,24.293L96.383,1.59L94.464,3.108L112.425,25.811L114.344,24.293ZM94.297,1.872L53.623,97.965L55.876,98.919L96.55,2.826L94.297,1.872ZM53.857,99.279L126.226,176.365L128.01,174.69L55.641,97.605L53.857,99.279ZM128.254,175.982L135.65,157.503L133.378,156.594L125.982,175.073L128.254,175.982Z" transform="rotate(329.015 94.632 88.938)" fill="#F55800"/>
</svg>
