<svg width="162" height="162" viewBox="0 0 162 162" fill="none" xmlns="http://www.w3.org/2000/svg" xmlns:xlink="http://www.w3.org/1999/xlink">
<path d="M80.125,0.454C124.249,0.454 160.019,36.216 160.019,80.329L160.019,160.204L80.125,160.204C36,160.204 0.23,124.443 0.23,80.329C0.23,36.216 36,0.454 80.125,0.454Z" clip-rule="evenodd" fill-rule="evenodd" transform="rotate(-180 80.125 80.329)" fill="#E45865"/>
<path d="M80.125,0.454C124.249,0.454 160.019,36.216 160.019,80.329L160.019,160.204L80.125,160.204C36,160.204 0.23,124.443 0.23,80.329C0.23,36.216 36,0.454 80.125,0.454Z" clip-rule="evenodd" fill-rule="evenodd" transform="rotate(-180 80.125 80.329)" fill="url(#pattern_1_67_1425)" style="mix-blend-mode:overlay"/>
<path d="M80.924,40.382L120.861,80.329L80.924,120.277L40.986,80.329L80.924,40.382Z" fill="#FFD4C4"/>
</svg>
