<svg width="70" height="74" viewBox="0 0 70 74" fill="none" xmlns="http://www.w3.org/2000/svg" xmlns:xlink="http://www.w3.org/1999/xlink">
<path d="M35,66.762C50.502,66.762 63.068,54.201 63.068,38.707C63.068,23.213 50.502,10.652 35,10.652C19.498,10.652 6.931,23.213 6.931,38.707C6.931,54.201 19.498,66.762 35,66.762Z" transform="rotate(329.015 35 38.707)" fill="#FFFFFF" stroke="#FF6B00" stroke-width="0.496" stroke-miterlimit="10"/>
<path d="M39.243,0.498L39.632,0.19L39.112,-0.467L38.786,0.305L39.243,0.498ZM22.744,39.475L22.287,39.282L22.161,39.579L22.383,39.815L22.744,39.475ZM52.099,70.743L51.737,71.082L52.27,71.65L52.559,70.927L52.099,70.743ZM46.917,9.399L39.632,0.19L38.854,0.806L46.139,10.015L46.917,9.399ZM38.786,0.305L22.287,39.282L23.201,39.669L39.7,0.691L38.786,0.305ZM22.383,39.815L51.737,71.082L52.46,70.403L23.106,39.136L22.383,39.815ZM52.559,70.927L55.559,63.431L54.638,63.063L51.638,70.558L52.559,70.927Z" transform="rotate(329.015 38.921 35.62)" fill="#FF6B00"/>
</svg>
