<svg width="352" height="352" viewBox="0 0 352 352" fill="none" xmlns="http://www.w3.org/2000/svg" xmlns:xlink="http://www.w3.org/1999/xlink">
<path d="M0.75,0L351.5,0L351.5,350.836L0.75,0Z" fill="#FFD4C4"/>
<path d="M351.5,350.836L0.75,350.836L0.75,0L351.5,350.836Z" clip-rule="evenodd" fill-rule="evenodd" fill="#E45865"/>
<path d="M351.5,350.836L0.75,350.836L0.75,0L351.5,350.836Z" clip-rule="evenodd" fill-rule="evenodd" fill="url(#pattern_1_67_589)" style="mix-blend-mode:overlay"/>
<path d="M176.125,263.127C224.554,263.127 263.813,223.858 263.813,175.418C263.813,126.977 224.554,87.709 176.125,87.709C127.697,87.709 88.438,126.977 88.438,175.418C88.438,223.858 127.697,263.127 176.125,263.127Z" clip-rule="evenodd" fill-rule="evenodd" fill="#98DEDE"/>
<path d="M176.125,263.127C224.554,263.127 263.813,223.858 263.813,175.418C263.813,126.977 224.554,87.709 176.125,87.709C127.697,87.709 88.438,126.977 88.438,175.418C88.438,223.858 127.697,263.127 176.125,263.127Z" clip-rule="evenodd" fill-rule="evenodd" fill="url(#pattern_1_67_611)" style="mix-blend-mode:overlay"/>
</svg>
