<svg width="162" height="160" viewBox="0 0 162 160" fill="none" xmlns="http://www.w3.org/2000/svg" xmlns:xlink="http://www.w3.org/1999/xlink">
<path d="M80.125,-0.204C124.249,-0.204 160.019,35.557 160.019,79.671L160.019,159.546L80.125,159.546C36,159.546 0.23,123.784 0.23,79.671C0.23,35.557 36,-0.204 80.125,-0.204Z" clip-rule="evenodd" fill-rule="evenodd" transform="rotate(180 80.125 79.671)" fill="#E45865"/>
<path d="M80.125,-0.204C124.249,-0.204 160.019,35.557 160.019,79.671L160.019,159.546L80.125,159.546C36,159.546 0.23,123.784 0.23,79.671C0.23,35.557 36,-0.204 80.125,-0.204Z" clip-rule="evenodd" fill-rule="evenodd" transform="rotate(180 80.125 79.671)" fill="url(#pattern_1_67_1170)" style="mix-blend-mode:overlay"/>
<path d="M80.924,39.723L120.861,79.671L80.924,119.618L40.986,79.671L80.924,39.723Z" fill="#FFD4C4"/>
</svg>
