<svg width="352" height="528" viewBox="0 0 352 528" fill="none" xmlns="http://www.w3.org/2000/svg" xmlns:xlink="http://www.w3.org/1999/xlink">
<path d="M175.375,-0.075L350.75,175.342L175.375,350.761L0,175.342L175.375,-0.075Z" fill="#1C528A"/>
<path d="M350.75,526.179L0,526.179L0,175.343L350.75,526.179Z" clip-rule="evenodd" fill-rule="evenodd" fill="#98DEDE"/>
<path d="M350.75,526.179L0,526.179L0,175.343L350.75,526.179Z" clip-rule="evenodd" fill-rule="evenodd" fill="url(#pattern_1_67_591)" style="mix-blend-mode:overlay"/>
<path d="M175.375,263.052C223.804,263.052 263.063,223.783 263.063,175.343C263.063,126.902 223.804,87.634 175.375,87.634C126.947,87.634 87.688,126.902 87.688,175.343C87.688,223.783 126.947,263.052 175.375,263.052Z" clip-rule="evenodd" fill-rule="evenodd" fill="#98DEDE"/>
<path d="M175.375,263.052C223.804,263.052 263.063,223.783 263.063,175.343C263.063,126.902 223.804,87.634 175.375,87.634C126.947,87.634 87.688,126.902 87.688,175.343C87.688,223.783 126.947,263.052 175.375,263.052Z" clip-rule="evenodd" fill-rule="evenodd" fill="url(#pattern_1_67_610)" style="mix-blend-mode:overlay"/>
</svg>
