<svg width="2582" height="1438" viewBox="0 0 2582 1438" fill="none" xmlns="http://www.w3.org/2000/svg" xmlns:xlink="http://www.w3.org/1999/xlink">
<rect  x="2273.186" y="84.559" width="214.409" height="49.398" transform="rotate(-46.353 2273.186 84.559)" fill="#7F8CFF"/>
<path d="M2565.392,145.684C2555.45,128.036 2541.492,112.977 2524.648,101.726C2507.803,90.476 2488.545,83.35 2468.435,80.927C2448.324,78.503 2427.926,80.849 2408.89,87.776C2389.855,94.702 2372.719,106.013 2358.868,120.794C2345.018,135.575 2334.843,153.41 2329.167,172.855C2323.492,192.3 2322.475,212.808 2326.199,232.718C2329.924,252.629 2338.284,271.383 2350.605,287.462C2362.925,303.54 2378.859,316.492 2397.115,325.266L2421.163,275.237C2410.762,270.238 2401.684,262.859 2394.666,253.7C2387.647,244.54 2382.884,233.856 2380.762,222.512C2378.64,211.169 2379.219,199.486 2382.453,188.408C2385.686,177.331 2391.483,167.17 2399.373,158.749C2407.264,150.329 2417.027,143.885 2427.871,139.939C2438.715,135.993 2450.336,134.656 2461.793,136.037C2473.25,137.418 2484.221,141.477 2493.817,147.886C2503.414,154.296 2511.366,162.875 2517.03,172.929L2565.392,145.684Z" fill="#FFFFFF"/>
<circle cx="817" cy="97" r="27" fill="#7F8CFF"/>
<rect  x="42.869" y="693.819" width="235.059" height="42.051" transform="rotate(73.479 42.869 693.819)" fill="#7F8CFF"/>
<circle cx="68.395" cy="656.059" r="48" transform="rotate(97.887 68.395 656.059)" fill="#FFFFFF"/>
<rect  x="524" y="1368.694" width="111.2" height="19.893" transform="rotate(-47.398 524 1368.694)" fill="#FFFFFF"/>
<path d="M653.223,1423.057C653.223,1412.136 648.884,1401.663 641.162,1393.941C633.44,1386.218 622.966,1381.88 612.046,1381.88C601.125,1381.88 590.651,1386.218 582.929,1393.941C575.207,1401.663 570.868,1412.136 570.868,1423.057L653.223,1423.057Z" transform="rotate(-313.76 612.046 1402.469)" fill="#7F8CFF"/>
<circle cx="2183" cy="959" r="75" fill="#7F8CFF"/>
</svg>
