<svg width="160" height="162" viewBox="0 0 160 162" fill="none" xmlns="http://www.w3.org/2000/svg" xmlns:xlink="http://www.w3.org/1999/xlink">
<path d="M159,80.304C159,124.428 123.239,160.198 79.125,160.198L-0.75,160.198L-0.75,0.409L79.125,0.409C123.239,0.409 159,36.179 159,80.304Z" clip-rule="evenodd" fill-rule="evenodd" fill="#E45865"/>
<path d="M159,80.304C159,124.428 123.239,160.198 79.125,160.198L-0.75,160.198L-0.75,0.409L79.125,0.409C123.239,0.409 159,36.179 159,80.304Z" clip-rule="evenodd" fill-rule="evenodd" fill="url(#pattern_1_67_1167)" style="mix-blend-mode:overlay"/>
<path d="M118.264,80.304C118.264,102.366 100.383,120.251 78.326,120.251L38.389,120.251L38.389,80.304C38.389,58.241 56.269,40.356 78.326,40.356C100.383,40.356 118.264,58.241 118.264,80.304Z" clip-rule="evenodd" fill-rule="evenodd" fill="#98DEDE"/>
<path d="M118.264,80.304C118.264,102.366 100.383,120.251 78.326,120.251L38.389,120.251L38.389,80.304C38.389,58.241 56.269,40.356 78.326,40.356C100.383,40.356 118.264,58.241 118.264,80.304Z" clip-rule="evenodd" fill-rule="evenodd" fill="url(#pattern_1_67_1173)" style="mix-blend-mode:overlay"/>
</svg>
