<svg width="530" height="1420" viewBox="0 0 530 1420" fill="none" xmlns="http://www.w3.org/2000/svg" xmlns:xlink="http://www.w3.org/1999/xlink">
<rect  x="314" y="58.799" width="149.402" height="34.421" transform="rotate(-46.353 314 58.799)" fill="#7F8CFF"/>
<path d="M518.413,100.821C511.477,88.645 501.738,78.255 489.986,70.493C478.234,62.731 464.799,57.815 450.768,56.143C436.738,54.471 422.506,56.09 409.226,60.869C395.946,65.647 383.99,73.451 374.327,83.649C364.664,93.847 357.565,106.151 353.605,119.567C349.645,132.982 348.936,147.131 351.534,160.868C354.133,174.605 359.966,187.544 368.561,198.636C377.157,209.729 388.274,218.665 401.011,224.719L417.788,190.202C410.532,186.753 404.198,181.663 399.302,175.343C394.405,169.024 391.082,161.652 389.601,153.826C388.121,146.001 388.525,137.94 390.781,130.297C393.037,122.655 397.081,115.645 402.586,109.835C408.091,104.025 414.902,99.579 422.468,96.857C430.034,94.135 438.142,93.212 446.135,94.165C454.128,95.118 461.782,97.918 468.477,102.34C475.172,106.762 480.72,112.681 484.672,119.618L518.413,100.821Z" fill="#FFFFFF"/>
<circle cx="21" cy="89" r="21" fill="#7F8CFF"/>
<rect  x="227.912" y="1398.909" width="152.35" height="27.255" transform="rotate(73.479 227.912 1398.909)" fill="#7F8CFF"/>
<circle cx="244.457" cy="1374.438" r="31.11" transform="rotate(97.887 244.457 1374.438)" fill="#FFFFFF"/>
</svg>
