<svg width="162" height="160" viewBox="0 0 162 160" fill="none" xmlns="http://www.w3.org/2000/svg" xmlns:xlink="http://www.w3.org/1999/xlink">
<path d="M160.5,79.882C160.5,124.006 124.739,159.776 80.625,159.776L0.75,159.776L0.75,79.882C0.75,35.757 36.511,-0.013 80.625,-0.013C124.739,-0.013 160.5,35.757 160.5,79.882Z" fill="#1C528A"/>
<path d="M121.361,79.882C121.361,101.944 103.481,119.829 81.424,119.829L41.486,119.829L41.486,79.882C41.486,57.82 59.367,39.935 81.424,39.935C103.481,39.935 121.361,57.82 121.361,79.882Z" clip-rule="evenodd" fill-rule="evenodd" fill="#E45865"/>
<path d="M121.361,79.882C121.361,101.944 103.481,119.829 81.424,119.829L41.486,119.829L41.486,79.882C41.486,57.82 59.367,39.935 81.424,39.935C103.481,39.935 121.361,57.82 121.361,79.882Z" clip-rule="evenodd" fill-rule="evenodd" fill="url(#pattern_1_67_1172)" style="mix-blend-mode:overlay"/>
</svg>
