<svg width="160" height="240" viewBox="0 0 160 240" fill="none" xmlns="http://www.w3.org/2000/svg" xmlns:xlink="http://www.w3.org/1999/xlink">
<path d="M79.875,-0.118L159.75,79.776L79.875,159.671L0,79.776L79.875,-0.118Z" fill="#1C528A"/>
<path d="M159.75,239.565L0,239.565L0,79.776L159.75,239.565Z" clip-rule="evenodd" fill-rule="evenodd" fill="#98DEDE"/>
<path d="M159.75,239.565L0,239.565L0,79.776L159.75,239.565Z" clip-rule="evenodd" fill-rule="evenodd" fill="url(#pattern_1_67_1199)" style="mix-blend-mode:overlay"/>
<path d="M79.875,119.724C101.932,119.724 119.813,101.839 119.813,79.776C119.813,57.714 101.932,39.829 79.875,39.829C57.818,39.829 39.938,57.714 39.938,79.776C39.938,101.839 57.818,119.724 79.875,119.724Z" clip-rule="evenodd" fill-rule="evenodd" fill="#98DEDE"/>
<path d="M79.875,119.724C101.932,119.724 119.813,101.839 119.813,79.776C119.813,57.714 101.932,39.829 79.875,39.829C57.818,39.829 39.938,57.714 39.938,79.776C39.938,101.839 57.818,119.724 79.875,119.724Z" clip-rule="evenodd" fill-rule="evenodd" fill="url(#pattern_1_67_1219)" style="mix-blend-mode:overlay"/>
</svg>
