<svg width="714" height="618" viewBox="0 0 714 618" fill="none" xmlns="http://www.w3.org/2000/svg" xmlns:xlink="http://www.w3.org/1999/xlink">
<path d="M62.06,131.597C62.06,131.597 114.884,82.495 200.459,87.775C286.034,93.055 522.686,214.491 522.686,214.491L621.996,549.76C621.996,549.76 337.802,418.292 257.509,423.044C180.914,427.268 128.09,475.842 128.09,475.842L62.06,131.597Z" transform="rotate(329.015 342.027 318.569)" fill="#262626"/>
<path d="M-0.374,44.803C-0.374,44.803 52.978,11.012 138.025,0.981C214.62,-7.995 460.252,127.697 460.252,127.697L559.562,462.966C559.562,462.966 275.368,340.474 195.075,336.25C114.782,332.026 63.015,374.264 63.015,374.264L-0.374,44.803Z" transform="rotate(329.015 279.594 231.76)" fill="#FFFFFF" stroke="#F55800" stroke-width="1.223" stroke-miterlimit="10"/>
<path d="M112.774,22.71L153.449,173.713L333.05,251.326L288.678,94.516L157.147,36.438L112.774,22.71Z" transform="rotate(329.015 222.912 137.019)" fill="#262626"/>
<path d="M72.929,13.409L114.132,164.412L293.733,242.025L252.531,96.83L72.929,13.409Z" transform="rotate(329.015 183.332 127.717)" fill="#FFFFFF" stroke="#262626" stroke-width="1.223" stroke-miterlimit="10"/>
<path d="M121.133,181.943L135.924,235.269L199.313,262.724L184.522,211.51L121.133,181.943Z" transform="rotate(329.015 160.223 222.333)" fill="#FFFFFF" stroke="#262626" stroke-width="1.223" stroke-miterlimit="10"/>
<path d="M281.705,269.006L304.947,354.539L399.502,383.578L376.26,301.213L281.705,269.006Z" transform="rotate(329.015 340.604 326.292)" fill="#FFFFFF" stroke="#262626" stroke-width="1.223" stroke-miterlimit="10"/>
<path d="M643.47,318.357C681.687,318.357 712.669,287.391 712.669,249.191C712.669,210.992 681.687,180.026 643.47,180.026C605.252,180.026 574.27,210.992 574.27,249.191C574.27,287.391 605.252,318.357 643.47,318.357Z" transform="rotate(329.015 643.47 249.191)" fill="#262626"/>
<path d="M625.933,288.701C664.15,288.701 695.132,257.734 695.132,219.535C695.132,181.336 664.15,150.369 625.933,150.369C587.715,150.369 556.733,181.336 556.733,219.535C556.733,257.734 587.715,288.701 625.933,288.701Z" transform="rotate(329.015 625.932 219.535)" fill="#FFFFFF" stroke="#262626" stroke-width="1.223" stroke-miterlimit="10"/>
</svg>
