<svg width="352" height="352" viewBox="0 0 352 352" fill="none" xmlns="http://www.w3.org/2000/svg" xmlns:xlink="http://www.w3.org/1999/xlink">
<path d="M351,176.253C351,273.134 272.482,351.672 175.625,351.672L0.25,351.672L0.25,0.836L175.625,0.836C272.482,0.836 351,79.373 351,176.253Z" clip-rule="evenodd" fill-rule="evenodd" fill="#E45865"/>
<path d="M351,176.253C351,273.134 272.482,351.672 175.625,351.672L0.25,351.672L0.25,0.836L175.625,0.836C272.482,0.836 351,79.373 351,176.253Z" clip-rule="evenodd" fill-rule="evenodd" fill="url(#pattern_1_67_559)" style="mix-blend-mode:overlay"/>
<path d="M261.559,176.254C261.559,224.694 222.3,263.962 173.871,263.962L86.184,263.962L86.184,176.254C86.184,127.813 125.443,88.545 173.871,88.545C222.3,88.545 261.559,127.813 261.559,176.254Z" clip-rule="evenodd" fill-rule="evenodd" fill="#98DEDE"/>
<path d="M261.559,176.254C261.559,224.694 222.3,263.962 173.871,263.962L86.184,263.962L86.184,176.254C86.184,127.813 125.443,88.545 173.871,88.545C222.3,88.545 261.559,127.813 261.559,176.254Z" clip-rule="evenodd" fill-rule="evenodd" fill="url(#pattern_1_67_565)" style="mix-blend-mode:overlay"/>
</svg>
