<svg width="1228" height="702" viewBox="0 0 1228 702" fill="none" xmlns="http://www.w3.org/2000/svg" xmlns:xlink="http://www.w3.org/1999/xlink">
<path d="M525.168,350.253C525.168,543.967 368.879,701.003 176.086,701.003L176.086,-0.497C368.879,-0.497 525.168,156.54 525.168,350.253Z" clip-rule="evenodd" fill-rule="evenodd" transform="rotate(180 350.627 350.253)" fill="#98DEDE"/>
<path d="M525.168,350.253C525.168,543.967 368.879,701.003 176.086,701.003L176.086,-0.497C368.879,-0.497 525.168,156.54 525.168,350.253Z" clip-rule="evenodd" fill-rule="evenodd" transform="rotate(180 350.627 350.253)" fill="url(#pattern_1_67_569)" style="mix-blend-mode:overlay"/>
<path d="M349.75,262.545L437.438,350.254L349.75,437.962L262.063,350.254L349.75,262.545Z" fill="#FFFFFF"/>
<path d="M875.875,701.046C682.114,701.046 525.039,544.01 525.039,350.296L1226.711,350.296C1226.711,544.01 1069.635,701.046 875.875,701.046Z" transform="rotate(180 875.875 525.671)" fill="#1C528A"/>
</svg>
