<svg width="160" height="160" viewBox="0 0 160 160" fill="none" xmlns="http://www.w3.org/2000/svg" xmlns:xlink="http://www.w3.org/1999/xlink">
<path d="M159.25,79.591C159.25,123.774 123.433,159.591 79.25,159.591L-0.75,159.591L-0.75,-0.409L79.25,-0.409C123.433,-0.409 159.25,35.408 159.25,79.591Z" clip-rule="evenodd" fill-rule="evenodd" fill="#E45865"/>
<path d="M159.25,79.591C159.25,123.774 123.433,159.591 79.25,159.591L-0.75,159.591L-0.75,-0.409L79.25,-0.409C123.433,-0.409 159.25,35.408 159.25,79.591Z" clip-rule="evenodd" fill-rule="evenodd" fill="url(#pattern_1_67_1422)" style="mix-blend-mode:overlay"/>
<path d="M119.875,79.947C119.875,102.01 101.994,119.895 79.938,119.895L40,119.895L40,79.947C40,57.885 57.881,40 79.938,40C101.994,40 119.875,57.885 119.875,79.947Z" clip-rule="evenodd" fill-rule="evenodd" fill="#98DEDE"/>
<path d="M119.875,79.947C119.875,102.01 101.994,119.895 79.938,119.895L40,119.895L40,79.947C40,57.885 57.881,40 79.938,40C101.994,40 119.875,57.885 119.875,79.947Z" clip-rule="evenodd" fill-rule="evenodd" fill="url(#pattern_1_67_1428)" style="mix-blend-mode:overlay"/>
<path d="M119.875,79.947C119.875,102.01 101.994,119.895 79.938,119.895L40,119.895L40,79.947C40,57.885 57.881,40 79.938,40C101.994,40 119.875,57.885 119.875,79.947Z" clip-rule="evenodd" fill-rule="evenodd" fill="#FFD4C4"/>
</svg>
