<svg width="160" height="160" viewBox="0 0 160 160" fill="none" xmlns="http://www.w3.org/2000/svg" xmlns:xlink="http://www.w3.org/1999/xlink">
<path d="M-0.25,-0.409L159.5,-0.409L159.5,159.38L-0.25,-0.409Z" fill="#FFD4C4"/>
<path d="M79.625,119.433C101.682,119.433 119.563,101.548 119.563,79.485C119.563,57.423 101.682,39.538 79.625,39.538C57.568,39.538 39.688,57.423 39.688,79.485C39.688,101.548 57.568,119.433 79.625,119.433Z" clip-rule="evenodd" fill-rule="evenodd" fill="#98DEDE"/>
<path d="M79.625,119.433C101.682,119.433 119.563,101.548 119.563,79.485C119.563,57.423 101.682,39.538 79.625,39.538C57.568,39.538 39.688,57.423 39.688,79.485C39.688,101.548 57.568,119.433 79.625,119.433Z" clip-rule="evenodd" fill-rule="evenodd" fill="url(#pattern_1_67_1473)" style="mix-blend-mode:overlay"/>
</svg>
