<svg width="352" height="352" viewBox="0 0 352 352" fill="none" xmlns="http://www.w3.org/2000/svg" xmlns:xlink="http://www.w3.org/1999/xlink">
<path d="M350.5,175.925C350.5,272.805 271.982,351.343 175.125,351.343L-0.25,351.343L-0.25,175.925C-0.25,79.044 78.268,0.507 175.125,0.507C271.982,0.507 350.5,79.044 350.5,175.925Z" fill="#1C528A"/>
<path d="M264.567,175.925C264.567,224.365 225.308,263.634 176.879,263.634L89.192,263.634L89.192,175.925C89.192,127.485 128.451,88.216 176.879,88.216C225.308,88.216 264.567,127.485 264.567,175.925Z" clip-rule="evenodd" fill-rule="evenodd" fill="#E45865"/>
<path d="M264.567,175.925C264.567,224.365 225.308,263.634 176.879,263.634L89.192,263.634L89.192,175.925C89.192,127.485 128.451,88.216 176.879,88.216C225.308,88.216 264.567,127.485 264.567,175.925Z" clip-rule="evenodd" fill-rule="evenodd" fill="url(#pattern_1_67_564)" style="mix-blend-mode:overlay"/>
</svg>
