<svg width="988" height="564" viewBox="0 0 988 564" fill="none" xmlns="http://www.w3.org/2000/svg" xmlns:xlink="http://www.w3.org/1999/xlink">
<path d="M234.568,528.531L130.212,528.531L130.212,536.612L234.568,536.612L234.568,528.531Z" transform="rotate(360 182.39 532.572)" fill="#FFFFFF" stroke="#262626" stroke-width="0.577" stroke-miterlimit="10"/>
<path d="M104.353,488.359C104.353,488.359 117.744,500.134 135.06,494.824C152.376,489.514 205.94,472.198 205.94,472.198L189.316,457.422C189.316,457.422 132.751,457.422 105.739,454.651L91.886,467.581L104.353,488.359Z" transform="rotate(360 148.913 475.426)" fill="#FFFFFF" stroke="#262626" stroke-width="0.577" stroke-miterlimit="10"/>
<path d="M252.837,331.594C252.837,331.594 267.151,352.604 245.218,381.464C223.284,410.324 190.962,449.573 190.962,449.573C190.962,449.573 174.8,474.969 184.035,488.129L120.082,427.408L252.837,331.594Z" transform="rotate(360 188.754 409.862)" fill="#FFFFFF" stroke="#262626" stroke-width="0.577" stroke-miterlimit="10"/>
<path d="M286.324,316.819L153.801,467.121C153.801,467.121 112.243,515.605 128.404,543.309C144.565,571.015 181.044,564.551 205.517,553.931C229.99,543.309 520.434,331.827 520.434,331.827L281.476,127.269L167.653,212.924L286.324,316.819Z" transform="rotate(360 322.553 345.152)" fill="#FFFFFF" stroke="#262626" stroke-width="0.577" stroke-miterlimit="10"/>
<path d="M165.074,261.871L216.329,231.396L291.133,297.196L242.418,335.059L165.074,261.871Z" transform="rotate(360 228.103 283.227)" fill="#FF6B00" stroke="#262626" stroke-width="0.577" stroke-miterlimit="10"/>
<path d="M117.745,261.871L245.189,175.062L322.533,243.17L195.089,335.06L117.745,261.871Z" transform="rotate(360 220.139 255.06)" fill="#FFFFFF" stroke="#262626" stroke-width="0.577" stroke-miterlimit="10"/>
<path d="M295.751,221.467L323.918,245.247L248.19,307.122L198.552,260.254L295.751,221.467Z" transform="rotate(360 261.235 264.295)" fill="#262626"/>
<path d="M251.191,527.149L466.599,353.761L418.115,305.507L251.191,527.149Z" transform="rotate(360 358.895 416.328)" fill="#262626"/>
<path d="M199.706,453.729L466.138,143.199L543.714,211.308L276.819,527.147L199.706,453.729Z" transform="rotate(360 371.709 335.173)" fill="#FFFFFF" stroke="#262626" stroke-width="0.577" stroke-miterlimit="10"/>
<path d="M689.402,218.463L522.016,82.477C518.553,118.263 503.315,154.51 503.315,154.51L340.316,308.275L396.419,356.991L392.725,359.991C365.943,386.773 392.725,419.097 392.725,419.097L543.026,551.157C524.094,525.069 546.952,488.129 546.952,488.129L694.712,316.587C738.118,264.177 689.402,218.463 689.402,218.463Z" transform="rotate(360 526.516 316.817)" fill="#FFFFFF" stroke="#262626" stroke-width="0.577" stroke-miterlimit="10"/>
<path d="M439.955,439.413C439.955,439.413 426.103,411.477 448.498,384.927C470.662,358.376 672.681,198.378 672.681,198.378L645.437,171.365L416.637,360.223C416.637,360.223 394.242,382.387 410.865,410.091L416.637,419.327L439.955,439.413Z" transform="rotate(360 538.702 305.39)" fill="#FF6B00" stroke="#262626" stroke-width="0.577" stroke-miterlimit="10"/>
<path d="M385.205,378.925C385.205,378.925 348.957,423.947 370.429,463.657C391.9,503.369 445.926,484.205 451.928,479.125C458.162,474.277 760.38,226.315 760.38,226.315C760.38,226.315 781.622,205.305 820.87,200.919C866.122,195.839 894.29,218.696 894.29,218.696L726.904,82.709C726.904,82.709 675.418,54.312 612.158,94.253C548.897,134.195 363.733,282.187 363.733,282.187L406.446,343.139C406.446,343.139 396.98,359.531 385.205,378.925Z" transform="rotate(360 628.959 280.568)" fill="#FFFFFF" stroke="#262626" stroke-width="0.577" stroke-miterlimit="10"/>
<path d="M664.816,73.997L605.069,68.753L594.602,7.133L532.675,0.577L543.141,63.071L479.033,57.39L489.5,122.069L553.608,126.439L615.972,130.81L626.438,193.304L686.185,196.363L697.087,258.419L754.655,260.167L743.751,199.422L733.285,139.113L675.719,135.18L664.816,73.997Z" fill="#666666"/>
<path d="M654.352,314.795L644.321,254.486L584.574,247.057L594.605,308.24L654.352,314.795Z" fill="#262626"/>
<path d="M722.821,247.057L712.354,187.622L654.352,181.504L664.818,241.813L722.821,247.057Z" fill="#262626"/>
<path d="M767.739,300.374L757.273,242.25L701.887,235.258L712.353,294.693L767.739,300.374Z" fill="#262626"/>
<path d="M778.206,172.326L722.82,167.519L733.287,227.391L789.109,231.324L842.751,235.257L832.284,177.133L821.381,119.446L767.74,113.765L778.206,172.326Z" fill="#FF6B00"/>
<path d="M468.568,329.655L532.677,336.647L522.645,274.153L584.573,282.019L574.107,221.273L512.179,212.533L448.07,203.355L458.537,266.286L391.812,257.983L322.471,249.242L332.501,315.233L401.843,322.662L412.309,387.778L479.034,393.46L468.568,329.655Z" fill="#FF6B00"/>
<path d="M342.529,143.482L352.996,210.347L422.337,215.154L412.307,149.601L342.529,143.482Z" fill="#262626"/>
<path d="M371.752,393.46L381.782,456.828L448.071,466.443L438.041,403.948L371.752,393.46Z" fill="#262626"/>
<path d="M644.32,428.861L701.887,435.853L691.42,377.292L680.954,319.168L623.387,309.991L564.076,300.376L574.107,360.685L633.854,368.989L644.32,428.861Z" fill="#262626"/>
<path d="M800.884,294.257L746.807,286.391L757.273,344.077L810.915,351.07L800.884,294.257Z" fill="#262626"/>
<path d="M873.712,286.39L863.245,230.014L810.912,223.896L821.379,280.708L873.712,286.39Z" fill="#262626"/>
<path d="M422.34,73.999L432.806,139.989L499.967,143.485L489.501,78.806L422.34,73.999Z" fill="#262626"/>
<path d="M850.151,370.151L889.4,410.092L823.6,474.045C823.6,473.814 787.814,430.179 850.151,370.151Z" transform="rotate(360 851.389 422.098)" fill="#262626"/>
<path d="M985.943,354.222L884.357,233.704C884.357,233.704 845.339,275.493 836.566,300.889C824.791,335.059 841.183,355.607 841.183,355.607L939.075,473.816C939.075,473.816 922.221,461.118 940.922,411.941C958.7,365.073 985.943,354.222 985.943,354.222Z" transform="rotate(360 909.127 353.76)" fill="#FFFFFF" stroke="#262626" stroke-width="0.577" stroke-miterlimit="10"/>
<path d="M469.834,192.606C469.834,192.606 526.399,160.976 569.111,181.062L479.3,107.643L410.268,121.727L469.834,192.606Z" transform="rotate(360 489.69 150.124)" fill="#262626"/>
<path d="M428.965,152.896L567.26,46.692L658.687,127.269L520.161,239.475L428.965,152.896Z" transform="rotate(360 543.826 143.084)" fill="#FFFFFF" stroke="#262626" stroke-width="0.577" stroke-miterlimit="10"/>
<path d="M27.474,457.423L0.692,536.614L127.906,536.614L156.996,457.423L27.474,457.423Z" transform="rotate(360 78.844 497.019)" fill="#FFFFFF" stroke="#262626" stroke-width="0.577" stroke-miterlimit="10"/>
<path d="M183.545,457.423C183.545,457.423 178.697,451.882 191.626,427.178C204.555,402.244 240.341,368.997 240.341,368.997C240.341,368.997 254.886,354.452 257.426,351.912L152.146,427.871L183.545,457.423Z" transform="rotate(360 204.786 404.668)" fill="#262626"/>
<circle cx="78.055" cy="498.775" r="17.584" transform="rotate(360 78.055 498.775)" fill="#FFFFFF" stroke="#262626" stroke-width="0.549" stroke-miterlimit="3.999327"/>
</svg>
