<svg width="1348" height="770" viewBox="0 0 1348 770" fill="none" xmlns="http://www.w3.org/2000/svg" xmlns:xlink="http://www.w3.org/1999/xlink">
<path d="M320.17,720.616L177.732,720.616L177.732,731.645L320.17,731.645L320.17,720.616Z" transform="rotate(360 248.951 726.131)" fill="#FFFFFF" stroke="#262626" stroke-width="0.788" stroke-miterlimit="10"/>
<path d="M142.438,665.784C142.438,665.784 160.715,681.855 184.35,674.607C207.984,667.359 281.094,643.725 281.094,643.725L258.405,623.557C258.405,623.557 181.199,623.557 144.329,619.775L125.421,637.422L142.438,665.784Z" transform="rotate(360 203.257 648.13)" fill="#FFFFFF" stroke="#262626" stroke-width="0.788" stroke-miterlimit="10"/>
<path d="M345.104,451.812C345.104,451.812 364.641,480.489 334.704,519.88C304.767,559.271 260.649,612.842 260.649,612.842C260.649,612.842 238.591,647.506 251.196,665.468L163.905,582.59L345.104,451.812Z" transform="rotate(360 257.636 558.64)" fill="#FFFFFF" stroke="#262626" stroke-width="0.788" stroke-miterlimit="10"/>
<path d="M390.811,431.645L209.928,636.793C209.928,636.793 153.205,702.969 175.264,740.785C197.322,778.599 247.113,769.775 280.516,755.279C313.92,740.785 710.349,452.127 710.349,452.127L384.193,172.925L228.835,289.837L390.811,431.645Z" transform="rotate(360 440.26 470.316)" fill="#FFFFFF" stroke="#262626" stroke-width="0.788" stroke-miterlimit="10"/>
<path d="M225.318,356.644L295.276,315.047L397.377,404.858L330.885,456.539L225.318,356.644Z" transform="rotate(360 311.347 385.793)" fill="#F55800" stroke="#262626" stroke-width="0.788" stroke-miterlimit="10"/>
<path d="M160.717,356.644L334.667,238.156L440.235,331.119L266.284,456.54L160.717,356.644Z" transform="rotate(360 300.476 347.348)" fill="#FFFFFF" stroke="#262626" stroke-width="0.788" stroke-miterlimit="10"/>
<path d="M403.678,301.497L442.123,333.955L338.761,418.409L271.009,354.438L403.678,301.497Z" transform="rotate(360 356.566 359.953)" fill="#262626"/>
<path d="M342.859,718.725L636.873,482.065L570.695,416.203L342.859,718.725Z" transform="rotate(360 489.866 567.464)" fill="#262626"/>
<path d="M272.586,618.515L636.242,194.669L742.126,287.631L377.838,718.725L272.586,618.515Z" transform="rotate(360 507.355 456.697)" fill="#FFFFFF" stroke="#262626" stroke-width="0.788" stroke-miterlimit="10"/>
<path d="M940.976,297.4L712.51,111.79C707.782,160.635 686.984,210.11 686.984,210.11L464.504,419.984L541.08,486.476L536.038,490.572C499.483,527.128 536.038,571.246 536.038,571.246L741.186,751.498C715.346,715.888 746.542,665.468 746.542,665.468L948.224,431.328C1007.468,359.796 940.976,297.4 940.976,297.4Z" transform="rotate(360 718.651 431.644)" fill="#FFFFFF" stroke="#262626" stroke-width="0.788" stroke-miterlimit="10"/>
<path d="M600.506,598.976C600.506,598.976 581.598,560.846 612.166,524.606C642.418,488.366 918.155,269.984 918.155,269.984L880.969,233.114L568.678,490.888C568.678,490.888 538.111,521.14 560.8,558.956L568.678,571.56L600.506,598.976Z" transform="rotate(360 735.287 416.045)" fill="#F55800" stroke="#262626" stroke-width="0.788" stroke-miterlimit="10"/>
<path d="M525.774,516.413C525.774,516.413 476.299,577.863 505.605,632.065C534.912,686.267 608.652,660.113 616.845,653.179C625.354,646.561 1037.856,308.115 1037.856,308.115C1037.856,308.115 1066.848,279.438 1120.418,273.451C1182.184,266.518 1220.63,297.715 1220.63,297.715L992.162,112.105C992.162,112.105 921.888,73.345 835.544,127.862C749.2,182.379 496.467,384.375 496.467,384.375L554.765,467.569C554.765,467.569 541.845,489.943 525.774,516.413Z" transform="rotate(360 858.477 382.165)" fill="#FFFFFF" stroke="#262626" stroke-width="0.788" stroke-miterlimit="10"/>
<path d="M907.414,100.211L825.864,93.053L811.578,8.947L727.052,0L741.338,85.299L653.836,77.545L668.122,165.826L755.624,171.791L840.745,177.756L855.032,263.054L936.58,267.23L951.462,351.932L1030.036,354.318L1015.154,271.406L1000.868,189.089L922.294,183.721L907.414,100.211Z" fill="#666666"/>
<path d="M893.129,428.881L879.438,346.564L797.889,336.424L811.579,419.933L893.129,428.881Z" fill="#262626"/>
<path d="M986.583,336.424L972.297,255.301L893.129,246.95L907.415,329.266L986.583,336.424Z" fill="#262626"/>
<path d="M1047.893,409.197L1033.607,329.862L958.01,320.319L972.296,401.442L1047.893,409.197Z" fill="#262626"/>
<path d="M1062.179,234.423L986.582,227.862L1000.868,309.582L1077.06,314.95L1150.276,320.319L1135.99,240.985L1121.109,162.247L1047.893,154.493L1062.179,234.423Z" fill="#F55800"/>
<path d="M639.55,449.162L727.053,458.706L713.361,373.407L797.887,384.144L783.601,301.231L699.075,289.301L611.573,276.774L625.859,362.67L534.786,351.336L440.141,339.407L453.831,429.477L548.476,439.618L562.762,528.496L653.837,536.25L639.55,449.162Z" fill="#F55800"/>
<path d="M467.521,195.054L481.808,286.318L576.452,292.88L562.762,203.405L467.521,195.054Z" fill="#262626"/>
<path d="M507.404,536.25L521.095,622.742L611.573,635.865L597.882,550.566L507.404,536.25Z" fill="#262626"/>
<path d="M879.437,584.567L958.01,594.11L943.724,514.18L929.438,434.846L850.864,422.319L769.91,409.197L783.601,491.513L865.15,502.847L879.437,584.567Z" fill="#262626"/>
<path d="M1093.132,400.846L1019.32,390.109L1033.606,468.846L1106.823,478.39L1093.132,400.846Z" fill="#262626"/>
<path d="M1192.538,390.109L1178.252,313.161L1106.822,304.81L1121.108,382.354L1192.538,390.109Z" fill="#262626"/>
<path d="M576.453,100.211L590.739,190.282L682.408,195.054L668.122,106.773L576.453,100.211Z" fill="#262626"/>
<path d="M1160.387,504.438L1213.959,558.955L1124.148,646.246C1124.148,645.931 1075.303,586.371 1160.387,504.438Z" transform="rotate(360 1162.077 575.342)" fill="#262626"/>
<path d="M1345.73,482.695L1207.075,318.198C1207.075,318.198 1153.818,375.236 1141.843,409.9C1125.772,456.539 1148.146,484.586 1148.146,484.586L1281.76,645.93C1281.76,645.93 1258.755,628.598 1284.281,561.476C1308.545,497.506 1345.73,482.695 1345.73,482.695Z" transform="rotate(360 1240.882 482.065)" fill="#FFFFFF" stroke="#262626" stroke-width="0.788" stroke-miterlimit="10"/>
<path d="M641.284,262.106C641.284,262.106 718.491,218.933 776.79,246.349L654.205,146.139L559.982,165.362L641.284,262.106Z" transform="rotate(360 668.385 204.122)" fill="#262626"/>
<path d="M585.505,207.904L774.266,62.945L899.057,172.925L709.98,326.077L585.505,207.904Z" transform="rotate(360 742.281 194.511)" fill="#FFFFFF" stroke="#262626" stroke-width="0.788" stroke-miterlimit="10"/>
<path d="M37.503,623.557L0.948,731.645L174.583,731.645L214.29,623.557L37.503,623.557Z" transform="rotate(360 107.618 677.601)" fill="#FFFFFF" stroke="#262626" stroke-width="0.788" stroke-miterlimit="10"/>
<path d="M250.527,623.557C250.527,623.557 243.909,615.994 261.556,582.275C279.203,548.241 328.048,502.863 328.048,502.863C328.048,502.863 347.901,483.01 351.367,479.544L207.669,583.22L250.527,623.557Z" transform="rotate(360 279.518 551.55)" fill="#262626"/>
<circle cx="106.539" cy="680" r="24" transform="rotate(360 106.539 680)" fill="#FFFFFF" stroke="#262626" stroke-width="0.75" stroke-miterlimit="3.999327"/>
</svg>
