<svg width="36" height="38" viewBox="0 0 36 38" fill="none" xmlns="http://www.w3.org/2000/svg" xmlns:xlink="http://www.w3.org/1999/xlink">
<path d="M35.665,14.281C35.665,12.125 34.921,10.1 33.502,8.335C34.043,6.637 34.178,4.48 34.043,1.997C33.975,0.952 33.096,0.168 32.014,0.168C31.406,0.168 26.268,0.233 23.293,2.782C20.724,2.324 18.019,2.324 15.383,2.782C12.475,0.233 7.337,0.168 6.661,0.168C5.579,0.168 4.701,0.952 4.633,1.997C4.43,4.48 4.633,6.637 5.174,8.335C3.754,10.165 3.01,12.19 3.01,14.281C3.01,18.855 6.661,22.972 12.205,24.932C12.002,25.324 11.867,25.781 11.732,26.239C5.85,25.651 3.078,20.489 2.943,20.293C2.469,19.313 1.253,18.92 0.238,19.443C-0.776,19.901 -1.181,21.077 -0.641,22.057C-0.505,22.384 3.213,29.375 11.394,30.159L11.394,36.04C11.394,37.15 12.273,38 13.422,38L25.253,38C26.403,38 27.282,37.15 27.282,36.04L27.282,28.264C27.282,27.088 27.011,25.977 26.538,24.997C32.014,22.972 35.665,18.92 35.665,14.281Z" fill="#505F79"/>
</svg>
