<svg width="36" height="40" viewBox="0 0 36 40" fill="none" xmlns="http://www.w3.org/2000/svg" xmlns:xlink="http://www.w3.org/1999/xlink">
<path d="M35.97,14.422C35.97,12.186 35.238,10.085 33.841,8.255C34.373,6.494 34.506,4.257 34.373,1.682C34.307,0.598 33.442,-0.215 32.377,-0.215C31.778,-0.215 26.721,-0.147 23.793,2.496C21.264,2.021 18.603,2.021 16.007,2.496C13.146,-0.147 8.089,-0.215 7.423,-0.215C6.359,-0.215 5.493,0.598 5.427,1.682C5.227,4.257 5.427,6.494 5.959,8.255C4.562,10.153 3.83,12.253 3.83,14.422C3.83,19.165 7.423,23.434 12.88,25.467C12.68,25.873 12.547,26.348 12.414,26.822C6.625,26.212 3.896,20.859 3.763,20.656C3.298,19.639 2.1,19.233 1.102,19.775C0.103,20.249 -0.296,21.469 0.237,22.485C0.37,22.824 4.03,30.075 12.081,30.888L12.081,36.986C12.081,38.138 12.946,39.019 14.078,39.019L25.723,39.019C26.854,39.019 27.719,38.138 27.719,36.986L27.719,28.923C27.719,27.703 27.453,26.551 26.987,25.535C32.377,23.434 35.97,19.233 35.97,14.422Z" fill="#505F79"/>
</svg>
