<svg width="794" height="720" viewBox="0 0 794 720" fill="none" xmlns="http://www.w3.org/2000/svg" xmlns:xlink="http://www.w3.org/1999/xlink">
<path d="M465.977,417.647L393.608,411.311L381.459,336.866L306.449,328.946L318.598,404.448L240.947,397.584L253.625,475.725L331.276,481.005L406.814,486.285L419.492,561.786L491.861,565.482L505.067,640.456L574.795,642.568L561.589,569.178L548.911,496.317L479.183,491.565L465.977,417.647Z" transform="rotate(329.015 407.871 485.757)" fill="#666666"/>
<path d="M398.491,352.241L386.341,279.379L313.972,270.404L326.65,344.321L398.491,352.241Z" transform="rotate(329.015 356.231 311.322)" fill="#262626"/>
<path d="M338.521,450.877L325.844,379.072L255.588,371.68L268.265,444.542L338.521,450.877Z" transform="rotate(329.015 297.055 411.279)" fill="#262626"/>
<path d="M265.702,403.243L253.024,333.021L185.938,324.573L198.615,396.379L265.702,403.243Z" transform="rotate(329.015 225.82 363.908)" fill="#262626"/>
<path d="M194.389,485.417L127.302,479.609L139.98,551.943L207.595,556.695L272.568,561.446L259.891,491.225L247.213,421.531L181.711,414.667L194.389,485.417Z" transform="rotate(329.015 199.935 488.057)" fill="#FF6B00"/>
<path d="M562.508,275.034L640.687,283.481L628.009,207.98L703.019,217.484L690.341,144.094L615.331,133.534L537.681,122.447L550.358,198.476L469.537,188.444L385.547,177.885L397.697,257.61L481.687,266.586L494.365,345.255L575.186,352.119L562.508,275.034Z" transform="rotate(329.015 544.284 237.283)" fill="#F55800"/>
<path d="M617.354,309.636L630.032,390.418L714.022,396.226L701.872,317.028L617.354,309.636Z" transform="rotate(329.015 665.688 352.931)" fill="#262626"/>
<path d="M506.517,25.937L518.667,102.495L598.959,114.11L586.81,38.609L506.517,25.937Z" transform="rotate(329.015 552.738 70.024)" fill="#262626"/>
<path d="M326.051,287.581L395.779,296.028L383.101,225.279L370.424,155.057L301.224,143.97L228.855,132.354L241.004,205.215L313.374,215.247L326.051,287.581Z" transform="rotate(329.015 312.317 214.191)" fill="#262626"/>
<path d="M184.134,289.387L118.632,279.884L131.31,349.577L196.812,358.025L184.134,289.387Z" transform="rotate(329.015 157.722 318.954)" fill="#262626"/>
<path d="M141.942,451.265L129.264,383.155L66.404,375.763L79.082,444.401L141.942,451.265Z" transform="rotate(329.015 104.173 413.514)" fill="#262626"/>
<path d="M549.569,418.596L562.247,498.322L643.596,502.545L630.918,424.404L549.569,418.596Z" transform="rotate(329.015 596.582 460.571)" fill="#262626"/>
</svg>
