<svg width="464" height="446" viewBox="0 0 464 446" fill="none" xmlns="http://www.w3.org/2000/svg" xmlns:xlink="http://www.w3.org/1999/xlink">
<path d="M198.298,327.818L214.368,327.818C217.796,325.034 221.438,322.464 224.866,319.466C225.295,319.037 225.724,318.823 226.152,318.395L226.152,299.977L198.298,299.977L198.298,327.818Z" transform="rotate(329.015 212.225 313.897)" fill="#FFFFFF" stroke="#FF6B00" stroke-width="0.496" stroke-miterlimit="10"/>
<path d="M242.261,345.887L214.407,345.887L214.407,318.045L242.261,318.045L242.261,290.205L214.407,290.205L214.407,262.365L242.261,262.365L270.116,262.365L270.116,234.523L242.261,234.523L242.261,206.682L270.116,206.682L270.116,234.523L297.97,234.523L325.824,234.523L325.824,206.682L353.678,206.682L381.534,206.682L381.534,234.523L381.534,262.365L409.388,262.365L409.388,234.523L421.814,234.523L385.604,56.984C385.604,56.984 361.392,36.211 314.896,47.347C245.261,64.052 221.692,110.524 168.125,139.008C134.486,156.997 122.058,143.077 122.058,143.077L140.271,299.199C140.271,299.199 76.634,302.841 53.494,352.525C39.781,382.079 77.277,398.571 111.345,398.571C146.913,398.571 184.41,382.079 242.261,347.815L242.261,345.887L242.261,345.887Z" transform="rotate(329.015 236.204 221.317)" fill="#FFFFFF" stroke="#FF6B00" stroke-width="0.496" stroke-miterlimit="10"/>
<path d="M232.575,347.207L236.003,347.207C244.145,342.282 252.287,336.928 260.429,331.145L260.429,319.367L232.575,319.367L232.575,347.207Z" transform="rotate(329.015 246.502 333.287)" fill="#FFFFFF" stroke="#FF6B00" stroke-width="0.496" stroke-miterlimit="10"/>
<path d="M164.018,308.425L191.23,308.425C191.444,308.425 191.658,308.211 191.873,308.211L191.873,280.584L164.018,280.584L164.018,308.425Z" transform="rotate(329.015 177.946 294.505)" fill="#FFFFFF" stroke="#FF6B00" stroke-width="0.496" stroke-miterlimit="10"/>
<path d="M108.79,311.951C118.861,309.167 128.074,308.096 136.645,307.882L136.645,295.674L108.79,295.674L108.79,311.951Z" transform="rotate(329.015 122.717 303.813)" fill="#FFFFFF" stroke="#FF6B00" stroke-width="0.496" stroke-miterlimit="10"/>
<path d="M82.285,337.613L84.428,337.613L78.857,309.772L60.859,309.772L60.859,326.048C70.929,329.261 78.428,333.972 82.285,337.613Z" transform="rotate(329.015 72.643 323.692)" fill="#FFFFFF" stroke="#FF6B00" stroke-width="0.496" stroke-miterlimit="10"/>
<path d="M157.592,261.198L129.737,261.198L129.737,289.039L157.592,289.039L157.592,261.198Z" transform="rotate(329.015 143.664 275.118)" fill="#FFFFFF" stroke="#FF6B00" stroke-width="0.496" stroke-miterlimit="10"/>
</svg>
