<svg width="540" height="490" viewBox="0 0 540 490" fill="none" xmlns="http://www.w3.org/2000/svg" xmlns:xlink="http://www.w3.org/1999/xlink">
<path d="M386.474,421.029L186.897,488.899L473.247,488.899L509.959,484.894L527.757,473.768L467.017,421.029L386.474,421.029Z" transform="rotate(360 357.328 454.964)" fill="#172B4D"/>
<path d="M0.447,296.415L0.447,285.734C0.447,285.734 23.809,239.448 27.146,239.003C30.484,238.558 301.927,125.516 301.927,125.516L198.467,326.902L157.528,370.516L0.447,296.415Z" transform="rotate(360 151.187 248.016)" fill="#FFFFFF" stroke="#36B37E" stroke-width="1.358" stroke-miterlimit="10"/>
<path d="M176.885,244.121L210.926,245.234L226.501,217.641L259.207,219.198L243.855,246.124L276.339,247.236L261.21,274.607L228.503,273.939L194.684,273.049L178.22,301.533L143.288,301.31L125.933,330.683L89.222,330.683L107.244,300.865L124.821,271.492L160.198,272.382L176.885,244.121Z" transform="rotate(360 182.781 274.162)" fill="#C5E9DA"/>
<path d="M123.486,216.304L139.506,189.156L172.435,190.936L156.86,217.639L123.486,216.304Z" transform="rotate(360 147.96 203.398)" fill="#36B37E"/>
<path d="M172.435,242.786L189.344,214.748L223.608,216.306L207.366,244.121L172.435,242.786Z" transform="rotate(360 198.022 229.435)" fill="#36B37E"/>
<path d="M190.234,213.189L207.366,185.373L241.853,187.153L225.388,214.746L190.234,213.189Z" transform="rotate(360 216.043 200.06)" fill="#36B37E"/>
<path d="M278.786,241.672L314.608,242.784L297.476,271.49L260.987,270.822L223.608,269.932L242.075,240.559L260.097,211.631L296.364,213.189L278.786,241.672Z" transform="rotate(360 269.108 241.56)" fill="#36B37E"/>
<path d="M48.505,220.533L16.689,219.198L31.596,192.495L-0.443,190.937L14.686,164.457L46.281,166.46L77.207,168.462L62.968,194.275L93.672,195.833L123.486,197.391L109.914,223.204L79.655,221.868L65.415,248.349L33.821,247.236L48.505,220.533Z" transform="rotate(360 61.521 206.403)" fill="#172B4D"/>
<path d="M72.312,249.238L58.295,275.941L26.923,275.273L41.608,248.348L72.312,249.238Z" transform="rotate(360 49.618 262.144)" fill="#36B37E"/>
<path d="M45.835,145.319L32.486,170.464L2.227,168.462L16.244,143.094L45.835,145.319Z" transform="rotate(360 24.031 156.779)" fill="#36B37E"/>
<path d="M127.269,189.157L93.45,187.154L109.692,160.228L125.489,133.748L158.195,136.196L190.234,138.644L175.327,164.456L142.843,162.454L127.269,189.157Z" transform="rotate(360 141.842 161.452)" fill="#36B37E"/>
<path d="M225.388,155.777L260.32,158.003L243.633,185.373L208.034,183.593L225.388,155.777Z" transform="rotate(360 234.177 170.575)" fill="#36B37E"/>
<path d="M260.32,210.075L278.564,181.592L315.053,183.595L297.254,211.633L260.32,210.075Z" transform="rotate(360 287.686 196.612)" fill="#36B37E"/>
<path d="M119.704,275.273L104.797,302.866L72.312,302.421L87.665,274.605L119.704,275.273Z" transform="rotate(360 96.008 288.736)" fill="#36B37E"/>
<path d="M113.697,289.293L238.293,315.996L241.408,324.229L213.597,362.281L113.697,289.293Z" transform="rotate(360 177.552 325.787)" fill="#172B4D"/>
<path d="M434.977,297.75L312.606,-0.656L391.369,320.448L399.823,323.34L434.977,297.75Z" transform="rotate(360 373.792 161.342)" fill="#FFFFFF" stroke="#36B37E" stroke-width="1.358" stroke-miterlimit="10"/>
<path d="M312.606,317.555L349.095,278.613L356.882,297.75L321.728,323.341L313.274,320.448L312.606,317.555Z" transform="rotate(360 334.744 300.977)" fill="#36B37E"/>
<path d="M180.667,323.341L205.809,301.979L244.746,272.383L343.31,311.992L347.76,335.802L323.731,369.849L180.667,323.341Z" transform="rotate(360 264.214 321.116)" fill="#FFFFFF" stroke="#36B37E" stroke-width="1.358" stroke-miterlimit="10"/>
<path d="M340.863,339.584L268.107,315.996L309.936,421.028L370.009,424.811L340.863,339.584Z" transform="rotate(360 319.058 370.403)" fill="#FFFFFF" stroke="#36B37E" stroke-width="1.358" stroke-miterlimit="10"/>
<path d="M276.117,364.729L290.579,369.847L297.254,464.866L290.579,484.893L227.168,424.811L198.022,339.584L276.117,364.729Z" transform="rotate(360 247.638 412.238)" fill="#FFFFFF" stroke="#36B37E" stroke-width="1.358" stroke-miterlimit="10"/>
<path d="M344.868,301.979L219.159,369.849L539.551,364.731L344.868,301.979Z" transform="rotate(360 379.354 335.914)" fill="#C5E9DA" stroke="#36B37E" stroke-width="1.358" stroke-miterlimit="10"/>
<path d="M90.557,369.848L90.557,354.272L191.347,215.639L204.697,236.778L108.357,473.767L97.232,464.867L90.557,369.848Z" transform="rotate(360 147.627 344.703)" fill="#FFFFFF" stroke="#36B37E" stroke-width="1.358" stroke-miterlimit="10"/>
<path d="M45.613,215.637L58.963,236.777L103.907,278.612L68.308,206.736L45.613,215.637Z" transform="rotate(360 74.76 242.674)" fill="#FFFFFF" stroke="#36B37E" stroke-width="1.358" stroke-miterlimit="10"/>
<path d="M224.721,380.53L349.763,364.73L219.159,366.956L224.721,380.53Z" transform="rotate(360 284.461 372.63)" fill="#172B4D"/>
<path d="M187.342,360.502L230.951,324.23L232.731,330.461L215.376,354.271L215.376,369.848L187.342,360.502Z" transform="rotate(360 210.036 347.039)" fill="#172B4D"/>
<path d="M84.327,451.069L94.562,463.753L107.912,451.069L177.552,242.786L171.322,236.777L84.327,451.069Z" transform="rotate(360 130.94 350.265)" fill="#C5E9DA" stroke="#36B37E" stroke-width="1.358" stroke-miterlimit="10"/>
</svg>
