<svg width="924" height="1176" viewBox="0 0 924 1176" fill="none" xmlns="http://www.w3.org/2000/svg" xmlns:xlink="http://www.w3.org/1999/xlink">
<rect  x="328.551" y="129.728" width="52.924" height="9.468" transform="rotate(81.533 328.551 129.728)" fill="#6070FF"/>
<path d="M343.608,118.421C343.608,123.944 338.683,128.421 332.608,128.421C326.533,128.421 321.608,123.944 321.608,118.421C321.608,112.898 326.533,108.421 332.608,108.421C338.683,108.421 343.608,112.898 343.608,118.421Z" transform="rotate(105.942 332.608 118.421)" fill="#CBCDFF"/>
<rect  x="451.648" y="1097.999" width="136.126" height="24.352" transform="rotate(46.68 451.648 1097.999)" fill="#EBEBFF"/>
<circle cx="562" cy="1126.19" r="20" fill="#6070FF"/>
<path d="M740.986,896.87C738.666,892.752 735.409,889.239 731.479,886.614C727.548,883.989 723.055,882.326 718.363,881.761C713.67,881.195 708.911,881.743 704.469,883.359C700.028,884.975 696.03,887.614 692.798,891.063C689.566,894.512 687.192,898.673 685.868,903.21C684.543,907.747 684.306,912.532 685.175,917.178C686.044,921.824 687.995,926.2 690.87,929.951C693.744,933.703 697.462,936.725 701.722,938.772L707.333,927.099C704.906,925.932 702.788,924.211 701.15,922.073C699.513,919.936 698.401,917.443 697.906,914.797C697.411,912.15 697.546,909.424 698.301,906.839C699.055,904.254 700.408,901.884 702.249,899.919C704.09,897.954 706.368,896.45 708.898,895.53C711.428,894.609 714.14,894.297 716.813,894.619C719.486,894.942 722.046,895.889 724.285,897.384C726.524,898.88 728.38,900.881 729.701,903.227L740.986,896.87Z" transform="rotate(138.822 714.761 911.644)" fill="#EBEBFF"/>
<path d="M752.397,883.762C752.397,877.359 749.854,871.219 745.326,866.691C740.798,862.164 734.658,859.62 728.255,859.62C721.852,859.62 715.711,862.164 711.184,866.691C706.656,871.219 704.113,877.359 704.113,883.762L752.397,883.762Z" transform="rotate(-352.162 728.255 871.691)" fill="#6070FF"/>
<rect  x="0" y="74.973" width="103.98" height="18.601" transform="rotate(-92.283 0 74.973)" fill="#EBEBFF"/>
<path d="M110.736,101.359C110.736,91.147 106.679,81.354 99.458,74.133C92.238,66.912 82.444,62.856 72.232,62.856C62.021,62.856 52.227,66.912 45.006,74.133C37.786,81.354 33.729,91.147 33.729,101.359L110.736,101.359Z" transform="rotate(-313.76 72.232 82.107)" fill="#6070FF"/>
<circle cx="511" cy="26.999" r="15" fill="#FFFFFF" stroke="#CBCDFF" stroke-width="1" stroke-miterlimit="3.999327"/>
<circle cx="675" cy="432.999" r="11" fill="#FFFFFF" stroke="#CBCDFF" stroke-width="1" stroke-miterlimit="3.999327"/>
<circle cx="189" cy="1096.999" r="15" fill="#FFFFFF" stroke="#CBCDFF" stroke-width="1" stroke-miterlimit="3.999327"/>
<path d="M910.482,149.939C902.39,135.574 891.028,123.317 877.318,114.16C863.607,105.003 847.932,99.203 831.563,97.23C815.194,95.257 798.591,97.167 783.097,102.805C767.603,108.443 753.655,117.65 742.381,129.681C731.108,141.712 722.826,156.228 718.206,172.055C713.586,187.883 712.759,204.575 715.79,220.782C718.822,236.988 725.627,252.253 735.655,265.34C745.683,278.427 758.652,288.969 773.513,296.111L793.086,255.39C784.62,251.32 777.232,245.315 771.518,237.859C765.805,230.403 761.928,221.707 760.201,212.474C758.474,203.241 758.946,193.732 761.578,184.715C764.21,175.698 768.928,167.428 775.35,160.574C781.773,153.72 789.719,148.475 798.546,145.263C807.373,142.051 816.832,140.963 826.157,142.087C835.483,143.211 844.412,146.515 852.223,151.732C860.034,156.949 866.507,163.932 871.117,172.116L910.482,149.939Z" fill="#6070FF"/>
<rect  x="656" y="123.579" width="191.161" height="44.042" transform="rotate(-60 656 123.579)" fill="#EBEBFF"/>
</svg>
