<svg width="78" height="78" viewBox="0 0 78 78" fill="none" xmlns="http://www.w3.org/2000/svg" xmlns:xlink="http://www.w3.org/1999/xlink">
<path d="M24.778,45.6C24.778,46.4 25.178,47.2 25.978,47.6L35.978,53.6C37.178,54.4 38.378,53.6 38.378,52.4L38.378,41.2C38.378,40.8 37.978,40 37.578,40L27.178,33.2C26.378,32.8 24.778,33.6 24.778,34.8L24.778,45.6Z" fill="#091E42"/>
<path d="M39.978,40.799L39.978,51.999C39.978,53.199 41.178,53.999 42.378,53.199L52.378,47.199C53.178,46.799 53.578,45.999 53.578,45.199L53.578,34.799C53.578,33.599 52.378,32.799 51.178,33.599L40.778,39.199C40.378,39.599 39.978,39.999 39.978,40.799Z" fill="#091E42"/>
<path d="M51.178,31.6L39.978,38C39.578,38.4 38.778,38.4 38.378,38L27.178,31.6C25.978,30.8 25.978,29.6 27.178,28.8L38.378,22.4C38.778,22 39.578,22 39.978,22.4L51.178,28.8C52.378,29.2 52.378,30.8 51.178,31.6Z" fill="#36B37E"/>
<path d="M0.778,68C0.778,68.8 1.178,69.6 1.978,70L11.978,76C13.178,76.8 14.378,76 14.378,74.8L14.378,63.6C14.378,63.2 13.978,62.4 13.578,62.4L3.178,56.4C1.978,55.6 0.778,56.4 0.778,57.6L0.778,68L0.778,68Z" fill="#091E42"/>
<path d="M15.978,62.801L15.978,74.001C15.978,75.201 17.178,76.001 18.378,75.201L28.378,69.201C29.178,68.801 29.578,68.001 29.578,67.201L29.578,56.001C29.578,54.801 28.378,54.001 27.178,54.801L16.778,61.601C16.378,62.001 15.978,62.401 15.978,62.801Z" fill="#091E42"/>
<path d="M27.178,53.6L15.978,60C15.578,60.4 14.778,60.4 14.378,60L3.178,53.6C1.978,52.8 1.978,51.6 3.178,50.8L14.378,44.4C14.778,44 15.578,44 15.978,44.4L27.178,50.8C27.978,51.6 27.978,53.2 27.178,53.6Z" fill="#36B37E"/>
<path d="M49.178,68C49.178,68.8 49.578,69.6 50.378,70L60.378,76C61.578,76.8 62.778,76 62.778,74.8L62.778,63.6C62.778,63.2 62.378,62.4 61.978,62.4L51.578,56.4C50.378,55.6 49.178,56.4 49.178,57.6L49.178,68L49.178,68Z" fill="#091E42"/>
<path d="M63.978,62.801L63.978,74.001C63.978,75.201 65.178,76.001 66.378,75.201L76.378,69.201C77.178,68.801 77.578,68.001 77.578,67.201L77.578,56.001C77.578,54.801 76.378,54.001 75.178,54.801L64.778,61.601C64.378,62.001 63.978,62.401 63.978,62.801Z" fill="#091E42"/>
<path d="M75.178,53.6L63.978,60C63.578,60.4 62.778,60.4 62.378,60L51.178,53.6C49.978,52.8 49.978,51.6 51.178,50.8L62.378,44.4C62.778,44 63.578,44 63.978,44.4L75.178,50.8C76.378,51.6 76.378,53.2 75.178,53.6Z" fill="#36B37E"/>
<path d="M0.778,23.601C0.778,24.401 1.178,25.201 1.978,25.601L11.978,31.601C12.778,32.001 14.378,31.201 14.378,30.001L14.378,18.401C14.378,18.001 13.978,17.201 13.578,17.201L3.178,11.201C1.978,10.801 0.778,11.201 0.778,12.801L0.778,23.601Z" fill="#091E42"/>
<path d="M15.978,18.399L15.978,29.599C15.978,30.799 17.178,31.599 18.378,30.799L28.378,24.799C29.178,24.399 29.578,23.599 29.578,22.799L29.578,12.799C29.578,11.599 28.378,10.799 27.178,11.599L16.778,17.199C16.378,17.599 15.978,17.999 15.978,18.399Z" fill="#091E42"/>
<path d="M27.178,9.2L15.978,15.6C15.578,16 14.778,16 14.378,15.6L3.178,9.2C1.978,8.4 1.978,7.2 3.178,6.4L14.378,0C14.778,0 15.578,0 15.978,0.4L27.178,6.8C27.978,7.2 27.978,8.8 27.178,9.2Z" fill="#36B37E"/>
<path d="M49.178,23.601C49.178,24.401 49.578,25.201 50.378,25.601L60.378,31.601C61.578,32.401 62.778,31.601 62.778,30.401L62.778,18.401C62.778,18.001 62.378,17.201 61.978,17.201L51.578,11.201C50.378,10.401 49.178,11.201 49.178,12.401L49.178,23.601L49.178,23.601Z" fill="#091E42"/>
<path d="M63.978,18.399L63.978,29.599C63.978,30.799 65.178,31.599 66.378,30.799L76.378,24.799C77.178,24.399 77.578,23.599 77.578,22.799L77.578,12.799C77.578,11.599 76.378,10.799 75.178,11.599L64.778,17.199C64.378,17.599 63.978,17.999 63.978,18.399Z" fill="#091E42"/>
<path d="M75.178,9.2L63.978,16C63.578,16 63.178,16 62.378,16L51.178,9.6C49.978,8.8 49.978,7.6 51.178,6.8L62.378,0.4C62.778,0 63.578,0 63.978,0.4L75.178,6.8C76.378,7.2 76.378,8.8 75.178,9.2Z" fill="#36B37E"/>
</svg>
