<svg width="702" height="352" viewBox="0 0 702 352" fill="none" xmlns="http://www.w3.org/2000/svg" xmlns:xlink="http://www.w3.org/1999/xlink">
<rect  x="0" y="0" width="350.75" height="350.836" fill="#1C528A"/>
<path d="M350.75,0L701.5,0L701.5,350.836L350.75,0Z" fill="#FFD4C4"/>
<path d="M701.5,350.836L350.75,350.836L350.75,0L701.5,350.836Z" clip-rule="evenodd" fill-rule="evenodd" fill="#E45865"/>
<path d="M701.5,350.836L350.75,350.836L350.75,0L701.5,350.836Z" clip-rule="evenodd" fill-rule="evenodd" fill="url(#pattern_1_67_1058)" style="mix-blend-mode:overlay"/>
<path d="M175.375,0L350.75,175.418L175.375,350.836L0,175.418L175.375,0Z" clip-rule="evenodd" fill-rule="evenodd" fill="url(#pf_0_67_1059)"/>
<path d="M175.375,0L350.75,175.418L175.375,350.836L0,175.418L175.375,0Z" clip-rule="evenodd" fill-rule="evenodd" fill="url(#pattern_1_67_1059)" style="mix-blend-mode:overlay"/>
<path d="M175.375,87.709L263.063,175.418L175.375,263.127L87.688,175.418L175.375,87.709Z" clip-rule="evenodd" fill-rule="evenodd" fill="#E45865"/>
<path d="M175.375,87.709L263.063,175.418L175.375,263.127L87.688,175.418L175.375,87.709Z" clip-rule="evenodd" fill-rule="evenodd" fill="url(#pattern_1_67_1060)" style="mix-blend-mode:overlay"/>
<path d="M526.125,263.127C574.554,263.127 613.813,223.858 613.813,175.418C613.813,126.978 574.554,87.709 526.125,87.709C477.697,87.709 438.438,126.978 438.438,175.418C438.438,223.858 477.697,263.127 526.125,263.127Z" clip-rule="evenodd" fill-rule="evenodd" fill="#98DEDE"/>
<path d="M526.125,263.127C574.554,263.127 613.813,223.858 613.813,175.418C613.813,126.978 574.554,87.709 526.125,87.709C477.697,87.709 438.438,126.978 438.438,175.418C438.438,223.858 477.697,263.127 526.125,263.127Z" clip-rule="evenodd" fill-rule="evenodd" fill="url(#pattern_1_67_1061)" style="mix-blend-mode:overlay"/>
<defs>
<linearGradient id="pf_0_67_1059" x1="-174.051" y1="174.094" x2="174.051" y2="522.281" gradientUnits="userSpaceOnUse">
<stop stop-color="#FEC55F"/>
<stop offset="1" stop-color="#FCD06D"/>
</linearGradient>
</defs>
</svg>
