<svg width="1142" height="1096" viewBox="0 0 1142 1096" fill="none" xmlns="http://www.w3.org/2000/svg" xmlns:xlink="http://www.w3.org/1999/xlink">
<path d="M490.696,805.971L530.314,805.971C538.766,799.107 547.746,792.771 556.198,785.38C557.255,784.324 558.311,783.796 559.368,782.74L559.368,737.333L490.696,737.333L490.696,805.971Z" transform="rotate(329.015 525.032 771.652)" fill="#FFFFFF" stroke="#FF6B00" stroke-width="1.223" stroke-miterlimit="10"/>
<path d="M599.089,850.523L530.417,850.523L530.417,781.885L599.089,781.885L599.089,713.247L530.417,713.247L530.417,644.609L599.089,644.609L667.761,644.609L667.761,575.971L599.089,575.971L599.089,507.335L667.761,507.335L667.761,575.971L736.431,575.971L805.103,575.971L805.103,507.335L873.773,507.335L942.445,507.335L942.445,575.971L942.445,644.609L1011.117,644.609L1011.117,575.971L1041.755,575.971L952.481,138.275C952.481,138.275 892.791,87.06 778.163,114.515C606.485,155.698 548.377,270.27 416.317,340.491C333.383,384.843 302.746,350.523 302.746,350.523L347.647,735.423C347.647,735.423 190.759,744.399 133.709,866.891C99.902,939.753 192.344,980.407 276.334,980.407C364.021,980.407 456.463,939.751 599.089,855.275L599.089,850.523L599.089,850.523Z" transform="rotate(329.015 584.155 543.415)" fill="#FFFFFF" stroke="#FF6B00" stroke-width="1.223" stroke-miterlimit="10"/>
<path d="M575.208,853.772L583.66,853.772C603.733,841.628 623.806,828.428 643.879,814.173L643.879,785.134L575.208,785.134L575.208,853.772Z" transform="rotate(329.015 609.544 819.453)" fill="#FFFFFF" stroke="#FF6B00" stroke-width="1.223" stroke-miterlimit="10"/>
<path d="M406.187,758.17L473.273,758.17C473.801,758.17 474.33,757.642 474.858,757.642L474.858,689.532L406.187,689.532L406.187,758.17Z" transform="rotate(329.015 440.522 723.851)" fill="#FFFFFF" stroke="#FF6B00" stroke-width="1.223" stroke-miterlimit="10"/>
<path d="M270.027,766.863C294.854,759.999 317.569,757.359 338.699,756.831L338.699,726.736L270.027,726.736L270.027,766.863Z" transform="rotate(329.015 304.363 746.799)" fill="#FFFFFF" stroke="#FF6B00" stroke-width="1.223" stroke-miterlimit="10"/>
<path d="M204.68,830.13L209.963,830.13L196.229,761.493L151.856,761.493L151.856,801.619C176.684,809.539 195.172,821.155 204.68,830.13Z" transform="rotate(329.015 180.91 795.811)" fill="#FFFFFF" stroke="#FF6B00" stroke-width="1.223" stroke-miterlimit="10"/>
<path d="M390.348,641.731L321.677,641.731L321.677,710.369L390.348,710.369L390.348,641.731Z" transform="rotate(329.015 356.013 676.05)" fill="#FFFFFF" stroke="#FF6B00" stroke-width="1.223" stroke-miterlimit="10"/>
</svg>
