<svg width="250" height="250" viewBox="0 0 250 250" fill="none" xmlns="http://www.w3.org/2000/svg" xmlns:xlink="http://www.w3.org/1999/xlink">
<path d="M248.078,0L248.048,248.048L0,248.078L0.03,0.03L248.078,0Z" fill="#1C528A"/>
<path d="M62.019,186.058C96.264,220.302 151.791,220.295 186.043,186.042C220.296,151.79 220.303,96.263 186.059,62.018C151.814,27.774 96.287,27.781 62.035,62.034C27.782,96.286 27.775,151.813 62.019,186.058Z" clip-rule="evenodd" fill-rule="evenodd" fill="#98DEDE"/>
<path d="M62.019,186.058C96.264,220.302 151.791,220.295 186.043,186.042C220.296,151.79 220.303,96.263 186.059,62.018C151.814,27.774 96.287,27.781 62.035,62.034C27.782,96.286 27.775,151.813 62.019,186.058Z" clip-rule="evenodd" fill-rule="evenodd" fill="url(#pattern_1_67_1066)" style="mix-blend-mode:overlay"/>
</svg>
