<svg width="90" height="88" viewBox="0 0 90 88" fill="none" xmlns="http://www.w3.org/2000/svg" xmlns:xlink="http://www.w3.org/1999/xlink">
<path d="M69.319,41.791L88.187,41.791C88.482,41.791 88.777,41.497 88.777,41.203C87.45,21.484 73.152,5.149 54.284,1.029C53.842,0.882 53.4,1.47 53.842,1.912C62.686,11.771 68.288,25.898 68.877,41.35C68.73,41.644 69.025,41.791 69.319,41.791Z" fill="#091E42"/>
<path d="M45.147,0C44.999,0 44.852,0 44.704,0C44.557,0 44.409,0 44.262,0C32.912,8.682 25.837,24.134 25.1,41.204C25.1,41.498 25.394,41.793 25.689,41.793L63.719,41.793C64.014,41.793 64.309,41.498 64.309,41.204C63.719,24.134 56.497,8.682 45.147,0Z" fill="#36B37E"/>
<path d="M25.689,46.207C25.394,46.207 25.1,46.501 25.1,46.796C25.837,64.013 32.912,79.317 44.262,88C44.409,88 44.557,88 44.704,88C44.852,88 44.999,88 45.147,88C56.497,79.317 63.572,63.866 64.309,46.796C64.309,46.501 64.014,46.207 63.719,46.207L25.689,46.207Z" fill="#091E42"/>
<path d="M68.73,46.649C68.14,62.1 62.686,76.227 53.842,86.087C53.547,86.528 53.842,87.117 54.284,86.97C73.152,82.849 87.597,66.515 88.777,46.796C88.777,46.501 88.482,46.207 88.187,46.207L69.319,46.207C69.025,46.207 68.73,46.501 68.73,46.649Z" fill="#36B37E"/>
<path d="M20.235,46.207L1.367,46.207C1.073,46.207 0.778,46.501 0.778,46.796C1.957,66.515 16.402,82.849 35.27,86.97C35.712,87.117 36.155,86.528 35.712,86.087C26.721,76.227 21.267,62.1 20.677,46.649C20.825,46.501 20.53,46.207 20.235,46.207Z" fill="#36B37E"/>
<path d="M20.825,41.35C21.414,25.898 26.868,11.771 35.712,1.912C36.007,1.47 35.712,0.882 35.27,1.029C16.402,5.149 1.957,21.484 0.778,41.203C0.778,41.497 1.073,41.791 1.367,41.791L20.235,41.791C20.53,41.791 20.825,41.644 20.825,41.35Z" fill="#091E42"/>
</svg>
