<svg width="322" height="294" viewBox="0 0 322 294" fill="none" xmlns="http://www.w3.org/2000/svg" xmlns:xlink="http://www.w3.org/1999/xlink">
<path d="M188.571,169.485L159.217,166.915L154.289,136.719L123.863,133.506L128.791,164.131L97.294,161.347L102.437,193.043L133.934,195.185L164.574,197.326L169.716,227.951L199.07,229.45L204.427,259.861L232.71,260.718L227.353,230.949L222.211,201.395L193.928,199.468L188.571,169.485Z" transform="rotate(329.015 165.002 197.112)" fill="#666666"/>
<path d="M161.195,142.958L156.267,113.404L126.912,109.764L132.055,139.746L161.195,142.958Z" transform="rotate(329.015 144.054 126.361)" fill="#262626"/>
<path d="M136.866,182.964L131.724,153.838L103.227,150.84L108.369,180.394L136.866,182.964Z" transform="rotate(329.015 120.047 166.902)" fill="#262626"/>
<path d="M107.332,163.646L102.19,135.163L74.978,131.736L80.12,160.862L107.332,163.646Z" transform="rotate(329.015 91.155 147.691)" fill="#262626"/>
<path d="M78.406,196.979L51.195,194.623L56.337,223.963L83.763,225.891L110.118,227.818L104.975,199.335L99.833,171.066L73.264,168.282L78.406,196.979Z" transform="rotate(329.015 80.656 198.05)" fill="#FF6B00"/>
<path d="M227.721,111.638L259.432,115.065L254.29,84.44L284.715,88.295L279.573,58.526L249.147,54.243L217.65,49.746L222.793,80.585L190.01,76.516L155.942,72.233L160.87,104.571L194.938,108.212L200.081,140.121L232.863,142.905L227.721,111.638Z" transform="rotate(329.015 220.329 96.326)" fill="#F55800"/>
<path d="M249.966,125.672L255.108,158.439L289.177,160.795L284.249,128.671L249.966,125.672Z" transform="rotate(329.015 269.571 143.234)" fill="#262626"/>
<path d="M205.01,10.6L209.938,41.654L242.507,46.365L237.578,15.74L205.01,10.6Z" transform="rotate(329.015 223.758 28.483)" fill="#262626"/>
<path d="M131.806,116.733L160.089,120.159L154.947,91.462L149.804,62.979L121.736,58.481L92.381,53.77L97.309,83.324L126.664,87.393L131.806,116.733Z" transform="rotate(329.015 126.235 86.965)" fill="#262626"/>
<path d="M74.243,117.462L47.674,113.607L52.817,141.876L79.385,145.302L74.243,117.462Z" transform="rotate(329.015 63.53 129.455)" fill="#262626"/>
<path d="M57.133,183.119L51.991,155.493L26.493,152.494L31.636,180.335L57.133,183.119Z" transform="rotate(329.015 41.813 167.807)" fill="#262626"/>
<path d="M222.473,169.868L227.615,202.206L260.612,203.92L255.469,172.224L222.473,169.868Z" transform="rotate(329.015 241.542 186.894)" fill="#262626"/>
</svg>
