<svg width="924" height="1176" viewBox="0 0 924 1176" fill="none" xmlns="http://www.w3.org/2000/svg" xmlns:xlink="http://www.w3.org/1999/xlink">
<rect  x="328.551" y="129.729" width="52.924" height="9.468" transform="rotate(81.533 328.551 129.729)" fill="#6070FF"/>
<path d="M343.608,118.422C343.608,123.945 338.683,128.422 332.608,128.422C326.533,128.422 321.608,123.945 321.608,118.422C321.608,112.899 326.533,108.422 332.608,108.422C338.683,108.422 343.608,112.899 343.608,118.422Z" transform="rotate(105.942 332.608 118.422)" fill="#CBCDFF"/>
<rect  x="451.648" y="1098" width="136.126" height="24.352" transform="rotate(46.68 451.648 1098)" fill="#EBEBFF"/>
<circle cx="562" cy="1126.191" r="20" fill="#6070FF"/>
<path d="M740.986,896.871C738.666,892.753 735.409,889.239 731.479,886.614C727.548,883.989 723.055,882.327 718.363,881.761C713.67,881.196 708.911,881.743 704.469,883.359C700.028,884.975 696.03,887.615 692.798,891.064C689.566,894.512 687.192,898.674 685.868,903.211C684.543,907.748 684.306,912.533 685.175,917.179C686.044,921.824 687.995,926.2 690.87,929.952C693.744,933.703 697.462,936.725 701.722,938.773L707.333,927.099C704.906,925.933 702.788,924.211 701.15,922.074C699.513,919.937 698.401,917.444 697.906,914.797C697.411,912.151 697.546,909.424 698.301,906.84C699.055,904.255 700.408,901.884 702.249,899.92C704.09,897.955 706.368,896.451 708.898,895.53C711.428,894.61 714.14,894.298 716.813,894.62C719.486,894.942 722.046,895.889 724.285,897.385C726.524,898.88 728.38,900.882 729.701,903.228L740.986,896.871Z" transform="rotate(138.822 714.761 911.645)" fill="#EBEBFF"/>
<path d="M752.397,883.763C752.397,877.36 749.854,871.219 745.326,866.692C740.798,862.164 734.658,859.621 728.255,859.621C721.852,859.621 715.711,862.164 711.184,866.692C706.656,871.219 704.113,877.36 704.113,883.763L752.397,883.763Z" transform="rotate(-352.162 728.255 871.692)" fill="#6070FF"/>
<rect  x="0" y="74.974" width="103.98" height="18.601" transform="rotate(-92.283 0 74.974)" fill="#EBEBFF"/>
<path d="M110.736,101.36C110.736,91.148 106.679,81.355 99.458,74.134C92.238,66.913 82.444,62.856 72.232,62.856C62.021,62.856 52.227,66.913 45.006,74.134C37.786,81.355 33.729,91.148 33.729,101.36L110.736,101.36Z" transform="rotate(-313.76 72.232 82.108)" fill="#6070FF"/>
<circle cx="511" cy="27" r="15" fill="#FFFFFF" stroke="#CBCDFF" stroke-width="1" stroke-miterlimit="3.999327"/>
<circle cx="675" cy="433" r="11" fill="#FFFFFF" stroke="#CBCDFF" stroke-width="1" stroke-miterlimit="3.999327"/>
<circle cx="189" cy="1097" r="15" fill="#FFFFFF" stroke="#CBCDFF" stroke-width="1" stroke-miterlimit="3.999327"/>
<path d="M910.482,149.94C902.39,135.575 891.028,123.318 877.318,114.161C863.607,105.003 847.932,99.204 831.563,97.231C815.194,95.258 798.591,97.168 783.097,102.806C767.603,108.443 753.655,117.65 742.381,129.681C731.108,141.712 722.826,156.229 718.206,172.056C713.586,187.883 712.759,204.576 715.79,220.782C718.822,236.989 725.627,252.254 735.655,265.341C745.683,278.428 758.652,288.97 773.513,296.112L793.086,255.39C784.62,251.321 777.232,245.316 771.518,237.86C765.805,230.404 761.928,221.708 760.201,212.475C758.474,203.242 758.946,193.733 761.578,184.716C764.21,175.699 768.928,167.429 775.35,160.575C781.773,153.721 789.719,148.476 798.546,145.264C807.373,142.052 816.832,140.964 826.157,142.088C835.483,143.212 844.412,146.516 852.223,151.733C860.034,156.95 866.507,163.933 871.117,172.116L910.482,149.94Z" fill="#6070FF"/>
<rect  x="656" y="123.58" width="191.161" height="44.042" transform="rotate(-60 656 123.58)" fill="#EBEBFF"/>
</svg>
