<svg width="2794" height="1444" viewBox="0 0 2794 1444" fill="none" xmlns="http://www.w3.org/2000/svg" xmlns:xlink="http://www.w3.org/1999/xlink">
<path d="M2765.162,260.056C2747.898,229.41 2723.66,203.262 2694.41,183.726C2665.162,164.191 2631.722,151.818 2596.802,147.609C2561.88,143.401 2526.46,147.475 2493.407,159.502C2460.353,171.529 2430.597,191.171 2406.547,216.837C2382.496,242.503 2364.828,273.472 2354.973,307.237C2345.117,341.001 2343.352,376.612 2349.819,411.186C2356.286,445.76 2370.804,478.324 2392.198,506.244C2413.591,534.162 2441.259,556.652 2472.96,571.89L2514.716,485.016C2496.656,476.336 2480.894,463.524 2468.706,447.618C2456.518,431.712 2448.247,413.16 2444.563,393.464C2440.879,373.766 2441.885,353.48 2447.499,334.244C2453.114,315.008 2463.179,297.365 2476.881,282.743C2490.582,268.121 2507.534,256.931 2526.365,250.079C2545.195,243.228 2565.374,240.907 2585.268,243.304C2605.164,245.702 2624.214,252.751 2640.876,263.88C2657.54,275.009 2671.348,289.906 2681.184,307.365L2765.162,260.056Z" fill="#6070FF"/>
<path d="M495.317,1359.409C491.771,1353.116 486.794,1347.746 480.787,1343.734C474.781,1339.722 467.914,1337.182 460.742,1336.317C453.571,1335.453 446.297,1336.29 439.51,1338.76C432.722,1341.229 426.611,1345.263 421.672,1350.534C416.733,1355.804 413.105,1362.164 411.081,1369.098C409.057,1376.032 408.695,1383.345 410.023,1390.445C411.351,1397.545 414.332,1404.232 418.726,1409.965C423.119,1415.699 428.801,1420.317 435.311,1423.446L443.886,1405.606C440.177,1403.824 436.94,1401.192 434.437,1397.926C431.934,1394.66 430.236,1390.85 429.479,1386.805C428.723,1382.76 428.929,1378.594 430.082,1374.644C431.235,1370.694 433.302,1367.071 436.116,1364.068C438.93,1361.065 442.411,1358.767 446.278,1357.36C450.145,1355.953 454.289,1355.477 458.374,1355.969C462.46,1356.461 466.372,1357.909 469.794,1360.194C473.216,1362.48 476.051,1365.539 478.071,1369.124L495.317,1359.409Z" transform="rotate(138.822 455.239 1381.987)" fill="#EBEBFF"/>
<rect  x="2222" y="204" width="408" height="94" transform="rotate(-60 2222 204)" fill="#EBEBFF"/>
<rect  x="1392.881" y="1262" width="322.815" height="57.75" transform="rotate(46.68 1392.881 1262)" fill="#EBEBFF"/>
<rect  x="1312.271" y="261.462" width="112.025" height="20.041" transform="rotate(-24.408 1312.271 261.462)" fill="#6070FF"/>
<rect  x="-0.797" y="199.846" width="217.338" height="38.881" transform="rotate(-92.283 -0.797 199.846)" fill="#EBEBFF"/>
<circle cx="1655" cy="1325" r="47" fill="#6070FF"/>
<circle cx="1369" cy="299" r="23" fill="#CBCDFF"/>
<circle cx="2353" cy="1125" r="75" fill="#FFFFFF" stroke="#CBCDFF" stroke-width="1" stroke-miterlimit="3.999327"/>
<circle cx="1899" cy="107" r="39" transform="rotate(0 1899 107)" fill="#FFFFFF" stroke="#CBCDFF" stroke-width="1" stroke-miterlimit="3.999327"/>
<circle cx="703" cy="107" r="15" fill="#FFFFFF" stroke="#CBCDFF" stroke-width="1" stroke-miterlimit="3.999327"/>
<circle cx="99" cy="809" r="23" transform="rotate(0 99 809)" fill="#FFFFFF" stroke="#CBCDFF" stroke-width="1" stroke-miterlimit="3.999327"/>
<path d="M230.663,254.997C230.663,233.653 222.184,213.182 207.091,198.09C191.998,182.997 171.528,174.518 150.183,174.518C128.839,174.518 108.369,182.997 93.276,198.09C78.183,213.182 69.704,233.653 69.704,254.997L230.663,254.997Z" transform="rotate(-313.76 150.183 214.757)" fill="#6070FF"/>
<path d="M512.755,1339.374C512.755,1329.589 508.868,1320.204 501.949,1313.285C495.029,1306.366 485.645,1302.478 475.859,1302.478C466.074,1302.478 456.689,1306.366 449.77,1313.285C442.851,1320.204 438.963,1329.589 438.963,1339.374L512.755,1339.374Z" transform="rotate(-352.162 475.859 1320.926)" fill="#6070FF"/>
</svg>
