<svg width="738" height="256" viewBox="0 0 738 256" fill="none" xmlns="http://www.w3.org/2000/svg" xmlns:xlink="http://www.w3.org/1999/xlink">
<g filter="url(#filter34_2480)">
<circle cx="370" cy="127.898" r="80" fill="#FFFFFF"/>
</g>
<path d="M362.399,87.898L380.399,87.898C382.799,87.898 384.399,90.298 383.999,92.698L375.199,121.498L384.399,121.498C387.199,121.498 389.199,124.298 387.999,127.098L369.999,163.898C369.199,165.098 367.199,164.698 367.599,163.098L371.999,135.098L357.999,135.098C355.599,135.098 353.999,133.098 354.399,130.698L358.799,91.498C358.799,89.498 360.399,87.898 362.399,87.898Z" fill="#36B37E"/>
<path d="M334.38,109.255L341.788,109.255C342.776,109.255 343.434,110.256 343.27,111.258L339.648,123.274L343.434,123.274C344.587,123.274 345.41,124.442 344.916,125.61L337.508,140.964C337.179,141.464 336.355,141.297 336.52,140.63L338.331,128.948L332.569,128.948C331.581,128.948 330.923,128.113 331.087,127.112L332.898,110.757C332.898,109.922 333.557,109.255 334.38,109.255Z" transform="rotate(-60 338.062 125.255)" fill="#091E42"/>
<path d="M400.38,109.255L407.788,109.255C408.776,109.255 409.434,110.256 409.27,111.258L405.648,123.274L409.434,123.274C410.587,123.274 411.41,124.442 410.916,125.61L403.508,140.964C403.179,141.464 402.356,141.297 402.52,140.63L404.331,128.948L398.569,128.948C397.581,128.948 396.923,128.113 397.088,127.112L398.898,110.757C398.898,109.922 399.557,109.255 400.38,109.255Z" transform="rotate(-300 404.062 125.255)" fill="#091E42"/>
<defs>
<filter id="filter34_2480" x="266" y="23.898438" width="128" height="128" filterUnits="userSpaceOnUse" color-interpolation-filters="sRGB">
<feFlood flood-opacity="0" result="BackgroundImageFix"/>
<feColorMatrix in="SourceAlpha" type="matrix" values="0 0 0 0 0 0 0 0 0 0 0 0 0 0 0 0 0 0 127 0" result="hardAlpha"/>
<feMorphology radius="0" operator="dilate" in="SourceAlpha" result="0dropshadow"/>
<feOffset dx="0" dy="16"/>
<feGaussianBlur stdDeviation="12"/>
<feComposite in2="hardAlpha" operator="out"/>
<feColorMatrix type="matrix" values="0 0 0 0 0.145098 0 0 0 0 0.184314 0 0 0 0 0.537255 0 0 0 0.08 0"/>
<feBlend mode="normal" in2="BackgroundImageFix" result="0dropshadow"/>
<feBlend mode="normal" in="SourceGraphic" in2="0dropshadow" result="shape"/>
</filter>
</defs>
</svg>
