<svg width="738" height="256" viewBox="0 0 738 256" fill="none" xmlns="http://www.w3.org/2000/svg" xmlns:xlink="http://www.w3.org/1999/xlink">
<g filter="url(#filter34_2856)">
<circle cx="370" cy="128" r="80" fill="#FFFFFF"/>
</g>
<path d="M394.541,125.791L413.409,125.791C413.704,125.791 413.999,125.497 413.999,125.203C412.672,105.484 398.374,89.149 379.506,85.029C379.064,84.882 378.622,85.47 379.064,85.912C387.908,95.771 393.51,109.898 394.099,125.35C393.952,125.644 394.247,125.791 394.541,125.791Z" fill="#091E42"/>
<path d="M370.368,84C370.221,84 370.073,84 369.926,84C369.779,84 369.631,84 369.484,84C358.134,92.682 351.058,108.134 350.321,125.204C350.321,125.498 350.616,125.793 350.911,125.793L388.941,125.793C389.236,125.793 389.531,125.498 389.531,125.204C388.941,108.134 381.718,92.682 370.368,84Z" fill="#36B37E"/>
<path d="M350.911,130.207C350.616,130.207 350.321,130.501 350.321,130.796C351.058,148.013 358.134,163.317 369.484,172C369.631,172 369.779,172 369.926,172C370.073,172 370.221,172 370.368,172C381.718,163.317 388.794,147.866 389.531,130.796C389.531,130.501 389.236,130.207 388.941,130.207L350.911,130.207Z" fill="#091E42"/>
<path d="M393.952,130.649C393.362,146.1 387.908,160.227 379.064,170.087C378.769,170.528 379.064,171.117 379.506,170.97C398.374,166.849 412.819,150.515 413.999,130.796C413.999,130.501 413.704,130.207 413.409,130.207L394.541,130.207C394.247,130.207 393.952,130.501 393.952,130.649Z" fill="#36B37E"/>
<path d="M345.457,130.207L326.589,130.207C326.294,130.207 326,130.501 326,130.796C327.179,150.515 341.624,166.849 360.492,170.97C360.934,171.117 361.376,170.528 360.934,170.087C351.943,160.227 346.489,146.1 345.899,130.649C346.046,130.501 345.752,130.207 345.457,130.207Z" fill="#36B37E"/>
<path d="M346.047,125.35C346.636,109.898 352.09,95.771 360.934,85.912C361.229,85.47 360.934,84.882 360.492,85.029C341.624,89.149 327.179,105.484 326,125.203C326,125.497 326.294,125.791 326.589,125.791L345.457,125.791C345.752,125.791 346.047,125.644 346.047,125.35Z" fill="#091E42"/>
<defs>
<filter id="filter34_2856" x="266" y="24" width="128" height="128" filterUnits="userSpaceOnUse" color-interpolation-filters="sRGB">
<feFlood flood-opacity="0" result="BackgroundImageFix"/>
<feColorMatrix in="SourceAlpha" type="matrix" values="0 0 0 0 0 0 0 0 0 0 0 0 0 0 0 0 0 0 127 0" result="hardAlpha"/>
<feMorphology radius="0" operator="dilate" in="SourceAlpha" result="0dropshadow"/>
<feOffset dx="0" dy="16"/>
<feGaussianBlur stdDeviation="12"/>
<feComposite in2="hardAlpha" operator="out"/>
<feColorMatrix type="matrix" values="0 0 0 0 0.145098 0 0 0 0 0.184314 0 0 0 0 0.537255 0 0 0 0.08 0"/>
<feBlend mode="normal" in2="BackgroundImageFix" result="0dropshadow"/>
<feBlend mode="normal" in="SourceGraphic" in2="0dropshadow" result="shape"/>
</filter>
</defs>
</svg>
