<svg width="36" height="36" viewBox="0 0 36 36" fill="none" xmlns="http://www.w3.org/2000/svg" xmlns:xlink="http://www.w3.org/1999/xlink">
<path d="M4,18C4,10.268 10.268,4 18,4C19.105,4 20,3.105 20,2C20,0.895 19.105,0 18,0C8.059,0 0,8.059 0,18C0,27.941 8.059,36 18,36C27.941,36 36,27.941 36,18C36,16.895 35.105,16 34,16C32.895,16 32,16.895 32,18C32,25.732 25.732,32 18,32C10.268,32 4,25.732 4,18ZM26,0C24.895,0 24,0.895 24,2C24,3.105 24.895,4 26,4L29.172,4L16.586,16.586C15.805,17.367 15.805,18.633 16.586,19.414C17.367,20.195 18.633,20.195 19.414,19.414L32,6.828L32,10C32,11.105 32.895,12 34,12C35.105,12 36,11.105 36,10L36,2C36,0.895 35.105,0 34,0L26,0Z" clip-rule="evenodd" fill-rule="evenodd" fill="#FFFFFF"/>
</svg>
