<svg width="738" height="256" viewBox="0 0 738 256" fill="none" xmlns="http://www.w3.org/2000/svg" xmlns:xlink="http://www.w3.org/1999/xlink">
<g filter="url(#filter34_2444)">
<circle cx="370" cy="127.898" r="80" fill="#FFFFFF"/>
</g>
<path d="M354,137.498C354,138.298 354.4,139.098 355.2,139.498L365.2,145.498C366.4,146.298 367.6,145.498 367.6,144.298L367.6,133.098C367.6,132.698 367.2,131.898 366.8,131.898L356.4,125.098C355.6,124.698 354,125.498 354,126.698L354,137.498Z" fill="#091E42"/>
<path d="M369.199,132.698L369.199,143.898C369.199,145.098 370.399,145.898 371.599,145.098L381.599,139.098C382.399,138.698 382.799,137.898 382.799,137.098L382.799,126.698C382.799,125.498 381.599,124.698 380.399,125.498L369.999,131.098C369.599,131.498 369.199,131.898 369.199,132.698Z" fill="#091E42"/>
<path d="M380.4,123.498L369.2,129.898C368.8,130.298 368,130.298 367.6,129.898L356.4,123.498C355.2,122.698 355.2,121.498 356.4,120.698L367.6,114.298C368,113.898 368.8,113.898 369.2,114.298L380.4,120.698C381.6,121.098 381.6,122.698 380.4,123.498Z" fill="#36B37E"/>
<path d="M330,159.899C330,160.699 330.4,161.499 331.2,161.899L341.2,167.899C342.4,168.699 343.6,167.899 343.6,166.699L343.6,155.499C343.6,155.099 343.2,154.299 342.8,154.299L332.4,148.299C331.2,147.499 330,148.299 330,149.499L330,159.899L330,159.899Z" fill="#091E42"/>
<path d="M345.199,154.699L345.199,165.899C345.199,167.099 346.399,167.899 347.599,167.099L357.599,161.099C358.399,160.699 358.799,159.899 358.799,159.099L358.799,147.899C358.799,146.699 357.599,145.899 356.399,146.699L345.999,153.499C345.599,153.899 345.199,154.299 345.199,154.699Z" fill="#091E42"/>
<path d="M356.4,145.498L345.2,151.898C344.8,152.298 344,152.298 343.6,151.898L332.4,145.498C331.2,144.698 331.2,143.498 332.4,142.698L343.6,136.298C344,135.898 344.8,135.898 345.2,136.298L356.4,142.698C357.2,143.498 357.2,145.098 356.4,145.498Z" fill="#36B37E"/>
<path d="M378.4,159.899C378.4,160.699 378.8,161.499 379.6,161.899L389.6,167.899C390.8,168.699 392,167.899 392,166.699L392,155.499C392,155.099 391.6,154.299 391.2,154.299L380.8,148.299C379.6,147.499 378.4,148.299 378.4,149.499L378.4,159.899L378.4,159.899Z" fill="#091E42"/>
<path d="M393.199,154.699L393.199,165.899C393.199,167.099 394.399,167.899 395.599,167.099L405.599,161.099C406.399,160.699 406.799,159.899 406.799,159.099L406.799,147.899C406.799,146.699 405.599,145.899 404.399,146.699L393.999,153.499C393.599,153.899 393.199,154.299 393.199,154.699Z" fill="#091E42"/>
<path d="M404.4,145.498L393.2,151.898C392.8,152.298 392,152.298 391.6,151.898L380.4,145.498C379.2,144.698 379.2,143.498 380.4,142.698L391.6,136.298C392,135.898 392.8,135.898 393.2,136.298L404.4,142.698C405.6,143.498 405.6,145.098 404.4,145.498Z" fill="#36B37E"/>
<path d="M330,115.499C330,116.299 330.4,117.099 331.2,117.499L341.2,123.499C342,123.899 343.6,123.099 343.6,121.899L343.6,110.299C343.6,109.899 343.2,109.099 342.8,109.099L332.4,103.099C331.2,102.699 330,103.099 330,104.699L330,115.499Z" fill="#091E42"/>
<path d="M345.199,110.298L345.199,121.498C345.199,122.698 346.399,123.498 347.599,122.698L357.599,116.698C358.399,116.298 358.799,115.498 358.799,114.698L358.799,104.698C358.799,103.498 357.599,102.698 356.399,103.498L345.999,109.098C345.599,109.498 345.199,109.898 345.199,110.298Z" fill="#091E42"/>
<path d="M356.4,101.098L345.2,107.498C344.8,107.898 344,107.898 343.6,107.498L332.4,101.098C331.2,100.298 331.2,99.098 332.4,98.298L343.6,91.898C344,91.898 344.8,91.898 345.2,92.298L356.4,98.698C357.2,99.098 357.2,100.698 356.4,101.098Z" fill="#36B37E"/>
<path d="M378.4,115.499C378.4,116.299 378.8,117.099 379.6,117.499L389.6,123.499C390.8,124.299 392,123.499 392,122.299L392,110.299C392,109.899 391.6,109.099 391.2,109.099L380.8,103.099C379.6,102.299 378.4,103.099 378.4,104.299L378.4,115.499L378.4,115.499Z" fill="#091E42"/>
<path d="M393.199,110.298L393.199,121.498C393.199,122.698 394.399,123.498 395.599,122.698L405.599,116.698C406.399,116.298 406.799,115.498 406.799,114.698L406.799,104.698C406.799,103.498 405.599,102.698 404.399,103.498L393.999,109.098C393.599,109.498 393.199,109.898 393.199,110.298Z" fill="#091E42"/>
<path d="M404.4,101.098L393.2,107.898C392.8,107.898 392.4,107.898 391.6,107.898L380.4,101.498C379.2,100.698 379.2,99.498 380.4,98.698L391.6,92.298C392,91.898 392.8,91.898 393.2,92.298L404.4,98.698C405.6,99.098 405.6,100.698 404.4,101.098Z" fill="#36B37E"/>
<defs>
<filter id="filter34_2444" x="266" y="23.898438" width="128" height="128" filterUnits="userSpaceOnUse" color-interpolation-filters="sRGB">
<feFlood flood-opacity="0" result="BackgroundImageFix"/>
<feColorMatrix in="SourceAlpha" type="matrix" values="0 0 0 0 0 0 0 0 0 0 0 0 0 0 0 0 0 0 127 0" result="hardAlpha"/>
<feMorphology radius="0" operator="dilate" in="SourceAlpha" result="0dropshadow"/>
<feOffset dx="0" dy="16"/>
<feGaussianBlur stdDeviation="12"/>
<feComposite in2="hardAlpha" operator="out"/>
<feColorMatrix type="matrix" values="0 0 0 0 0.145098 0 0 0 0 0.184314 0 0 0 0 0.537255 0 0 0 0.08 0"/>
<feBlend mode="normal" in2="BackgroundImageFix" result="0dropshadow"/>
<feBlend mode="normal" in="SourceGraphic" in2="0dropshadow" result="shape"/>
</filter>
</defs>
</svg>
