<svg width="738" height="256" viewBox="0 0 738 256" fill="none" xmlns="http://www.w3.org/2000/svg" xmlns:xlink="http://www.w3.org/1999/xlink">
<g filter="url(#filter34_2399)">
<circle cx="370" cy="127.898" r="80" fill="#FFFFFF"/>
</g>
<path d="M394.54,125.69L413.408,125.69C413.703,125.69 413.998,125.395 413.998,125.101C412.671,105.382 398.373,89.048 379.505,84.927C379.063,84.78 378.621,85.369 379.063,85.81C387.907,95.67 393.509,109.797 394.098,125.248C393.951,125.543 394.246,125.69 394.54,125.69Z" fill="#091E42"/>
<path d="M370.368,83.898C370.221,83.898 370.073,83.898 369.926,83.898C369.779,83.898 369.631,83.898 369.484,83.898C358.134,92.581 351.058,108.032 350.321,125.102C350.321,125.397 350.616,125.691 350.911,125.691L388.941,125.691C389.236,125.691 389.531,125.397 389.531,125.102C388.941,108.032 381.718,92.581 370.368,83.898Z" fill="#36B37E"/>
<path d="M350.911,130.105C350.616,130.105 350.321,130.4 350.321,130.694C351.058,147.911 358.134,163.216 369.484,171.898C369.631,171.898 369.779,171.898 369.926,171.898C370.073,171.898 370.221,171.898 370.368,171.898C381.718,163.216 388.794,147.764 389.531,130.694C389.531,130.4 389.236,130.105 388.941,130.105L350.911,130.105Z" fill="#091E42"/>
<path d="M393.951,130.547C393.361,145.998 387.907,160.125 379.063,169.985C378.768,170.426 379.063,171.015 379.505,170.868C398.373,166.748 412.818,150.413 413.998,130.694C413.998,130.4 413.703,130.105 413.408,130.105L394.54,130.105C394.246,130.105 393.951,130.4 393.951,130.547Z" fill="#36B37E"/>
<path d="M345.456,130.105L326.589,130.105C326.294,130.105 325.999,130.4 325.999,130.694C327.178,150.413 341.624,166.748 360.491,170.868C360.934,171.015 361.376,170.426 360.934,169.985C351.942,160.125 346.488,145.998 345.899,130.547C346.046,130.4 345.751,130.105 345.456,130.105Z" fill="#36B37E"/>
<path d="M346.046,125.248C346.636,109.797 352.089,95.67 360.934,85.81C361.228,85.369 360.934,84.78 360.491,84.927C341.624,89.048 327.178,105.382 325.999,125.101C325.999,125.395 326.294,125.69 326.589,125.69L345.456,125.69C345.751,125.69 346.046,125.543 346.046,125.248Z" fill="#091E42"/>
<defs>
<filter id="filter34_2399" x="266" y="23.898438" width="128" height="128" filterUnits="userSpaceOnUse" color-interpolation-filters="sRGB">
<feFlood flood-opacity="0" result="BackgroundImageFix"/>
<feColorMatrix in="SourceAlpha" type="matrix" values="0 0 0 0 0 0 0 0 0 0 0 0 0 0 0 0 0 0 127 0" result="hardAlpha"/>
<feMorphology radius="0" operator="dilate" in="SourceAlpha" result="0dropshadow"/>
<feOffset dx="0" dy="16"/>
<feGaussianBlur stdDeviation="12"/>
<feComposite in2="hardAlpha" operator="out"/>
<feColorMatrix type="matrix" values="0 0 0 0 0.145098 0 0 0 0 0.184314 0 0 0 0 0.537255 0 0 0 0.08 0"/>
<feBlend mode="normal" in2="BackgroundImageFix" result="0dropshadow"/>
<feBlend mode="normal" in="SourceGraphic" in2="0dropshadow" result="shape"/>
</filter>
</defs>
</svg>
