<svg width="98" height="96" viewBox="0 0 98 96" fill="none" xmlns="http://www.w3.org/2000/svg" xmlns:xlink="http://www.w3.org/1999/xlink">
<path d="M41.177,8L59.177,8C61.577,8 63.177,10.4 62.777,12.8L53.977,41.6L63.177,41.6C65.977,41.6 67.977,44.4 66.777,47.2L48.777,84C47.977,85.2 45.977,84.8 46.377,83.2L50.777,55.2L36.777,55.2C34.377,55.2 32.777,53.2 33.177,50.8L37.577,11.6C37.577,9.6 39.177,8 41.177,8Z" fill="#36B37E"/>
<path d="M13.158,29.356L20.566,29.356C21.554,29.356 22.213,30.358 22.048,31.359L18.426,43.375L22.213,43.375C23.365,43.375 24.188,44.543 23.694,45.712L16.286,61.065C15.957,61.566 15.134,61.399 15.298,60.732L17.109,49.049L11.347,49.049C10.36,49.049 9.701,48.215 9.866,47.214L11.677,30.858C11.677,30.024 12.335,29.356 13.158,29.356Z" transform="rotate(-60 16.84 45.356)" fill="#091E42"/>
<path d="M79.158,29.356L86.566,29.356C87.554,29.356 88.213,30.358 88.048,31.359L84.426,43.375L88.213,43.375C89.365,43.375 90.188,44.543 89.694,45.712L82.286,61.065C81.957,61.566 81.134,61.399 81.298,60.732L83.109,49.049L77.347,49.049C76.36,49.049 75.701,48.215 75.866,47.214L77.677,30.858C77.677,30.024 78.335,29.356 79.158,29.356Z" transform="rotate(-300 82.841 45.356)" fill="#091E42"/>
</svg>
