<svg width="738" height="256" viewBox="0 0 738 256" fill="none" xmlns="http://www.w3.org/2000/svg" xmlns:xlink="http://www.w3.org/1999/xlink">
<g filter="url(#filter34_2901)">
<circle cx="370" cy="128" r="80" fill="#FFFFFF"/>
</g>
<path d="M354,137.6C354,138.4 354.4,139.2 355.2,139.6L365.2,145.6C366.4,146.4 367.6,145.6 367.6,144.4L367.6,133.2C367.6,132.8 367.2,132 366.8,132L356.4,125.2C355.6,124.8 354,125.6 354,126.8L354,137.6Z" fill="#091E42"/>
<path d="M369.2,132.799L369.2,143.999C369.2,145.199 370.4,145.999 371.6,145.199L381.6,139.199C382.4,138.799 382.8,137.999 382.8,137.199L382.8,126.799C382.8,125.599 381.6,124.799 380.4,125.599L370,131.199C369.6,131.599 369.2,131.999 369.2,132.799Z" fill="#091E42"/>
<path d="M380.4,123.6L369.2,130C368.8,130.4 368,130.4 367.6,130L356.4,123.6C355.2,122.8 355.2,121.6 356.4,120.8L367.6,114.4C368,114 368.8,114 369.2,114.4L380.4,120.8C381.6,121.2 381.6,122.8 380.4,123.6Z" fill="#36B37E"/>
<path d="M330,160C330,160.8 330.4,161.6 331.2,162L341.2,168C342.4,168.8 343.6,168 343.6,166.8L343.6,155.6C343.6,155.2 343.2,154.4 342.8,154.4L332.4,148.4C331.2,147.6 330,148.4 330,149.6L330,160L330,160Z" fill="#091E42"/>
<path d="M345.2,154.801L345.2,166.001C345.2,167.201 346.4,168.001 347.6,167.201L357.6,161.201C358.4,160.801 358.8,160.001 358.8,159.201L358.8,148.001C358.8,146.801 357.6,146.001 356.4,146.801L346,153.601C345.6,154.001 345.2,154.401 345.2,154.801Z" fill="#091E42"/>
<path d="M356.4,145.6L345.2,152C344.8,152.4 344,152.4 343.6,152L332.4,145.6C331.2,144.8 331.2,143.6 332.4,142.8L343.6,136.4C344,136 344.8,136 345.2,136.4L356.4,142.8C357.2,143.6 357.2,145.2 356.4,145.6Z" fill="#36B37E"/>
<path d="M378.4,160C378.4,160.8 378.8,161.6 379.6,162L389.6,168C390.8,168.8 392,168 392,166.8L392,155.6C392,155.2 391.6,154.4 391.2,154.4L380.8,148.4C379.6,147.6 378.4,148.4 378.4,149.6L378.4,160L378.4,160Z" fill="#091E42"/>
<path d="M393.2,154.801L393.2,166.001C393.2,167.201 394.4,168.001 395.6,167.201L405.6,161.201C406.4,160.801 406.8,160.001 406.8,159.201L406.8,148.001C406.8,146.801 405.6,146.001 404.4,146.801L394,153.601C393.6,154.001 393.2,154.401 393.2,154.801Z" fill="#091E42"/>
<path d="M404.4,145.6L393.2,152C392.8,152.4 392,152.4 391.6,152L380.4,145.6C379.2,144.8 379.2,143.6 380.4,142.8L391.6,136.4C392,136 392.8,136 393.2,136.4L404.4,142.8C405.6,143.6 405.6,145.2 404.4,145.6Z" fill="#36B37E"/>
<path d="M330,115.601C330,116.401 330.4,117.201 331.2,117.601L341.2,123.601C342,124.001 343.6,123.201 343.6,122.001L343.6,110.401C343.6,110.001 343.2,109.201 342.8,109.201L332.4,103.201C331.2,102.801 330,103.201 330,104.801L330,115.601Z" fill="#091E42"/>
<path d="M345.2,110.399L345.2,121.599C345.2,122.799 346.4,123.599 347.6,122.799L357.6,116.799C358.4,116.399 358.8,115.599 358.8,114.799L358.8,104.799C358.8,103.599 357.6,102.799 356.4,103.599L346,109.199C345.6,109.599 345.2,109.999 345.2,110.399Z" fill="#091E42"/>
<path d="M356.4,101.2L345.2,107.6C344.8,108 344,108 343.6,107.6L332.4,101.2C331.2,100.4 331.2,99.2 332.4,98.4L343.6,92C344,92 344.8,92 345.2,92.4L356.4,98.8C357.2,99.2 357.2,100.8 356.4,101.2Z" fill="#36B37E"/>
<path d="M378.4,115.601C378.4,116.401 378.8,117.201 379.6,117.601L389.6,123.601C390.8,124.401 392,123.601 392,122.401L392,110.401C392,110.001 391.6,109.201 391.2,109.201L380.8,103.201C379.6,102.401 378.4,103.201 378.4,104.401L378.4,115.601L378.4,115.601Z" fill="#091E42"/>
<path d="M393.2,110.399L393.2,121.599C393.2,122.799 394.4,123.599 395.6,122.799L405.6,116.799C406.4,116.399 406.8,115.599 406.8,114.799L406.8,104.799C406.8,103.599 405.6,102.799 404.4,103.599L394,109.199C393.6,109.599 393.2,109.999 393.2,110.399Z" fill="#091E42"/>
<path d="M404.4,101.2L393.2,108C392.8,108 392.4,108 391.6,108L380.4,101.6C379.2,100.8 379.2,99.6 380.4,98.8L391.6,92.4C392,92 392.8,92 393.2,92.4L404.4,98.8C405.6,99.2 405.6,100.8 404.4,101.2Z" fill="#36B37E"/>
<defs>
<filter id="filter34_2901" x="266" y="24" width="128" height="128" filterUnits="userSpaceOnUse" color-interpolation-filters="sRGB">
<feFlood flood-opacity="0" result="BackgroundImageFix"/>
<feColorMatrix in="SourceAlpha" type="matrix" values="0 0 0 0 0 0 0 0 0 0 0 0 0 0 0 0 0 0 127 0" result="hardAlpha"/>
<feMorphology radius="0" operator="dilate" in="SourceAlpha" result="0dropshadow"/>
<feOffset dx="0" dy="16"/>
<feGaussianBlur stdDeviation="12"/>
<feComposite in2="hardAlpha" operator="out"/>
<feColorMatrix type="matrix" values="0 0 0 0 0.145098 0 0 0 0 0.184314 0 0 0 0 0.537255 0 0 0 0.08 0"/>
<feBlend mode="normal" in2="BackgroundImageFix" result="0dropshadow"/>
<feBlend mode="normal" in="SourceGraphic" in2="0dropshadow" result="shape"/>
</filter>
</defs>
</svg>
