<svg width="48" height="48" viewBox="0 0 48 48" fill="none" xmlns="http://www.w3.org/2000/svg" xmlns:xlink="http://www.w3.org/1999/xlink">
<path d="M34.498,30C33.67,30 32.998,30.672 32.998,31.5L32.998,45L8.998,45L8.998,31.5C8.998,30.672 8.326,30 7.498,30C6.67,30 5.998,30.672 5.998,31.5L5.998,46.5C5.998,47.328 6.67,48 7.498,48L34.498,48C35.326,48 35.998,47.328 35.998,46.5L35.998,31.5C35.998,30.672 35.326,30 34.498,30Z" fill="#FFFFFF"/>
<path d="M28.498,39L13.498,39C12.67,39 11.998,39.672 11.998,40.5C11.998,41.328 12.67,42 13.498,42L28.498,42C29.326,42 29.998,41.328 29.998,40.5C29.998,39.672 29.326,39 28.498,39Z" fill="#FFFFFF"/>
<path d="M28.645,33.009L13.645,31.509C12.808,31.428 12.088,32.028 12.004,32.85C11.923,33.675 12.523,34.41 13.348,34.491L28.348,35.991C28.399,35.997 28.45,36 28.501,36C29.26,36 29.914,35.424 29.986,34.65C30.073,33.825 29.467,33.09 28.645,33.009Z" fill="#FFFFFF"/>
<path d="M30.43,27.063L15.43,22.563C14.629,22.323 13.798,22.776 13.561,23.568C13.324,24.363 13.774,25.197 14.566,25.437L29.566,29.937C29.71,29.979 29.854,30 29.998,30C30.643,30 31.24,29.58 31.435,28.929C31.675,28.134 31.225,27.3 30.43,27.063Z" fill="#FFFFFF"/>
<path d="M32.228,21.189L18.728,13.689C18.005,13.281 17.09,13.548 16.688,14.271C16.283,14.997 16.544,15.909 17.27,16.311L30.77,23.811C31.001,23.94 31.25,24 31.499,24C32.024,24 32.537,23.721 32.81,23.229C33.212,22.503 32.951,21.591 32.228,21.189Z" fill="#FFFFFF"/>
<path d="M35.771,18.705L28.271,6.705C27.833,6 26.906,5.793 26.204,6.228C25.502,6.666 25.289,7.593 25.727,8.295L33.227,20.295C33.512,20.751 34.001,21 34.499,21C34.772,21 35.048,20.928 35.294,20.772C35.996,20.334 36.209,19.407 35.771,18.705Z" fill="#FFFFFF"/>
<path d="M41.971,16.206L38.971,1.206C38.806,0.393 37.984,-0.135 37.207,0.03C36.391,0.192 35.863,0.981 36.028,1.794L39.028,16.794C39.172,17.508 39.796,18 40.495,18C40.594,18 40.693,17.991 40.792,17.97C41.608,17.808 42.136,17.019 41.971,16.206Z" fill="#FFFFFF"/>
</svg>
