<svg width="48" height="50" viewBox="0 0 48 50" fill="none" xmlns="http://www.w3.org/2000/svg" xmlns:xlink="http://www.w3.org/1999/xlink">
<path d="M34.498,31C33.67,31 32.998,31.672 32.998,32.5L32.998,46L8.999,46L8.999,32.5C8.999,31.672 8.327,31 7.499,31C6.671,31 5.999,31.672 5.999,32.5L5.999,47.5C5.999,48.328 6.671,49 7.499,49L34.498,49C35.326,49 35.998,48.328 35.998,47.5L35.998,32.5C35.998,31.672 35.326,31 34.498,31Z" fill="#FFFFFF"/>
<path d="M28.498,40L13.499,40C12.671,40 11.999,40.672 11.999,41.5C11.999,42.328 12.671,43 13.499,43L28.498,43C29.326,43 29.998,42.328 29.998,41.5C29.998,40.672 29.326,40 28.498,40Z" fill="#FFFFFF"/>
<path d="M28.645,34.009L13.645,32.509C12.808,32.428 12.088,33.028 12.004,33.85C11.923,34.675 12.523,35.41 13.348,35.491L28.348,36.991C28.399,36.997 28.45,37 28.501,37C29.26,37 29.914,36.424 29.986,35.65C30.073,34.825 29.467,34.09 28.645,34.009Z" fill="#FFFFFF"/>
<path d="M30.43,28.063L15.43,23.563C14.629,23.323 13.798,23.776 13.561,24.568C13.324,25.363 13.774,26.197 14.566,26.437L29.566,30.937C29.71,30.979 29.854,31 29.998,31C30.643,31 31.24,30.58 31.435,29.929C31.675,29.134 31.225,28.3 30.43,28.063Z" fill="#FFFFFF"/>
<path d="M32.227,22.189L18.727,14.689C18.004,14.281 17.089,14.548 16.687,15.271C16.282,15.997 16.543,16.909 17.269,17.311L30.769,24.811C31,24.94 31.249,25 31.498,25C32.023,25 32.536,24.721 32.809,24.229C33.211,23.503 32.95,22.591 32.227,22.189Z" fill="#FFFFFF"/>
<path d="M35.771,19.705L28.271,7.705C27.833,7 26.906,6.793 26.204,7.228C25.502,7.666 25.289,8.593 25.727,9.295L33.227,21.295C33.512,21.751 34.001,22 34.499,22C34.772,22 35.048,21.928 35.294,21.772C35.996,21.334 36.209,20.407 35.771,19.705Z" fill="#FFFFFF"/>
<path d="M41.971,17.206L38.971,2.206C38.806,1.393 37.984,0.865 37.207,1.03C36.391,1.192 35.863,1.981 36.028,2.794L39.028,17.794C39.172,18.508 39.796,19 40.495,19C40.594,19 40.693,18.991 40.792,18.97C41.608,18.808 42.136,18.019 41.971,17.206Z" fill="#FFFFFF"/>
</svg>
