<svg width="256" height="128" viewBox="0 0 256 128" fill="none" xmlns="http://www.w3.org/2000/svg" xmlns:xlink="http://www.w3.org/1999/xlink">
<path d="M43.591,113.727L245.067,111.122L166.993,89.643L175.793,71.029L225.727,64.176L212.937,61.21L178.556,59.676L43.591,113.727Z" fill="#172B4D"/>
<path d="M155.021,18.664L148.881,18.766L97.822,-0.258L155.532,32.471L164.946,24.698L155.021,18.664Z" fill="#36B37E"/>
<path d="M155.021,18.662L254.378,0.457L204.751,48.63L155.021,18.662Z" fill="#172B4D"/>
<path d="M97.822,-0.258L196.974,56.097L174.667,60.188L120.026,64.177L97.822,-0.258Z" fill="#FFFFFF" stroke="#36B37E" stroke-width="0.634" stroke-miterlimit="10" stroke-linejoin="round"/>
<path d="M196.974,56.096L254.378,0.457L212.937,61.21L196.974,56.096Z" fill="#FFFFFF" stroke="#36B37E" stroke-width="0.634" stroke-miterlimit="10" stroke-linejoin="round"/>
<path d="M155.533,32.47L181.216,11.299L183.877,13.447L175.793,44.028L155.533,32.47Z" fill="#FFFFFF" stroke="#36B37E" stroke-width="0.634" stroke-miterlimit="10" stroke-linejoin="round"/>
<path d="M183.877,13.447L207.104,46.381L196.974,56.097L175.793,44.028L183.877,13.447Z" fill="#FFFFFF" stroke="#36B37E" stroke-width="0.634" stroke-miterlimit="10" stroke-linejoin="round"/>
<path d="M212.937,61.21L174.668,60.187L196.975,56.096L212.937,61.21Z" fill="#FFFFFF" stroke="#36B37E" stroke-width="0.634" stroke-miterlimit="10" stroke-linejoin="round"/>
<path d="M80.734,45.459L72.548,46.891L0.511,32.367L84.417,63.664L95.366,51.289L80.734,45.459Z" fill="#FFFFFF" stroke="#36B37E" stroke-width="0.634" stroke-miterlimit="10" stroke-linejoin="round"/>
<path d="M80.734,45.459L209.253,0.457L153.282,74.608L80.734,45.459Z" fill="#C5E9DA" stroke="#36B37E" stroke-width="0.634" stroke-miterlimit="10"/>
<path d="M0.511,32.367L144.686,86.063L115.729,96.291L43.692,112.962L0.511,32.367Z" fill="#FFFFFF" stroke="#36B37E" stroke-width="0.634" stroke-miterlimit="10" stroke-linejoin="round"/>
<path d="M144.686,86.064L209.253,0.457L166.993,89.643L144.686,86.064Z" fill="#FFFFFF" stroke="#36B37E" stroke-width="0.634" stroke-miterlimit="10" stroke-linejoin="round"/>
<path d="M84.417,63.666L114.194,30.221L118.184,32.369L113.887,74.609L84.417,63.666Z" fill="#36B37E"/>
<path d="M118.184,32.367L155.942,71.131L144.686,86.063L113.887,74.608L118.184,32.367Z" fill="#FFFFFF" stroke="#36B37E" stroke-width="0.634" stroke-miterlimit="10" stroke-linejoin="round"/>
<path d="M166.993,89.642L115.728,96.29L144.686,86.063L166.993,89.642Z" fill="#FFFFFF" stroke="#36B37E" stroke-width="0.634" stroke-miterlimit="10" stroke-linejoin="round"/>
<path d="M87.078,88.211L71.422,88.723L64.157,76.143L49.115,76.756L56.176,89.234L41.339,89.643L48.195,102.223L63.339,101.917L78.789,101.508L86.361,114.701L102.529,114.497L110.51,127.997L127.291,127.997L119.105,114.292L111.022,100.894L94.65,101.201L87.078,88.211Z" fill="#C5E9DA"/>
<path d="M79.506,75.427L72.139,62.949L56.995,63.767L64.157,76.143L79.506,75.427Z" fill="#C5E9DA"/>
<path d="M103.041,87.7L95.366,74.711L79.506,75.427L87.078,88.212L103.041,87.7Z" fill="#36B37E"/>
<path d="M111.533,74.098L103.654,61.211L87.692,62.131L95.366,74.712L111.533,74.098Z" fill="#172B4D"/>
<path d="M119.515,87.086L103.041,87.7L111.022,100.894L127.701,100.484L144.891,100.075L136.398,86.575L128.11,73.381L111.534,74.097L119.515,87.086Z" fill="#36B37E"/>
<path d="M34.483,77.37L49.115,76.756L42.26,64.585L56.994,63.767L50.036,51.596L35.506,52.516L21.283,53.437L27.832,65.301L13.814,66.119L0,66.835L6.242,78.597L20.26,77.983L26.809,90.155L41.339,89.643L34.483,77.37Z" fill="#36B37E"/>
<path d="M12.586,90.666L19.134,102.837L33.46,102.53L26.809,90.154L12.586,90.666Z" fill="#36B37E"/>
<path d="M1.228,42.902L7.469,54.357L21.283,53.436L14.939,41.879L1.228,42.902Z" fill="#36B37E"/>
<path d="M72.139,62.949L87.692,62.131L80.222,49.755L72.957,37.584L57.915,38.709L43.181,39.732L50.036,51.596L64.976,50.676L72.139,62.949Z" fill="#36B37E"/>
<path d="M112.045,47.709L95.98,48.732L103.654,61.21L120.026,60.391L112.045,47.709Z" fill="#36B37E"/>
<path d="M145.198,72.562L136.705,59.471L120.026,60.391L128.11,73.38L145.198,72.562Z" fill="#36B37E"/>
<path d="M33.46,102.531L40.316,115.214L55.255,115.009L48.195,102.225L33.46,102.531Z" fill="#36B37E"/>
</svg>
