<svg width="226" height="290" viewBox="0 0 226 290" fill="none" xmlns="http://www.w3.org/2000/svg" xmlns:xlink="http://www.w3.org/1999/xlink">
<path d="M48.815,12.856L20.515,36.766L147.134,268.57L188.322,276.274L202.538,253.692L204.797,236.954L125.079,105.842L109.135,95.215L112.59,81.002L76.318,19.498L48.815,12.856Z" transform="rotate(341.718 112.656 144.565)" fill="#FFFFFF"/>
<path d="M65.733,135.442L59.356,123.487L46.866,123.62L40.755,112.063L53.111,111.93L46.999,100.639L59.356,100.373L65.733,111.797L72.243,123.487L85.264,123.354L92.173,135.442L105.725,135.575L113.032,148.195L99.215,147.929L85.663,147.796L78.886,135.442L65.733,135.442Z" transform="rotate(341.718 76.894 124.284)" fill="#C5E9DA"/>
<path d="M119.679,129.979L107.19,129.979L101.211,118.289L113.567,118.289L119.679,129.979Z" transform="rotate(341.718 110.445 124.134)" fill="#36B37E"/>
<path d="M103.35,145.055L90.33,144.923L83.952,132.834L96.707,132.967L103.35,145.055Z" transform="rotate(341.718 93.651 138.945)" fill="#36B37E"/>
<path d="M111.566,156.098L98.546,155.832L92.301,143.611L105.056,143.744L111.566,156.098Z" transform="rotate(341.718 101.934 149.855)" fill="#172B4D"/>
<path d="M73.021,160.641L66.245,148.022L79.531,148.287L86.573,160.907L93.748,173.925L79.93,173.394L66.378,172.995L59.735,160.243L73.021,160.641Z" transform="rotate(341.718 76.741 160.973)" fill="#172B4D"/>
<path d="M126.212,93.605L132.058,104.764L119.967,104.897L125.813,116.321L113.722,116.454L108.009,105.162L102.562,94.137L114.254,93.871L108.674,82.978L103.226,72.484L114.785,71.953L120.366,82.58L132.323,82.314L138.302,93.34L126.212,93.605Z" transform="rotate(341.718 120.432 94.203)" fill="#36B37E"/>
<path d="M93.724,74.05L105.682,73.652L111.661,84.545L99.437,84.943L93.724,74.05Z" transform="rotate(341.718 102.692 79.297)" fill="#172B4D"/>
<path d="M137.126,79.687L148.419,79.288L153.734,90.048L142.308,90.314L137.126,79.687Z" transform="rotate(341.718 145.43 84.801)" fill="#36B37E"/>
<path d="M138.25,127.496L144.362,139.452L131.873,139.319L119.649,139.053L113.936,127.363L108.356,115.939L120.181,115.939L125.894,127.496L138.25,127.496Z" transform="rotate(341.718 126.359 127.695)" fill="#36B37E"/>
<path d="M106.904,166.865L100.66,154.378L113.415,154.644L119.925,167.263L106.904,166.865Z" transform="rotate(341.718 110.292 160.821)" fill="#36B37E"/>
<path d="M102.999,183.638L89.579,183.107L82.936,170.221L96.09,170.62L102.999,183.638Z" transform="rotate(341.718 92.967 176.93)" fill="#36B37E"/>
<path d="M76.912,87.323L89.268,86.924L95.645,98.083L83.023,98.481L76.912,87.323Z" transform="rotate(341.718 86.278 92.703)" fill="#36B37E"/>
<path d="M65.185,11.547L204.692,274.965L163.504,267.261L36.885,35.458L65.185,11.547Z" transform="rotate(341.718 120.789 143.256)" fill="#C5E9DA"/>
<path d="M180.064,38.267L162.925,44.511L169.037,55.536L180.064,38.267Z" transform="rotate(341.718 171.495 46.902)" fill="#172B4D"/>
<path d="M48.815,12.856L49.184,11.328C48.697,11.21 48.183,11.332 47.801,11.655L48.815,12.856ZM20.515,36.766L19.501,35.566C18.93,36.048 18.778,36.865 19.136,37.52L20.515,36.766ZM147.134,268.57L145.755,269.324C145.981,269.738 146.381,270.028 146.845,270.114L147.134,268.57ZM188.322,276.274L188.033,277.82C188.666,277.938 189.308,277.658 189.652,277.112L188.322,276.274ZM202.538,253.692L203.868,254.53C203.988,254.338 204.066,254.124 204.096,253.902L202.538,253.692ZM204.797,236.954L206.354,237.164C206.402,236.808 206.327,236.446 206.14,236.138L204.797,236.954ZM125.079,105.842L126.422,105.026C126.302,104.83 126.141,104.662 125.95,104.535L125.079,105.842ZM109.135,95.215L107.608,94.844C107.452,95.486 107.714,96.157 108.263,96.523L109.135,95.215ZM112.59,81.002L114.117,81.373C114.213,80.975 114.151,80.556 113.943,80.203L112.59,81.002ZM76.318,19.498L77.671,18.699C77.455,18.333 77.1,18.07 76.687,17.97L76.318,19.498ZM47.801,11.655L19.501,35.566L21.529,37.967L49.829,14.056L47.801,11.655ZM19.136,37.52L145.755,269.324L148.513,267.816L21.894,36.013L19.136,37.52ZM146.845,270.114L188.033,277.82L188.611,274.73L147.423,267.024L146.845,270.114ZM189.652,277.112L203.868,254.53L201.208,252.854L186.992,275.438L189.652,277.112ZM204.096,253.902L206.354,237.164L203.239,236.744L200.981,253.482L204.096,253.902ZM206.14,236.138L126.422,105.026L123.736,106.659L203.454,237.77L206.14,236.138ZM125.95,104.535L110.007,93.908L108.263,96.523L124.207,107.15L125.95,104.535ZM110.662,95.587L114.117,81.373L111.062,80.631L107.608,94.844L110.662,95.587ZM113.943,80.203L77.671,18.699L74.964,20.296L111.236,81.8L113.943,80.203ZM76.687,17.97L49.184,11.328L48.446,14.383L75.949,21.025L76.687,17.97Z" transform="rotate(341.718 112.656 144.565)" fill="#36B37E"/>
<path d="M126.098,104.302L115.469,115.593L132.077,115.593L126.098,104.302Z" transform="rotate(341.718 123.773 109.948)" fill="#FFFFFF"/>
<path d="M131.46,114.314L131.692,115.869C132.041,115.817 132.362,115.649 132.604,115.392L131.46,114.314ZM142.089,103.023L143.233,104.1L143.233,104.1L142.089,103.023ZM110.3,119.057L131.692,115.869L131.228,112.76L109.837,115.948L110.3,119.057ZM132.604,115.392L143.233,104.1L140.945,101.946L130.316,113.237L132.604,115.392ZM143.233,104.1L153.862,92.809L151.574,90.655L140.945,101.946L143.233,104.1Z" transform="rotate(341.718 131.393 104.617)" fill="#36B37E"/>
<path d="M112.697,117.141L114.087,116.408C113.815,115.892 113.28,115.57 112.697,115.57L112.697,117.141ZM96.089,118.713L112.697,118.713L112.697,115.57L96.089,115.57L96.089,118.713ZM111.307,117.875L135.356,163.438L138.135,161.971L114.087,116.408L111.307,117.875Z" transform="rotate(341.718 116.417 139.923)" fill="#36B37E"/>
<path d="M146.407,24.437L146.58,22.874C145.984,22.809 145.403,23.087 145.081,23.593L146.407,24.437ZM125.678,59.951L147.733,25.28L145.081,23.593L123.026,58.264L125.678,59.951ZM146.235,25.999L172.675,28.921L173.02,25.797L146.58,22.874L146.235,25.999Z" transform="rotate(341.718 148.6 41.772)" fill="#36B37E"/>
<path d="M125.916,30.814L130.699,26.563L128.611,24.213L123.828,28.464L125.916,30.814Z" transform="rotate(341.718 127.263 27.513)" fill="#36B37E"/>
<path d="M32.17,182.834L49.841,158.657L102.455,245.135L100.196,261.872L85.98,284.455L32.17,182.834Z" transform="rotate(341.718 67.312 221.556)" fill="#FFFFFF" stroke="#36B37E" stroke-width="1.572" stroke-miterlimit="10" stroke-linejoin="round"/>
<path d="M92.185,192.508L125.8,182.412L126.597,169.792L120.618,173.777L92.185,192.508Z" transform="rotate(341.718 109.391 181.15)" fill="#172B4D"/>
<path d="M206.122,274.852L98.104,274.852L38.315,274.852L65.419,235.532L222.597,235.532L220.338,252.27L206.122,274.852Z" transform="rotate(341.718 130.456 255.192)" fill="#172B4D"/>
</svg>
