<svg width="704" height="704" viewBox="0 0 704 704" fill="none" xmlns="http://www.w3.org/2000/svg" xmlns:xlink="http://www.w3.org/1999/xlink">
<path d="M273.44,599.268L417.648,467.321C418.159,466.811 419.182,466.302 420.205,466.302L512.253,466.302C513.275,466.302 514.297,466.811 515.321,467.83L557.253,513.681C558.787,515.209 558.787,517.756 556.743,519.285L425.319,624.74C424.296,625.25 423.273,625.759 422.25,625.759L357.817,612.513L357.306,612.513L275.486,606.4C272.417,605.891 270.883,601.306 273.44,599.268Z" transform="rotate(270.058 415.248 546.031)" fill="#172B4D"/>
<path d="M173.49,264.977L341.285,121.822L443.712,143.728L568.272,345.98L557.978,427.49L460.698,510.53L397.388,479.964L300.108,475.378L173.49,264.977Z" transform="rotate(270.058 370.881 316.177)" fill="#FFFFFF" stroke="#36B37E" stroke-width="1.558" stroke-miterlimit="10" stroke-linejoin="round"/>
<path d="M578.381,405.047L514.558,176.815L354.483,190.061L481.101,400.463L578.381,405.047Z" transform="rotate(270.058 466.432 290.931)" fill="#C5E9DA" stroke="#36B37E" stroke-width="1.558" stroke-miterlimit="10" stroke-linejoin="round"/>
<path d="M476.268,504.087L383.621,369.593L412.959,473.52L476.268,504.087Z" transform="rotate(270.058 429.944 436.84)" fill="#FFFFFF" stroke="#36B37E" stroke-width="1.558" stroke-miterlimit="10" stroke-linejoin="round"/>
<path d="M328.59,189.817L218.442,297.82L220.623,300.044L330.771,192.041L328.59,189.817Z" transform="rotate(270.058 274.606 244.93)" fill="#36B37E"/>
<path d="M335.639,238.377L368.066,210.866L391.743,216.98L384.022,274.547L335.639,238.377Z" transform="rotate(270.058 363.691 242.707)" fill="#C5E9DA" stroke="#36B37E" stroke-width="1.558" stroke-miterlimit="10" stroke-linejoin="round"/>
</svg>
