<svg width="262" height="224" viewBox="0 0 262 224" fill="none" xmlns="http://www.w3.org/2000/svg" xmlns:xlink="http://www.w3.org/1999/xlink">
<path d="M57.883,179.95L67.411,164.071C67.652,163.669 68.027,163.364 68.471,163.21L194.413,119.567C195.026,119.355 195.703,119.452 196.23,119.829L253.354,160.631C254.806,161.669 254.276,163.944 252.515,164.233L95.932,189.922C95.699,189.96 95.461,189.957 95.229,189.912L59.218,182.942C57.855,182.678 57.169,181.14 57.883,179.95Z" transform="rotate(-10.579 156.855 154.604)" fill="#172B4D"/>
<path d="M88.321,40.833L18.03,109.489L42.55,150.356L170.054,150.356L222.364,122.567L156.977,62.084L88.321,40.833Z" transform="rotate(-50.811 120.197 95.594)" fill="#FFFFFF" stroke="#36B37E" stroke-width="1.635" stroke-miterlimit="10" stroke-linejoin="round"/>
<path d="M108.77,71.055L108.77,79.882L170.234,129.903L178.08,125.653L222.543,102.114L157.156,41.631L108.77,71.055Z" transform="rotate(-50.811 165.657 85.767)" fill="#C5E9DA" stroke="#36B37E" stroke-width="1.635" stroke-miterlimit="10" stroke-linejoin="round"/>
<path d="M155.931,77.06L112.775,105.503L16.984,124.466Z" transform="rotate(-50.811 86.457 100.763)" fill="#FFFFFF" stroke="#36B37E" stroke-width="1.635" stroke-miterlimit="10" stroke-linejoin="round"/>
<path d="M94.033,97.595L106.457,79.94L127.054,83.863L106.13,104.133L94.033,97.595Z" transform="rotate(-50.811 110.544 92.037)" fill="#172B4D" stroke="#36B37E" stroke-width="1.635" stroke-miterlimit="10" stroke-linejoin="round"/>
<path d="M182,138.007L120.536,87.986L118.472,90.522L179.936,140.543L182,138.007Z" transform="rotate(-50.811 150.236 114.264)" fill="#36B37E"/>
<path d="M162.765,113.891L179.439,109.968L172.247,121.737L159.823,124.026L162.765,113.891Z" transform="rotate(-50.811 169.631 116.997)" fill="#FFFFFF" stroke="#36B37E" stroke-width="1.635" stroke-miterlimit="10" stroke-linejoin="round"/>
<path d="M166.847,105.49L183.848,62.008L180.803,60.818L163.802,104.3L166.847,105.49Z" transform="rotate(-50.811 173.825 83.154)" fill="#36B37E"/>
<path d="M92.496,134.561L108.435,121.483L126.417,129.248L141.539,116.579L124.374,109.222L139.904,96.553L122.33,88.788L106.8,101.457L90.452,114.127L72.061,105.953L55.305,119.031L36.096,110.857L18.113,124.344L37.731,132.518L56.939,140.283L74.104,126.796L92.496,134.561Z" transform="rotate(-50.811 79.826 114.535)" fill="#36B37E"/>
<path d="M116.609,119.663L134.591,127.019L149.713,113.941L132.548,106.584L116.609,119.663Z" transform="rotate(-50.811 133.161 116.802)" fill="#36B37E"/>
<path d="M87.517,139.404L106.317,146.761L122.256,133.682L104.273,125.917L87.517,139.404Z" transform="rotate(-50.811 104.886 136.339)" fill="#C5E9DA"/>
<path d="M98.305,157.355L116.696,164.712L133.044,151.225L115.062,143.868L98.305,157.355Z" transform="rotate(-50.811 115.675 154.29)" fill="#36B37E"/>
<path d="M82.139,169.858L98.896,156.371L80.096,148.606L62.931,162.093L44.948,176.397L64.565,183.753L83.774,191.518L100.939,177.214L82.139,169.858Z" transform="rotate(-50.811 72.944 170.062)" fill="#36B37E"/>
<path d="M146.902,65.522L131.781,77.783L148.946,85.14L133.824,97.809L150.989,105.165L165.702,92.496L180.006,80.235L163.659,72.879L177.963,61.027L191.859,49.174L175.919,41.818L161.615,53.67L144.859,45.905L130.146,57.757L146.902,65.522Z" transform="rotate(-50.811 161.002 73.492)" fill="#36B37E"/>
<path d="M145.188,45.033L128.432,37.268L113.719,49.12L130.475,56.885L145.188,45.033Z" transform="rotate(-50.811 129.453 47.076)" fill="#36B37E"/>
<path d="M208.489,60.752L192.55,53.396L178.654,65.248L194.593,72.605L208.489,60.752Z" transform="rotate(-50.811 193.572 63)" fill="#36B37E"/>
<path d="M141.883,117.269L125.944,130.348L143.517,137.704L161.091,144.652L176.213,131.574L190.926,118.904L174.169,111.548L159.048,124.626L141.883,117.269Z" transform="rotate(-50.811 158.435 128.1)" fill="#36B37E"/>
<path d="M127.572,183.052L143.92,169.156L125.529,161.8L109.181,175.695L127.572,183.052Z" transform="rotate(-50.811 126.55 172.426)" fill="#36B37E"/>
<path d="M79.227,197.634L98.435,204.582L115.601,190.278L96.392,183.33L79.227,197.634Z" transform="rotate(-50.811 97.414 193.956)" fill="#36B37E"/>
<path d="M118.507,62.596L101.342,54.423L85.403,66.683L102.977,74.449L118.507,62.596Z" transform="rotate(-50.811 101.955 64.436)" fill="#36B37E"/>
</svg>
