<svg width="240" height="218" viewBox="0 0 240 218" fill="none" xmlns="http://www.w3.org/2000/svg" xmlns:xlink="http://www.w3.org/1999/xlink">
<path d="M171.312,186.154L83.302,216.084L209.578,216.084L225.767,214.318L233.616,209.411L206.83,186.154L171.312,186.154Z" transform="rotate(360 158.459 201.119)" fill="#172B4D"/>
<path d="M1.079,131.202L1.079,126.492C1.079,126.492 11.382,106.081 12.853,105.884C14.325,105.688 134.027,55.838 134.027,55.838L88.403,144.646L70.35,163.879L1.079,131.202Z" transform="rotate(360 67.553 109.859)" fill="#FFFFFF" stroke="#36B37E" stroke-width="0.599" stroke-miterlimit="10"/>
<path d="M78.886,108.142L93.898,108.633L100.766,96.465L115.189,97.152L108.419,109.026L122.744,109.516L116.072,121.586L101.649,121.292L86.735,120.899L79.474,133.46L64.07,133.362L56.417,146.315L40.228,146.315L48.175,133.166L55.926,120.212L71.527,120.605L78.886,108.142Z" transform="rotate(360 81.486 121.39)" fill="#C5E9DA"/>
<path d="M55.338,95.874L62.402,83.902L76.923,84.687L70.055,96.463L55.338,95.874Z" transform="rotate(360 66.13 90.183)" fill="#36B37E"/>
<path d="M76.924,107.554L84.381,95.189L99.491,95.876L92.328,108.143L76.924,107.554Z" transform="rotate(360 88.207 101.666)" fill="#36B37E"/>
<path d="M84.772,94.501L92.327,82.234L107.535,83.019L100.275,95.188L84.772,94.501Z" transform="rotate(360 96.154 88.711)" fill="#36B37E"/>
<path d="M123.823,107.062L139.62,107.553L132.065,120.211L115.974,119.917L99.49,119.525L107.634,106.571L115.581,93.814L131.574,94.501L123.823,107.062Z" transform="rotate(360 119.555 107.013)" fill="#36B37E"/>
<path d="M22.272,97.741L8.242,97.152L14.815,85.376L0.687,84.689L7.359,73.012L21.291,73.895L34.929,74.778L28.65,86.161L42.19,86.848L55.338,87.535L49.352,98.918L36.009,98.329L29.729,110.007L15.797,109.516L22.272,97.741Z" transform="rotate(360 28.012 91.509)" fill="#172B4D"/>
<path d="M32.771,110.398L26.589,122.174L12.755,121.88L19.231,110.006L32.771,110.398Z" transform="rotate(360 22.763 116.09)" fill="#36B37E"/>
<path d="M21.095,64.571L15.208,75.66L1.864,74.777L8.045,63.59L21.095,64.571Z" transform="rotate(360 11.48 69.625)" fill="#36B37E"/>
<path d="M57.006,83.903L42.092,83.02L49.254,71.146L56.221,59.469L70.644,60.548L84.773,61.628L78.199,73.011L63.874,72.128L57.006,83.903Z" transform="rotate(360 63.432 71.686)" fill="#36B37E"/>
<path d="M100.275,69.184L115.68,70.165L108.321,82.235L92.622,81.45L100.275,69.184Z" transform="rotate(360 104.151 75.709)" fill="#36B37E"/>
<path d="M115.679,93.127L123.725,80.566L139.816,81.45L131.967,93.814L115.679,93.127Z" transform="rotate(360 127.748 87.19)" fill="#36B37E"/>
<path d="M53.67,121.878L47.096,134.047L32.771,133.85L39.541,121.584L53.67,121.878Z" transform="rotate(360 43.22 127.815)" fill="#36B37E"/>
<path d="M51.021,128.061L105.967,139.836L107.34,143.467L95.076,160.247L51.021,128.061Z" transform="rotate(360 79.181 144.154)" fill="#172B4D"/>
<path d="M192.701,131.79L138.737,0.197L173.47,141.799L177.199,143.075L192.701,131.79Z" transform="rotate(360 165.719 71.636)" fill="#FFFFFF" stroke="#36B37E" stroke-width="0.599" stroke-miterlimit="10"/>
<path d="M138.738,140.524L154.829,123.352L158.263,131.791L142.76,143.076L139.032,141.8L138.738,140.524Z" transform="rotate(360 148.5 133.214)" fill="#36B37E"/>
<path d="M80.554,143.075L91.641,133.655L108.812,120.604L152.277,138.071L154.24,148.571L143.643,163.585L80.554,143.075Z" transform="rotate(360 117.397 142.094)" fill="#FFFFFF" stroke="#36B37E" stroke-width="0.599" stroke-miterlimit="10"/>
<path d="M151.198,150.238L119.114,139.836L137.56,186.154L164.051,187.822L151.198,150.238Z" transform="rotate(360 141.583 163.829)" fill="#FFFFFF" stroke="#36B37E" stroke-width="0.599" stroke-miterlimit="10"/>
<path d="M122.646,161.327L129.024,163.584L131.967,205.486L129.024,214.317L101.06,187.822L88.207,150.238L122.646,161.327Z" transform="rotate(360 110.087 182.278)" fill="#FFFFFF" stroke="#36B37E" stroke-width="0.599" stroke-miterlimit="10"/>
<path d="M152.964,133.654L97.528,163.584L238.816,161.327L152.964,133.654Z" transform="rotate(360 168.172 148.619)" fill="#C5E9DA" stroke="#36B37E" stroke-width="0.599" stroke-miterlimit="10"/>
<path d="M40.817,163.584L40.817,156.715L85.264,95.58L91.151,104.902L48.666,209.411L43.76,205.486L40.817,163.584Z" transform="rotate(360 65.984 152.496)" fill="#FFFFFF" stroke="#36B37E" stroke-width="0.599" stroke-miterlimit="10"/>
<path d="M20.997,95.58L26.884,104.902L46.704,123.35L31.005,91.654L20.997,95.58Z" transform="rotate(360 33.85 107.502)" fill="#FFFFFF" stroke="#36B37E" stroke-width="0.599" stroke-miterlimit="10"/>
<path d="M99.981,168.295L155.123,161.328L97.528,162.309L99.981,168.295Z" transform="rotate(360 126.326 164.812)" fill="#172B4D"/>
<path d="M83.498,159.462L102.728,143.467L103.513,146.214L95.86,156.714L95.86,163.584L83.498,159.462Z" transform="rotate(360 93.505 153.525)" fill="#172B4D"/>
<path d="M38.07,199.402L42.583,204.995L48.47,199.402L79.181,107.552L76.433,104.902L38.07,199.402Z" transform="rotate(360 58.625 154.949)" fill="#C5E9DA" stroke="#36B37E" stroke-width="0.599" stroke-miterlimit="10"/>
</svg>
