<svg width="578" height="286" viewBox="0 0 578 286" fill="none" xmlns="http://www.w3.org/2000/svg" xmlns:xlink="http://www.w3.org/1999/xlink">
<path d="M98.094,253.641L554.97,247.844L377.928,200.051L397.882,158.629L511.116,143.381L482.112,136.781L404.148,133.367L98.094,253.641Z" fill="#172B4D"/>
<path d="M350.778,42.104L336.856,42.331L221.07,0L351.938,72.828L373.286,55.532L350.778,42.104Z" fill="#36B37E"/>
<path d="M350.778,42.105L576.084,1.594L463.548,108.788L350.778,42.105Z" fill="#172B4D"/>
<path d="M221.07,0L445.912,125.401L395.329,134.505L271.422,143.381L221.07,0Z" fill="#FFFFFF" stroke="#36B37E" stroke-width="1.437" stroke-miterlimit="10" stroke-linejoin="round"/>
<path d="M445.912,125.402L576.084,1.594L482.11,136.781L445.912,125.402Z" fill="#FFFFFF" stroke="#36B37E" stroke-width="1.437" stroke-miterlimit="10" stroke-linejoin="round"/>
<path d="M351.938,72.828L410.179,25.717L416.212,30.496L397.881,98.545L351.938,72.828Z" fill="#FFFFFF" stroke="#36B37E" stroke-width="1.437" stroke-miterlimit="10" stroke-linejoin="round"/>
<path d="M416.212,30.496L468.884,103.779L445.912,125.4L397.881,98.545L416.212,30.496Z" fill="#FFFFFF" stroke="#36B37E" stroke-width="1.437" stroke-miterlimit="10" stroke-linejoin="round"/>
<path d="M482.11,136.78L395.329,134.504L445.913,125.4L482.11,136.78Z" fill="#FFFFFF" stroke="#36B37E" stroke-width="1.437" stroke-miterlimit="10" stroke-linejoin="round"/>
<path d="M182.321,101.733L163.758,104.919L0.405,72.602L190.674,142.244L215.501,114.705L182.321,101.733Z" fill="#FFFFFF" stroke="#36B37E" stroke-width="1.437" stroke-miterlimit="10" stroke-linejoin="round"/>
<path d="M182.321,101.733L473.757,1.594L346.834,166.595L182.321,101.733Z" fill="#C5E9DA" stroke="#36B37E" stroke-width="1.437" stroke-miterlimit="10"/>
<path d="M0.405,72.602L327.343,192.085L261.677,214.844L98.324,251.941L0.405,72.602Z" fill="#FFFFFF" stroke="#36B37E" stroke-width="1.437" stroke-miterlimit="10" stroke-linejoin="round"/>
<path d="M327.343,192.085L473.757,1.594L377.926,200.051L327.343,192.085Z" fill="#FFFFFF" stroke="#36B37E" stroke-width="1.437" stroke-miterlimit="10" stroke-linejoin="round"/>
<path d="M190.674,142.244L258.196,67.822L267.245,72.602L257.5,166.595L190.674,142.244Z" fill="#36B37E"/>
<path d="M267.245,72.602L352.866,158.858L327.343,192.085L257.5,166.596L267.245,72.602Z" fill="#FFFFFF" stroke="#36B37E" stroke-width="1.437" stroke-miterlimit="10" stroke-linejoin="round"/>
<path d="M377.926,200.052L261.677,214.845L327.343,192.086L377.926,200.052Z" fill="#FFFFFF" stroke="#36B37E" stroke-width="1.437" stroke-miterlimit="10" stroke-linejoin="round"/>
<path d="M196.707,196.863L161.206,198.001L144.731,170.008L110.622,171.373L126.633,199.139L92.987,200.049L108.534,228.043L142.875,227.36L177.912,226.45L195.083,255.809L231.744,255.353L249.843,285.395L287.897,285.395L269.334,254.898L251.003,225.084L213.878,225.767L196.707,196.863Z" fill="#C5E9DA"/>
<path d="M179.537,168.414L162.83,140.648L128.489,142.469L144.732,170.007L179.537,168.414Z" fill="#C5E9DA"/>
<path d="M232.905,195.726L215.503,166.822L179.537,168.415L196.708,196.864L232.905,195.726Z" fill="#36B37E"/>
<path d="M252.164,165.455L234.297,136.779L198.1,138.828L215.502,166.821L252.164,165.455Z" fill="#172B4D"/>
<path d="M270.263,194.36L232.905,195.726L251.004,225.084L288.826,224.174L327.808,223.264L308.549,193.222L289.754,163.863L252.164,165.456L270.263,194.36Z" fill="#36B37E"/>
<path d="M77.441,172.739L110.622,171.373L95.076,144.29L128.489,142.47L112.71,115.387L79.761,117.435L47.509,119.483L62.359,145.884L30.57,147.704L-0.755,149.297L13.399,175.47L45.188,174.105L60.038,201.188L92.987,200.05L77.441,172.739Z" fill="#36B37E"/>
<path d="M27.785,202.325L42.635,229.409L75.12,228.726L60.038,201.188L27.785,202.325Z" fill="#36B37E"/>
<path d="M2.029,96.042L16.183,121.531L47.508,119.483L33.122,93.766L2.029,96.042Z" fill="#36B37E"/>
<path d="M162.83,140.649L198.099,138.828L181.161,111.29L164.686,84.207L130.577,86.71L97.164,88.986L112.71,115.387L146.588,113.338L162.83,140.649Z" fill="#36B37E"/>
<path d="M253.324,106.738L216.895,109.014L234.297,136.78L271.423,134.959L253.324,106.738Z" fill="#36B37E"/>
<path d="M328.503,162.041L309.245,132.91L271.423,134.958L289.754,163.862L328.503,162.041Z" fill="#36B37E"/>
<path d="M75.121,228.726L90.667,256.947L124.545,256.492L108.534,228.043L75.121,228.726Z" fill="#36B37E"/>
</svg>
