<svg width="702" height="702" viewBox="0 0 702 702" fill="none" xmlns="http://www.w3.org/2000/svg" xmlns:xlink="http://www.w3.org/1999/xlink">
<path d="M701.5,175.418C701.5,272.298 622.982,350.836 526.125,350.836L350.75,350.836L350.75,175.418C350.75,78.537 429.268,0 526.125,0C622.982,0 701.5,78.537 701.5,175.418Z" fill="#1C528A"/>
<path d="M615.566,175.418C615.566,223.858 576.307,263.127 527.879,263.127L440.191,263.127L440.191,175.418C440.191,126.978 479.45,87.709 527.879,87.709C576.307,87.709 615.566,126.978 615.566,175.418Z" clip-rule="evenodd" fill-rule="evenodd" fill="#E45865"/>
<path d="M615.566,175.418C615.566,223.858 576.307,263.127 527.879,263.127L440.191,263.127L440.191,175.418C440.191,126.978 479.45,87.709 527.879,87.709C576.307,87.709 615.566,126.978 615.566,175.418Z" clip-rule="evenodd" fill-rule="evenodd" fill="url(#pattern_1_67_820)" style="mix-blend-mode:overlay"/>
<path d="M701.5,526.254C701.5,623.134 622.982,701.672 526.125,701.672L350.75,701.672L350.75,350.836L526.125,350.836C622.982,350.836 701.5,429.373 701.5,526.254Z" clip-rule="evenodd" fill-rule="evenodd" fill="#E45865"/>
<path d="M701.5,526.254C701.5,623.134 622.982,701.672 526.125,701.672L350.75,701.672L350.75,350.836L526.125,350.836C622.982,350.836 701.5,429.373 701.5,526.254Z" clip-rule="evenodd" fill-rule="evenodd" fill="url(#pattern_1_67_821)" style="mix-blend-mode:overlay"/>
<path d="M0,350.836L350.75,350.836L350.75,701.672L0,350.836Z" fill="#FFD4C4"/>
<path d="M0,350.835L350.75,350.835L350.75,701.671L0,350.835Z" clip-rule="evenodd" fill-rule="evenodd" transform="rotate(-360 175.375 526.253)" fill="url(#pf_0_67_823)"/>
<path d="M0,350.835L350.75,350.835L350.75,701.671L0,350.835Z" clip-rule="evenodd" fill-rule="evenodd" transform="rotate(-360 175.375 526.253)" fill="url(#pattern_1_67_823)" style="mix-blend-mode:overlay"/>
<path d="M175.375,613.963C223.804,613.963 263.063,574.694 263.063,526.254C263.063,477.814 223.804,438.545 175.375,438.545C126.947,438.545 87.688,477.814 87.688,526.254C87.688,574.694 126.947,613.963 175.375,613.963Z" clip-rule="evenodd" fill-rule="evenodd" fill="#E45865"/>
<path d="M175.375,613.963C223.804,613.963 263.063,574.694 263.063,526.254C263.063,477.814 223.804,438.545 175.375,438.545C126.947,438.545 87.688,477.814 87.688,526.254C87.688,574.694 126.947,613.963 175.375,613.963Z" clip-rule="evenodd" fill-rule="evenodd" fill="url(#pattern_1_67_824)" style="mix-blend-mode:overlay"/>
<defs>
<linearGradient id="pf_0_67_823" x1="524.801" y1="527.577" x2="176.699" y2="179.39" gradientUnits="userSpaceOnUse">
<stop stop-color="#FEC55F"/>
<stop offset="1" stop-color="#FCD06D"/>
</linearGradient>
</defs>
</svg>
