<svg width="204" height="204" viewBox="0 0 204 204" fill="none" xmlns="http://www.w3.org/2000/svg" xmlns:xlink="http://www.w3.org/1999/xlink">
<path d="M158.698,78.843L148.287,126.535L186.456,126.535C187.753,126.535 188.806,127.587 188.806,128.885L188.806,141.828C188.806,143.126 187.753,144.178 186.456,144.178L144.348,144.178L131.805,202.146C131.571,203.228 130.615,204 129.508,204L115.465,204C113.967,204 112.851,202.618 113.168,201.154L125.495,144.178L62.748,144.178L50.205,202.146C49.971,203.228 49.015,204 47.908,204L34.146,204C32.648,204 31.532,202.618 31.849,201.154L44.177,144.178L2.35,144.178C1.052,144.178 0,143.126 0,141.828L0,128.885C0,127.587 1.052,126.535 2.35,126.535L48.116,126.535L58.527,78.843L17.544,78.843C16.247,78.843 15.194,77.791 15.194,76.493L15.194,63.55C15.194,62.252 16.247,61.2 17.544,61.2L62.466,61.2L75.29,1.854C75.524,0.772 76.481,0 77.587,0L91.35,0C92.848,0 93.963,1.382 93.647,2.846L81.037,61.2L143.785,61.2L156.609,1.854C156.843,0.772 157.799,0 158.906,0L172.95,0C174.448,0 175.563,1.382 175.247,2.846L162.637,61.2L201.65,61.2C202.948,61.2 204,62.252 204,63.55L204,76.493C204,77.791 202.948,78.843 201.65,78.843L158.698,78.843ZM139.846,78.843L77.098,78.843L66.687,126.535L129.434,126.535L139.846,78.843Z" fill="#FFFFFF"/>
</svg>
