<svg width="528" height="702" viewBox="0 0 528 702" fill="none" xmlns="http://www.w3.org/2000/svg" xmlns:xlink="http://www.w3.org/1999/xlink">
<path d="M526.125,175.418L350.75,350.836L175.375,175.418L350.75,0L526.125,175.418Z" clip-rule="evenodd" fill-rule="evenodd" fill="#E45865"/>
<path d="M526.125,175.418L350.75,350.836L175.375,175.418L350.75,0L526.125,175.418Z" clip-rule="evenodd" fill-rule="evenodd" fill="url(#pattern_1_67_826)" style="mix-blend-mode:overlay"/>
<path d="M526.125,175.418L350.75,350.836L175.375,175.418L350.75,0L526.125,175.418Z" clip-rule="evenodd" fill-rule="evenodd" fill="#E35461"/>
<path d="M350.75,526.254C350.75,623.134 272.232,701.672 175.375,701.672L0,701.672L0,350.836L175.375,350.836C272.232,350.836 350.75,429.373 350.75,526.254Z" clip-rule="evenodd" fill-rule="evenodd" fill="#E45865"/>
<path d="M350.75,526.254C350.75,623.134 272.232,701.672 175.375,701.672L0,701.672L0,350.836L175.375,350.836C272.232,350.836 350.75,429.373 350.75,526.254Z" clip-rule="evenodd" fill-rule="evenodd" fill="url(#pattern_1_67_827)" style="mix-blend-mode:overlay"/>
<path d="M350.75,526.254C350.75,623.134 272.232,701.672 175.375,701.672L0,701.672L0,350.836L175.375,350.836C272.232,350.836 350.75,429.373 350.75,526.254Z" clip-rule="evenodd" fill-rule="evenodd" fill="#1C528A"/>
<path d="M261.309,526.254C261.309,574.694 222.05,613.963 173.621,613.963L85.934,613.963L85.934,526.254C85.934,477.814 125.193,438.545 173.621,438.545C222.05,438.545 261.309,477.814 261.309,526.254Z" clip-rule="evenodd" fill-rule="evenodd" fill="#98DEDE"/>
<path d="M261.309,526.254C261.309,574.694 222.05,613.963 173.621,613.963L85.934,613.963L85.934,526.254C85.934,477.814 125.193,438.545 173.621,438.545C222.05,438.545 261.309,477.814 261.309,526.254Z" clip-rule="evenodd" fill-rule="evenodd" fill="url(#pattern_1_67_828)" style="mix-blend-mode:overlay"/>
<path d="M0,350.836L0,0L350.75,0L0,350.836Z" clip-rule="evenodd" fill-rule="evenodd" fill="#98DEDE"/>
<path d="M0,350.836L0,0L350.75,0L0,350.836Z" clip-rule="evenodd" fill-rule="evenodd" fill="url(#pattern_1_67_829)" style="mix-blend-mode:overlay"/>
<path d="M0,350.836L0,0L350.75,0L0,350.836Z" clip-rule="evenodd" fill-rule="evenodd" fill="#FEC25A"/>
</svg>
