<svg width="40" height="40" viewBox="0 0 40 40" fill="none" xmlns="http://www.w3.org/2000/svg" xmlns:xlink="http://www.w3.org/1999/xlink">
<path d="M27.289,6.069C20.311,6.069 14.577,11.725 14.577,18.759L14.577,38.621C14.577,39.38 15.199,40 15.959,40L23.144,40C23.904,40 24.525,39.38 24.525,38.621L24.525,19.311C24.525,17.793 25.769,16.552 27.289,16.552C28.809,16.552 30.052,17.793 30.052,19.311L30.052,38.621C30.052,39.38 30.674,40 31.434,40L38.619,40C39.379,40 40,39.38 40,38.621L40,18.759C40,11.793 34.335,6.069 27.289,6.069Z" fill="#CFCFCF"/>
<path d="M4.974,0C2.211,0 0,2.207 0,4.966C0,7.724 2.211,9.931 4.974,9.931C7.737,9.931 9.948,7.724 9.948,4.966C9.948,2.207 7.737,0 4.974,0Z" fill="#CFCFCF"/>
<path d="M8.567,12.552L1.382,12.552C0.622,12.552 0,13.172 0,13.931L0,38.621C0,39.379 0.622,40 1.382,40L8.567,40C9.326,40 9.948,39.379 9.948,38.621L9.948,13.931C9.948,13.172 9.326,12.552 8.567,12.552Z" fill="#CFCFCF"/>
</svg>
