<svg width="42" height="40" viewBox="0 0 42 40" fill="none" xmlns="http://www.w3.org/2000/svg" xmlns:xlink="http://www.w3.org/1999/xlink">
<path d="M27.29,6.069C20.312,6.069 14.578,11.724 14.578,18.759L14.578,38.621C14.578,39.379 15.2,40 15.96,40L23.145,40C23.905,40 24.526,39.379 24.526,38.621L24.526,19.31C24.526,17.793 25.77,16.552 27.29,16.552C28.81,16.552 30.053,17.793 30.053,19.31L30.053,38.621C30.053,39.379 30.675,40 31.435,40L38.62,40C39.38,40 40.001,39.379 40.001,38.621L40.001,18.759C40.001,11.793 34.336,6.069 27.29,6.069Z" fill="#505F79"/>
<path d="M4.974,0C2.211,0 0,2.207 0,4.966C0,7.724 2.211,9.931 4.974,9.931C7.737,9.931 9.948,7.724 9.948,4.966C9.948,2.207 7.737,0 4.974,0Z" fill="#505F79"/>
<path d="M8.567,12.552L1.382,12.552C0.622,12.552 0,13.172 0,13.931L0,38.621C0,39.379 0.622,40 1.382,40L8.567,40C9.326,40 9.948,39.379 9.948,38.621L9.948,13.931C9.948,13.172 9.326,12.552 8.567,12.552Z" fill="#505F79"/>
</svg>
