<svg width="40" height="40" viewBox="0 0 40 40" fill="none" xmlns="http://www.w3.org/2000/svg" xmlns:xlink="http://www.w3.org/1999/xlink">
<path d="M27.289,5.738C20.311,5.738 14.577,11.285 14.577,18.185L14.577,37.667C14.577,38.411 15.199,39.019 15.959,39.019L23.144,39.019C23.904,39.019 24.525,38.411 24.525,37.667L24.525,18.726C24.525,17.238 25.769,16.02 27.289,16.02C28.809,16.02 30.052,17.238 30.052,18.726L30.052,37.667C30.052,38.411 30.674,39.019 31.434,39.019L38.619,39.019C39.379,39.019 40,38.411 40,37.667L40,18.185C40,11.353 34.335,5.738 27.289,5.738Z" fill="#505F79"/>
<path d="M4.974,-0.215C2.211,-0.215 0,1.949 0,4.655C0,7.36 2.211,9.524 4.974,9.524C7.737,9.524 9.948,7.36 9.948,4.655C9.948,1.949 7.737,-0.215 4.974,-0.215Z" fill="#505F79"/>
<path d="M8.567,12.096L1.382,12.096C0.622,12.096 0,12.705 0,13.449L0,37.666C0,38.41 0.622,39.018 1.382,39.018L8.567,39.018C9.326,39.018 9.948,38.41 9.948,37.666L9.948,13.449C9.948,12.705 9.326,12.096 8.567,12.096Z" fill="#505F79"/>
</svg>
