<svg width="42" height="38" viewBox="0 0 42 38" fill="none" xmlns="http://www.w3.org/2000/svg" xmlns:xlink="http://www.w3.org/1999/xlink">
<path d="M28.284,5.908C21.195,5.908 15.37,11.257 15.37,17.91L15.37,36.695C15.37,37.413 16.001,38 16.773,38L24.073,38C24.845,38 25.477,37.413 25.477,36.695L25.477,18.432C25.477,16.997 26.74,15.823 28.284,15.823C29.829,15.823 31.092,16.997 31.092,18.432L31.092,36.695C31.092,37.413 31.724,38 32.496,38L39.796,38C40.568,38 41.2,37.413 41.2,36.695L41.2,17.91C41.2,11.322 35.444,5.908 28.284,5.908Z" fill="#505F79"/>
<path d="M5.613,0.168C2.805,0.168 0.559,2.255 0.559,4.863C0.559,7.471 2.805,9.558 5.613,9.558C8.42,9.558 10.667,7.471 10.667,4.863C10.667,2.255 8.42,0.168 5.613,0.168Z" fill="#505F79"/>
<path d="M9.263,12.039L1.963,12.039C1.191,12.039 0.559,12.626 0.559,13.344L0.559,36.695C0.559,37.412 1.191,37.999 1.963,37.999L9.263,37.999C10.035,37.999 10.667,37.412 10.667,36.695L10.667,13.344C10.667,12.626 10.035,12.039 9.263,12.039Z" fill="#505F79"/>
</svg>
