<svg width="42" height="32" viewBox="0 0 42 32" fill="none" xmlns="http://www.w3.org/2000/svg" xmlns:xlink="http://www.w3.org/1999/xlink">
<path d="M37.236,3.508L40.479,0.59L40.479,-0.049L29.246,-0.049L21.24,18.697L12.131,-0.049L0.352,-0.049L0.352,0.59L4.14,4.88C4.509,5.197 4.702,5.66 4.653,6.127L4.653,22.985C4.77,23.592 4.56,24.216 4.106,24.657L-0.161,29.522L-0.161,30.153L11.938,30.153L11.938,29.514L7.671,24.657C7.209,24.214 6.99,23.601 7.083,22.985L7.083,8.403L17.704,30.161L18.938,30.161L28.07,8.403L28.07,25.736C28.07,26.193 28.07,26.287 27.752,26.586L24.467,29.576L24.467,30.217L40.405,30.217L40.405,29.578L37.238,26.661C36.96,26.464 36.817,26.132 36.876,25.811L36.876,4.359C36.817,4.035 36.959,3.704 37.236,3.508Z" fill="#505F79"/>
</svg>
