<svg width="40" height="32" viewBox="0 0 40 32" fill="none" xmlns="http://www.w3.org/2000/svg" xmlns:xlink="http://www.w3.org/1999/xlink">
<path d="M36.808,3.398L40,0.371L40,-0.291L28.943,-0.291L21.063,19.149L12.098,-0.291L0.505,-0.291L0.505,0.371L4.233,4.82C4.597,5.149 4.787,5.63 4.738,6.114L4.738,23.596C4.853,24.226 4.647,24.873 4.2,25.331L0,30.376L0,31.03L11.908,31.03L11.908,30.368L7.708,25.331C7.253,24.872 7.038,24.236 7.13,23.596L7.13,8.474L17.583,31.038L18.798,31.038L27.787,8.474L27.787,26.449C27.787,26.923 27.787,27.021 27.473,27.331L24.24,30.432L24.24,31.096L39.927,31.096L39.927,30.434L36.81,27.409C36.537,27.204 36.395,26.861 36.453,26.527L36.453,4.28C36.395,3.945 36.535,3.601 36.808,3.398Z" fill="#505F79"/>
</svg>
