<svg width="40" height="40" viewBox="0 0 40 40" fill="none" xmlns="http://www.w3.org/2000/svg" xmlns:xlink="http://www.w3.org/1999/xlink">
<path d="M39.517,0.559C38.851,-0.223 37.717,-0.419 36.851,0.168L32.984,2.775C31.184,0.885 28.651,-0.158 25.917,-0.158C20.517,-0.158 16.051,4.143 16.051,9.488C16.051,10.27 16.117,10.986 16.317,11.703C11.651,10.726 8.851,7.402 7.784,1.406C7.651,0.624 7.051,0.038 6.251,-0.158C5.517,-0.354 4.717,-0.028 4.251,0.559C4.117,0.689 -6.883,15.679 9.051,28.388C7.517,31.581 2.917,34.318 1.117,35.231C0.251,35.622 -0.149,36.534 0.051,37.447C0.251,38.359 1.051,38.946 1.984,38.946L5.451,38.946C25.717,38.946 34.917,29.105 35.117,7.076L39.317,3.166C40.117,2.514 40.184,1.341 39.517,0.559Z" fill="#505F79"/>
</svg>
