<svg width="40" height="38" viewBox="0 0 40 38" fill="none" xmlns="http://www.w3.org/2000/svg" xmlns:xlink="http://www.w3.org/1999/xlink">
<path d="M39.461,0.914C38.783,0.16 37.632,-0.029 36.751,0.537L32.823,3.051C30.994,1.228 28.42,0.223 25.643,0.223C20.157,0.223 15.619,4.37 15.619,9.524C15.619,10.278 15.686,10.969 15.89,11.66C11.148,10.718 8.303,7.513 7.22,1.731C7.084,0.977 6.475,0.411 5.662,0.223C4.917,0.034 4.104,0.348 3.63,0.914C3.494,1.04 -7.682,15.494 8.507,27.748C6.949,30.827 2.275,33.467 0.446,34.347C-0.434,34.724 -0.841,35.604 -0.637,36.483C-0.434,37.363 0.379,37.929 1.327,37.929L4.849,37.929C25.44,37.929 34.787,28.439 34.99,7.198L39.258,3.428C40.07,2.799 40.138,1.668 39.461,0.914Z" fill="#505F79"/>
</svg>
