<svg width="46" height="46" viewBox="0 0 46 46" fill="none" xmlns="http://www.w3.org/2000/svg" xmlns:xlink="http://www.w3.org/1999/xlink">
<path d="M25.161,4L37.176,4L17.43,23.746L20.258,26.574L40.004,6.828L40.004,18.844L44.004,18.844L44.004,2L44.004,0L42.004,0L25.161,0L25.161,4ZM2,6.316L10.423,6.316L10.423,10.316L4,10.316L4,40.004L33.687,40.004L33.687,33.582L37.687,33.582L37.687,42.004L37.687,44.004L35.687,44.004L2,44.004L0,44.004L0,42.004L0,8.316L0,6.316L2,6.316Z" clip-rule="evenodd" fill-rule="evenodd" fill="#92DCDC"/>
</svg>
