<svg width="36" height="24" viewBox="0 0 36 24" fill="none" xmlns="http://www.w3.org/2000/svg" xmlns:xlink="http://www.w3.org/1999/xlink">
<path d="M0,2C0,0.895 0.896,0 2,0L34,0C35.105,0 36,0.895 36,2C36,3.105 35.105,4 34,4L2,4C0.896,4 0,3.105 0,2ZM0,12C0,10.895 0.896,10 2,10L34,10C35.105,10 36,10.895 36,12C36,13.105 35.105,14 34,14L2,14C0.896,14 0,13.105 0,12ZM2,20C0.896,20 0,20.895 0,22C0,23.105 0.896,24 2,24L34,24C35.105,24 36,23.105 36,22C36,20.895 35.105,20 34,20L2,20Z" clip-rule="evenodd" fill-rule="evenodd" fill="#6070FF"/>
</svg>
