<svg width="44" height="36" viewBox="0 0 44 36" fill="none" xmlns="http://www.w3.org/2000/svg" xmlns:xlink="http://www.w3.org/1999/xlink">
<path d="M12.8,4L31.2,4C33.506,4 34.995,4.003 36.129,4.096C37.215,4.185 37.618,4.335 37.816,4.436C38.569,4.819 39.181,5.431 39.564,6.184C39.665,6.382 39.816,6.785 39.904,7.871C39.997,9.005 40,10.494 40,12.8L40,23.2C40,25.506 39.997,26.995 39.904,28.129C39.816,29.215 39.665,29.618 39.564,29.816C39.181,30.569 38.569,31.181 37.816,31.564C37.618,31.665 37.215,31.816 36.129,31.904C34.995,31.997 33.506,32 31.2,32L12.8,32C10.494,32 9.005,31.997 7.871,31.904C6.785,31.816 6.382,31.665 6.184,31.564C5.431,31.181 4.819,30.569 4.436,29.816C4.335,29.618 4.184,29.215 4.096,28.129C4.003,26.995 4,25.506 4,23.2L4,12.8C4,10.494 4.003,9.005 4.096,7.871C4.184,6.785 4.335,6.382 4.436,6.184C4.819,5.431 5.431,4.819 6.184,4.436C6.382,4.335 6.785,4.185 7.871,4.096C9.005,4.003 10.494,4 12.8,4ZM0,12.8C0,8.32 0,6.079 0.872,4.368C1.639,2.863 2.863,1.639 4.368,0.872C6.079,0 8.32,0 12.8,0L31.2,0C35.68,0 37.921,0 39.632,0.872C41.137,1.639 42.361,2.863 43.128,4.368C44,6.079 44,8.32 44,12.8L44,23.2C44,27.68 44,29.921 43.128,31.632C42.361,33.137 41.137,34.361 39.632,35.128C37.921,36 35.68,36 31.2,36L12.8,36C8.32,36 6.079,36 4.368,35.128C2.863,34.361 1.639,33.137 0.872,31.632C0,29.921 0,27.68 0,23.2L0,12.8ZM11.109,8.336C10.19,7.723 8.949,7.972 8.336,8.891C7.723,9.81 7.972,11.051 8.891,11.664L20.891,19.664C21.562,20.112 22.438,20.112 23.109,19.664L35.109,11.664C36.028,11.051 36.277,9.81 35.664,8.891C35.051,7.972 33.81,7.723 32.891,8.336L22,15.596L11.109,8.336Z" clip-rule="evenodd" fill-rule="evenodd" fill="#FFFFFF"/>
</svg>
