<svg width="44" height="44" viewBox="0 0 44 44" fill="none" xmlns="http://www.w3.org/2000/svg" xmlns:xlink="http://www.w3.org/1999/xlink">
<path d="M25.2,3.465L38.085,3.465L17.575,23.975L20.025,26.425L40.535,5.915L40.535,18.8L44,18.8L44,1.732L44,0L42.268,0L25.2,0L25.2,3.465ZM1.732,6.399L10.267,6.399L10.267,9.864L3.465,9.864L3.465,40.534L34.134,40.534L34.134,33.733L37.599,33.733L37.599,42.266L37.599,43.999L35.867,43.999L1.732,43.999L0,43.999L0,42.266L0,8.132L0,6.399L1.732,6.399Z" clip-rule="evenodd" fill-rule="evenodd" fill="#1A2236"/>
</svg>
