<svg width="72" height="46" viewBox="0 0 72 46" fill="none" xmlns="http://www.w3.org/2000/svg" xmlns:xlink="http://www.w3.org/1999/xlink">
<path d="M0.667,1.167C0.667,0.062 1.562,-0.833 2.667,-0.833L69.334,-0.833C70.438,-0.833 71.334,0.062 71.334,1.167C71.334,2.271 70.438,3.167 69.334,3.167L2.667,3.167C1.562,3.167 0.667,2.271 0.667,1.167ZM0.667,22C0.667,20.895 1.562,20 2.667,20L69.334,20C70.438,20 71.334,20.895 71.334,22C71.334,23.105 70.438,24 69.334,24L2.667,24C1.562,24 0.667,23.105 0.667,22ZM2.667,40.833C1.562,40.833 0.667,41.729 0.667,42.833C0.667,43.938 1.562,44.833 2.667,44.833L69.334,44.833C70.438,44.833 71.334,43.938 71.334,42.833C71.334,41.729 70.438,40.833 69.334,40.833L2.667,40.833Z" clip-rule="evenodd" fill-rule="evenodd" fill="#FFFFFF"/>
</svg>
