<svg width="22" height="22" viewBox="0 0 22 22" fill="none" xmlns="http://www.w3.org/2000/svg" xmlns:xlink="http://www.w3.org/1999/xlink">
<g style="isolation:isolate">
<path d="M0.562,16.484C-0.219,17.265 -0.219,18.532 0.562,19.313C1.343,20.094 2.609,20.094 3.39,19.313L19.39,3.313C20.171,2.532 20.171,1.265 19.39,0.484C18.609,-0.297 17.343,-0.297 16.562,0.484L0.562,16.484ZM9.562,17.484C8.781,18.265 8.781,19.532 9.562,20.313C10.343,21.094 11.609,21.094 12.39,20.313L20.39,12.313C21.171,11.532 21.171,10.265 20.39,9.484C19.609,8.703 18.343,8.703 17.562,9.484L9.562,17.484Z" clip-rule="evenodd" fill-rule="evenodd" fill="#60C095"/>
</g>
</svg>
