<svg width="22" height="22" viewBox="0 0 22 22" fill="none" xmlns="http://www.w3.org/2000/svg" xmlns:xlink="http://www.w3.org/1999/xlink">
<g style="isolation:isolate">
<path d="M1.586,17.586C0.805,18.367 0.805,19.633 1.586,20.414C2.367,21.195 3.633,21.195 4.414,20.414L20.414,4.414C21.195,3.633 21.195,2.367 20.414,1.586C19.633,0.805 18.367,0.805 17.586,1.586L1.586,17.586ZM10.586,18.586C9.805,19.367 9.805,20.633 10.586,21.414C11.367,22.195 12.633,22.195 13.414,21.414L21.414,13.414C22.195,12.633 22.195,11.367 21.414,10.586C20.633,9.805 19.367,9.805 18.586,10.586L10.586,18.586Z" clip-rule="evenodd" fill-rule="evenodd" fill="#6F6C6B"/>
</g>
</svg>
