<svg width="36" height="40" viewBox="0 0 36 40" fill="none" xmlns="http://www.w3.org/2000/svg" xmlns:xlink="http://www.w3.org/1999/xlink">
<path d="M35.998,14.922C35.998,12.642 35.266,10.501 33.868,8.636C34.401,6.839 34.534,4.56 34.401,1.934C34.334,0.829 33.469,0 32.404,0C31.806,0 26.748,0.069 23.82,2.763C21.292,2.28 18.63,2.28 16.035,2.763C13.173,0.069 8.116,0 7.451,0C6.386,0 5.521,0.829 5.454,1.934C5.255,4.56 5.454,6.839 5.987,8.636C4.589,10.57 3.857,12.712 3.857,14.922C3.857,19.758 7.451,24.111 12.907,26.183C12.708,26.598 12.574,27.081 12.441,27.565C6.652,26.943 3.924,21.485 3.791,21.278C3.325,20.242 2.127,19.827 1.129,20.38C0.131,20.864 -0.268,22.107 0.264,23.143C0.397,23.489 4.057,30.881 12.109,31.71L12.109,37.927C12.109,39.102 12.974,40 14.105,40L25.75,40C26.881,40 27.746,39.102 27.746,37.927L27.746,29.706C27.746,28.463 27.48,27.288 27.014,26.252C32.404,24.111 35.998,19.827 35.998,14.922Z" fill="#DBD8D7"/>
</svg>
