<svg width="40" height="42" viewBox="0 0 40 42" fill="none" xmlns="http://www.w3.org/2000/svg" xmlns:xlink="http://www.w3.org/1999/xlink">
<path d="M38.533,1.04C37.866,0.243 36.733,0.044 35.866,0.642L32,3.299C30.2,1.373 27.666,0.309 24.933,0.309C19.533,0.309 15.066,4.695 15.066,10.143C15.066,10.941 15.133,11.672 15.333,12.402C10.666,11.406 7.866,8.017 6.8,1.904C6.666,1.107 6.066,0.509 5.266,0.309C4.533,0.11 3.733,0.442 3.266,1.04C3.133,1.173 -7.867,16.456 8.066,29.412C6.533,32.668 1.933,35.459 0.133,36.389C-0.734,36.788 -1.134,37.718 -0.934,38.648C-0.734,39.578 0.066,40.176 1,40.176L4.466,40.176C24.733,40.176 33.933,30.143 34.133,7.685L38.333,3.698C39.133,3.034 39.2,1.838 38.533,1.04Z" fill="#FFFFFF"/>
</svg>
