<svg width="32" height="50" viewBox="0 0 32 50" fill="none" xmlns="http://www.w3.org/2000/svg" xmlns:xlink="http://www.w3.org/1999/xlink">
<path d="M26.459,21.283C28.286,21.598 29.551,22.544 30.254,23.806C30.957,25.067 31.378,27.275 31.378,30.114C31.378,35.791 29.832,40.522 26.74,44.149C23.649,47.776 19.714,49.668 14.936,49.668C13.109,49.668 11.282,49.353 9.455,48.564C7.628,47.776 6.222,46.672 4.958,45.41C3.552,43.991 2.428,42.256 1.725,40.679C1.163,38.945 0.741,37.21 0.741,35.475C0.741,33.583 1.163,32.006 1.866,30.902C2.568,29.798 3.833,29.168 5.379,28.694C5.098,27.906 4.817,27.275 4.676,26.644C4.536,26.171 4.395,25.698 4.395,25.383C4.395,24.437 4.817,23.333 5.801,22.229C6.784,21.125 7.628,20.652 8.471,20.652C8.893,20.652 9.174,20.652 9.595,20.81C10.017,20.967 10.438,21.125 11.001,21.598C9.736,16.867 8.471,12.925 7.768,10.244C7.066,7.563 6.784,5.828 6.784,4.725C6.784,3.305 7.066,2.201 7.768,1.413C8.33,0.624 9.314,0.151 10.438,0.151C12.265,0.151 14.654,4.882 17.606,14.502C18.168,16.079 18.449,17.34 18.73,18.286C19.011,17.656 19.292,16.552 19.714,15.29C22.665,5.828 25.195,1.098 27.162,1.098C28.146,1.098 28.989,1.413 29.692,2.201C30.254,2.99 30.675,4.094 30.675,5.355C30.675,6.302 30.394,8.194 29.692,10.875C28.849,13.556 27.865,17.025 26.459,21.283ZM4.817,35.16C5.098,35.475 5.52,36.106 5.941,36.895C7.206,38.945 8.471,40.049 9.595,40.049C10.017,40.049 10.298,39.891 10.579,39.576C10.86,39.26 11.001,38.945 11.001,38.787C11.001,38.472 10.86,37.841 10.438,37.052C10.017,36.264 9.455,35.318 8.752,34.372C7.909,33.268 7.206,32.321 6.784,31.848C6.222,31.375 5.801,31.06 5.52,31.06C4.817,31.06 4.114,31.533 3.552,32.321C2.99,33.11 2.709,34.214 2.709,35.318C2.709,36.264 2.849,37.21 3.271,38.472C3.693,39.576 4.255,40.837 5.098,41.941C6.363,43.518 7.768,44.937 9.595,45.883C11.422,46.83 13.249,47.303 15.498,47.303C19.433,47.303 22.665,45.726 25.335,42.414C28.005,39.102 29.27,35.002 29.27,29.956C29.27,28.379 29.13,27.275 28.989,26.329C28.849,25.383 28.427,24.752 28.005,24.437C27.162,23.648 25.616,23.017 23.227,22.387C20.838,21.756 18.308,21.44 15.779,21.44C15.076,21.44 14.514,21.598 14.233,21.914C13.952,22.229 13.811,22.702 13.811,23.333C13.811,24.91 14.514,26.014 16.06,26.644C17.606,27.275 20.135,27.748 23.508,27.748L24.773,27.748C25.054,27.748 25.335,27.906 25.476,28.064C25.616,28.379 25.757,28.694 25.757,29.168C25.476,29.483 24.773,29.956 23.649,30.429C22.524,30.902 21.822,31.375 21.26,31.848C19.995,32.795 19.011,34.056 18.308,35.475C17.606,36.895 17.184,38.156 17.184,39.418C17.184,40.206 17.325,40.995 17.606,42.099C17.887,43.203 18.027,43.833 18.027,43.991L18.027,44.306L18.027,44.622C17.184,44.622 16.481,43.991 15.919,42.887C15.357,41.783 15.217,40.364 15.217,38.472L15.217,38.156C15.076,38.314 14.936,38.472 14.795,38.472C14.654,38.472 14.514,38.629 14.233,38.629L13.671,38.629C13.53,38.629 13.39,38.472 13.109,38.472C13.109,38.787 13.249,38.945 13.249,39.26L13.249,39.891C13.249,40.679 12.968,41.468 12.406,42.099C11.844,42.729 11.141,43.045 10.298,43.045C9.033,43.045 7.768,42.414 6.363,40.995C5.098,39.576 4.395,38.314 4.395,36.895C4.395,36.579 4.395,36.422 4.536,36.264C4.536,35.475 4.676,35.318 4.817,35.16ZM13.952,35.949C14.233,35.949 14.654,35.791 14.936,35.475C15.217,35.16 15.357,34.687 15.357,34.372C15.357,33.898 15.076,32.952 14.514,31.375C13.952,29.798 13.249,28.221 12.406,26.802C11.844,25.698 11.141,24.752 10.579,24.279C10.017,23.648 9.455,23.49 8.893,23.49C8.471,23.49 8.049,23.806 7.487,24.437C6.925,25.067 6.784,25.541 6.784,26.171C6.784,26.644 7.066,27.591 7.487,28.694C8.049,29.798 8.611,30.902 9.455,32.164C10.298,33.425 11.141,34.529 11.984,35.318C12.828,35.633 13.39,35.949 13.952,35.949ZM16.903,19.548L13.53,8.982C12.687,6.302 12.125,4.409 11.563,3.621C11.141,2.832 10.719,2.359 10.157,2.359C9.736,2.359 9.455,2.517 9.174,2.832C8.752,3.305 8.611,3.778 8.611,4.409C8.611,5.513 9.033,7.248 9.736,9.771C10.438,12.294 11.563,15.763 12.968,19.863C13.109,19.548 13.249,19.39 13.53,19.39C13.811,19.233 14.092,19.233 14.373,19.233L15.076,19.233C15.498,19.39 16.06,19.39 16.903,19.548ZM20.276,29.798C19.433,29.798 18.589,29.641 17.746,29.483C16.903,29.325 16.2,29.168 15.498,28.852C15.779,29.641 16.06,30.271 16.341,31.06C16.622,31.848 16.763,32.479 16.903,33.268C17.325,32.637 17.887,32.006 18.449,31.375C19.152,30.745 19.714,30.271 20.276,29.798ZM24.351,20.652C25.757,16.552 26.74,13.082 27.584,10.402C28.286,7.721 28.708,6.144 28.708,5.513C28.708,4.882 28.567,4.409 28.286,3.936C28.005,3.621 27.724,3.463 27.303,3.463C26.74,3.463 26.178,3.936 25.616,5.04C25.054,6.144 24.351,7.721 23.649,10.086L20.557,19.863L24.351,20.652Z" fill="#FFFFFF"/>
</svg>
