<svg width="48" height="48" viewBox="0 0 48 48" fill="none" xmlns="http://www.w3.org/2000/svg" xmlns:xlink="http://www.w3.org/1999/xlink">
<path d="M44.538,-1L3.462,-1C1.55,-1 0,0.55 0,2.462L0,43.538C0,45.45 1.55,47 3.462,47L44.538,47C46.45,47 48,45.45 48,43.538L48,2.462C48,0.55 46.45,-1 44.538,-1L44.538,-1ZM17.026,35.281L11.181,35.281L11.181,17.696L17.026,17.696L17.026,35.281ZM14.104,15.295L14.065,15.295C12.104,15.295 10.835,13.945 10.835,12.257C10.835,10.532 12.143,9.219 14.142,9.219C16.142,9.219 17.372,10.532 17.41,12.257C17.41,13.945 16.142,15.295 14.104,15.295ZM38.102,35.281L32.258,35.281L32.258,25.874C32.258,23.509 31.411,21.897 29.297,21.897C27.682,21.897 26.72,22.985 26.298,24.035C26.143,24.41 26.105,24.935 26.105,25.461L26.105,35.281L20.261,35.281C20.261,35.281 20.337,19.346 20.261,17.696L26.105,17.696L26.105,20.186C26.882,18.988 28.272,17.283 31.373,17.283C35.219,17.283 38.102,19.797 38.102,25.198L38.102,35.281Z" fill="#FFFFFF"/>
</svg>
