<svg width="144" height="204" viewBox="0 0 144 204" fill="none" xmlns="http://www.w3.org/2000/svg" xmlns:xlink="http://www.w3.org/1999/xlink">
<path d="M56.595,1.604C29.593,7.247 7.699,28.931 1.938,56.101C-2.927,79.044 3.068,102.078 18.384,119.296C25.871,127.712 30.165,138.822 30.165,149.807L30.165,161.76C30.165,169.713 35.371,176.469 42.553,178.809C44.915,192.765 57.028,203.993 72.001,203.993C86.97,203.993 99.085,192.768 101.448,178.809C108.63,176.469 113.837,169.713 113.837,161.76L113.837,149.807C113.837,138.8 118.145,127.824 125.966,118.9C137.415,105.84 143.719,89.081 143.719,71.713C143.719,26.465 102.302,-7.945 56.595,1.604ZM72.001,192.042C64.318,192.042 57.582,186.755 55.095,179.65L88.906,179.65C86.419,186.755 79.683,192.042 72.001,192.042ZM101.884,161.76C101.884,165.056 99.202,167.737 95.907,167.737L48.094,167.737C44.799,167.737 42.118,165.056 42.118,161.76L42.118,155.784L101.884,155.784L101.884,161.76ZM116.977,111.022C108.642,120.532 103.514,131.999 102.212,143.831L41.79,143.831C40.491,131.992 35.376,120.412 27.316,111.352C14.551,97.001 9.563,77.767 13.631,58.581C18.38,36.183 36.629,17.988 59.04,13.305C97.3,5.31 131.766,34.042 131.766,71.713C131.766,86.182 126.514,100.142 116.977,111.022Z" fill="#FFFFFF"/>
</svg>
