<svg width="42" height="32" viewBox="0 0 42 32" fill="none" xmlns="http://www.w3.org/2000/svg" xmlns:xlink="http://www.w3.org/1999/xlink">
<path d="M36.938,3.585L40.13,0.5L40.13,-0.176L29.073,-0.176L21.193,19.644L12.228,-0.176L0.635,-0.176L0.635,0.5L4.363,5.035C4.727,5.37 4.917,5.86 4.868,6.354L4.868,24.178C4.983,24.82 4.777,25.48 4.33,25.946L0.13,31.09L0.13,31.757L12.038,31.757L12.038,31.081L7.838,25.946C7.383,25.478 7.168,24.83 7.26,24.178L7.26,8.761L17.713,31.765L18.928,31.765L27.916,8.761L27.916,27.087C27.916,27.57 27.916,27.669 27.603,27.986L24.37,31.147L24.37,31.824L40.056,31.824L40.056,31.149L36.94,28.065C36.666,27.856 36.525,27.506 36.583,27.166L36.583,4.484C36.525,4.143 36.665,3.792 36.938,3.585L36.938,3.585Z" fill="#505F79"/>
</svg>
