<svg width="26" height="34" viewBox="0 0 26 34" fill="none" xmlns="http://www.w3.org/2000/svg" xmlns:xlink="http://www.w3.org/1999/xlink">
<path d="M13.288,0.069C6.31,0.069 0.576,5.724 0.576,12.759L0.576,32.621C0.576,33.379 1.198,34 1.958,34L9.143,34C9.903,34 10.524,33.379 10.524,32.621L10.524,13.31C10.524,11.793 11.768,10.552 13.288,10.552C14.808,10.552 16.051,11.793 16.051,13.31L16.051,32.621C16.051,33.379 16.673,34 17.433,34L24.618,34C25.378,34 25.999,33.379 25.999,32.621L25.999,12.759C25.999,5.793 20.334,0.069 13.288,0.069Z" fill="#DBD8D7"/>
</svg>
