<svg width="26" height="34" viewBox="0 0 26 34" fill="none" xmlns="http://www.w3.org/2000/svg" xmlns:xlink="http://www.w3.org/1999/xlink">
<path d="M12.289,0.069C5.311,0.069 -0.423,5.724 -0.423,12.759L-0.423,32.621C-0.423,33.379 0.199,34 0.959,34L8.144,34C8.904,34 9.525,33.379 9.525,32.621L9.525,13.31C9.525,11.793 10.769,10.552 12.289,10.552C13.809,10.552 15.052,11.793 15.052,13.31L15.052,32.621C15.052,33.379 15.674,34 16.434,34L23.618,34C24.378,34 25,33.379 25,32.621L25,12.759C25,5.793 19.335,0.069 12.289,0.069Z" fill="#FFFFFF"/>
</svg>
