<svg width="26" height="34" viewBox="0 0 26 34" fill="none" xmlns="http://www.w3.org/2000/svg" xmlns:xlink="http://www.w3.org/1999/xlink">
<path d="M13.289,0.069C6.311,0.069 0.577,5.724 0.577,12.759L0.577,32.621C0.577,33.379 1.199,34 1.959,34L9.144,34C9.904,34 10.525,33.379 10.525,32.621L10.525,13.31C10.525,11.793 11.769,10.552 13.289,10.552C14.809,10.552 16.052,11.793 16.052,13.31L16.052,32.621C16.052,33.379 16.674,34 17.434,34L24.619,34C25.379,34 26,33.379 26,32.621L26,12.759C26,5.793 20.335,0.069 13.289,0.069Z" fill="#FFFFFF"/>
</svg>
