<svg width="40" height="40" viewBox="0 0 40 40" fill="none" xmlns="http://www.w3.org/2000/svg" xmlns:xlink="http://www.w3.org/1999/xlink">
<path d="M39.533,0.739C38.866,-0.058 37.733,-0.257 36.866,0.341L33,2.998C31.2,1.072 28.666,0.008 25.933,0.008C20.533,0.008 16.066,4.394 16.066,9.842C16.066,10.64 16.133,11.37 16.333,12.101C11.666,11.105 8.866,7.716 7.8,1.603C7.666,0.806 7.066,0.208 6.266,0.008C5.533,-0.191 4.733,0.141 4.266,0.739C4.133,0.872 -6.867,16.155 9.066,29.111C7.533,32.367 2.933,35.158 1.133,36.088C0.266,36.487 -0.134,37.417 0.066,38.347C0.266,39.277 1.066,39.875 2,39.875L5.466,39.875C25.733,39.875 34.933,29.842 35.133,7.384L39.333,3.397C40.133,2.733 40.2,1.537 39.533,0.739Z" fill="#505F79"/>
</svg>
