<svg width="32" height="12" viewBox="0 0 32 12" fill="none" xmlns="http://www.w3.org/2000/svg" xmlns:xlink="http://www.w3.org/1999/xlink">
<path d="M26.459,5.257C28.286,5.323 29.551,5.523 30.254,5.789C30.956,6.055 31.378,6.521 31.378,7.12C31.378,8.318 29.832,9.317 26.74,10.082C23.648,10.848 19.714,11.247 14.935,11.247C13.108,11.247 11.281,11.181 9.454,11.014C7.627,10.848 6.222,10.615 4.957,10.349C3.552,10.049 2.428,9.683 1.725,9.35C1.163,8.984 0.741,8.618 0.741,8.252C0.741,7.852 1.163,7.52 1.865,7.287C2.568,7.054 3.833,6.921 5.379,6.821C5.098,6.654 4.817,6.521 4.676,6.388C4.536,6.288 4.395,6.188 4.395,6.122C4.395,5.922 4.817,5.689 5.8,5.456C6.784,5.223 7.627,5.123 8.471,5.123C8.892,5.123 9.173,5.123 9.595,5.157C10.017,5.19 10.438,5.223 11,5.323C9.735,4.325 8.471,3.493 7.768,2.927C7.065,2.361 6.784,1.995 6.784,1.762C6.784,1.462 7.065,1.23 7.768,1.063C8.33,0.897 9.314,0.797 10.438,0.797C12.265,0.797 14.654,1.795 17.605,3.825C18.168,4.158 18.449,4.425 18.73,4.624C19.011,4.491 19.292,4.258 19.714,3.992C22.665,1.995 25.194,0.997 27.162,0.997C28.146,0.997 28.989,1.063 29.692,1.23C30.254,1.396 30.675,1.629 30.675,1.895C30.675,2.095 30.394,2.494 29.692,3.06C28.848,3.626 27.865,4.358 26.459,5.257ZM4.817,8.185C5.098,8.252 5.519,8.385 5.941,8.551C7.206,8.984 8.471,9.217 9.595,9.217C10.017,9.217 10.298,9.184 10.579,9.117C10.86,9.051 11,8.984 11,8.951C11,8.884 10.86,8.751 10.438,8.585C10.017,8.418 9.454,8.219 8.752,8.019C7.909,7.786 7.206,7.586 6.784,7.486C6.222,7.387 5.8,7.32 5.519,7.32C4.817,7.32 4.114,7.42 3.552,7.586C2.99,7.753 2.709,7.986 2.709,8.219C2.709,8.418 2.849,8.618 3.271,8.884C3.692,9.117 4.255,9.383 5.098,9.616C6.363,9.949 7.768,10.249 9.595,10.448C11.422,10.648 13.249,10.748 15.497,10.748C19.432,10.748 22.665,10.415 25.335,9.716C28.005,9.017 29.27,8.152 29.27,7.087C29.27,6.754 29.129,6.521 28.989,6.322C28.848,6.122 28.427,5.989 28.005,5.922C27.162,5.756 25.616,5.623 23.227,5.49C20.838,5.356 18.308,5.29 15.779,5.29C15.076,5.29 14.514,5.323 14.233,5.39C13.952,5.456 13.811,5.556 13.811,5.689C13.811,6.022 14.514,6.255 16.06,6.388C17.605,6.521 20.135,6.621 23.508,6.621L24.773,6.621C25.054,6.621 25.335,6.654 25.475,6.688C25.616,6.754 25.757,6.821 25.757,6.921C25.475,6.987 24.773,7.087 23.648,7.187C22.524,7.287 21.822,7.387 21.259,7.486C19.995,7.686 19.011,7.952 18.308,8.252C17.605,8.551 17.184,8.818 17.184,9.084C17.184,9.25 17.324,9.417 17.605,9.65C17.887,9.883 18.027,10.016 18.027,10.049L18.027,10.116L18.027,10.182C17.184,10.182 16.481,10.049 15.919,9.816C15.357,9.583 15.216,9.284 15.216,8.884L15.216,8.818C15.076,8.851 14.935,8.884 14.795,8.884C14.654,8.884 14.514,8.917 14.233,8.917L13.67,8.917C13.53,8.917 13.389,8.884 13.108,8.884C13.108,8.951 13.249,8.984 13.249,9.051L13.249,9.184C13.249,9.35 12.968,9.517 12.406,9.65C11.844,9.783 11.141,9.849 10.298,9.849C9.033,9.849 7.768,9.716 6.363,9.417C5.098,9.117 4.395,8.851 4.395,8.551C4.395,8.485 4.395,8.452 4.536,8.418C4.536,8.252 4.676,8.219 4.817,8.185ZM13.952,8.352C14.233,8.352 14.654,8.318 14.935,8.252C15.216,8.185 15.357,8.085 15.357,8.019C15.357,7.919 15.076,7.719 14.514,7.387C13.952,7.054 13.249,6.721 12.406,6.421C11.844,6.188 11.141,5.989 10.579,5.889C10.017,5.756 9.454,5.722 8.892,5.722C8.471,5.722 8.049,5.789 7.487,5.922C6.925,6.055 6.784,6.155 6.784,6.288C6.784,6.388 7.065,6.588 7.487,6.821C8.049,7.054 8.611,7.287 9.454,7.553C10.298,7.819 11.141,8.052 11.984,8.219C12.827,8.285 13.389,8.352 13.952,8.352ZM16.903,4.89L13.53,2.661C12.687,2.095 12.125,1.695 11.562,1.529C11.141,1.363 10.719,1.263 10.157,1.263C9.735,1.263 9.454,1.296 9.173,1.363C8.752,1.462 8.611,1.562 8.611,1.695C8.611,1.928 9.033,2.295 9.735,2.827C10.438,3.36 11.562,4.092 12.968,4.957C13.108,4.89 13.249,4.857 13.53,4.857C13.811,4.824 14.092,4.824 14.373,4.824L15.076,4.824C15.497,4.857 16.06,4.857 16.903,4.89ZM20.276,7.054C19.432,7.054 18.589,7.02 17.746,6.987C16.903,6.954 16.2,6.921 15.497,6.854C15.779,7.02 16.06,7.154 16.341,7.32C16.622,7.486 16.762,7.619 16.903,7.786C17.324,7.653 17.887,7.52 18.449,7.387C19.151,7.253 19.714,7.154 20.276,7.054ZM24.351,5.123C25.757,4.258 26.74,3.526 27.583,2.96C28.286,2.394 28.708,2.062 28.708,1.928C28.708,1.795 28.567,1.695 28.286,1.596C28.005,1.529 27.724,1.496 27.302,1.496C26.74,1.496 26.178,1.596 25.616,1.829C25.054,2.062 24.351,2.394 23.648,2.894L20.557,4.957L24.351,5.123Z" fill="#FFFFFF"/>
</svg>
