<svg width="32" height="46" viewBox="0 0 32 46" fill="none" xmlns="http://www.w3.org/2000/svg" xmlns:xlink="http://www.w3.org/1999/xlink">
<path d="M26.459,18.752C28.286,19.033 29.551,19.876 30.254,21C30.956,22.125 31.378,24.092 31.378,26.622C31.378,31.681 29.832,35.897 26.74,39.129C23.648,42.362 19.714,44.048 14.935,44.048C13.108,44.048 11.281,43.767 9.454,43.064C7.627,42.362 6.222,41.378 4.957,40.254C3.552,38.989 2.428,37.443 1.725,36.038C1.163,34.492 0.741,32.946 0.741,31.4C0.741,29.714 1.163,28.308 1.865,27.324C2.568,26.341 3.833,25.779 5.379,25.357C5.098,24.654 4.817,24.092 4.676,23.53C4.536,23.108 4.395,22.687 4.395,22.406C4.395,21.562 4.817,20.579 5.8,19.595C6.784,18.611 7.627,18.19 8.471,18.19C8.892,18.19 9.173,18.19 9.595,18.33C10.017,18.471 10.438,18.611 11,19.033C9.735,14.817 8.471,11.303 7.768,8.914C7.065,6.525 6.784,4.979 6.784,3.995C6.784,2.731 7.065,1.747 7.768,1.044C8.33,0.342 9.314,-0.08 10.438,-0.08C12.265,-0.08 14.654,4.136 17.605,12.709C18.168,14.114 18.449,15.238 18.73,16.082C19.011,15.519 19.292,14.536 19.714,13.411C22.665,4.979 25.194,0.763 27.162,0.763C28.146,0.763 28.989,1.044 29.692,1.747C30.254,2.45 30.675,3.433 30.675,4.558C30.675,5.401 30.394,7.087 29.692,9.476C28.848,11.865 27.865,14.957 26.459,18.752ZM4.817,31.119C5.098,31.4 5.519,31.962 5.941,32.665C7.206,34.492 8.471,35.475 9.595,35.475C10.017,35.475 10.298,35.335 10.579,35.054C10.86,34.773 11,34.492 11,34.351C11,34.07 10.86,33.508 10.438,32.805C10.017,32.103 9.454,31.259 8.752,30.416C7.909,29.432 7.206,28.589 6.784,28.168C6.222,27.746 5.8,27.465 5.519,27.465C4.817,27.465 4.114,27.887 3.552,28.589C2.99,29.292 2.709,30.276 2.709,31.259C2.709,32.103 2.849,32.946 3.271,34.07C3.692,35.054 4.255,36.178 5.098,37.162C6.363,38.567 7.768,39.832 9.595,40.675C11.422,41.519 13.249,41.94 15.497,41.94C19.432,41.94 22.665,40.535 25.335,37.584C28.005,34.632 29.27,30.978 29.27,26.481C29.27,25.076 29.129,24.092 28.989,23.249C28.848,22.406 28.427,21.844 28.005,21.562C27.162,20.86 25.616,20.298 23.227,19.735C20.838,19.173 18.308,18.892 15.779,18.892C15.076,18.892 14.514,19.033 14.233,19.314C13.952,19.595 13.811,20.017 13.811,20.579C13.811,21.984 14.514,22.968 16.06,23.53C17.605,24.092 20.135,24.514 23.508,24.514L24.773,24.514C25.054,24.514 25.335,24.654 25.475,24.795C25.616,25.076 25.757,25.357 25.757,25.779C25.475,26.06 24.773,26.481 23.648,26.903C22.524,27.324 21.822,27.746 21.259,28.168C19.995,29.011 19.011,30.135 18.308,31.4C17.605,32.665 17.184,33.789 17.184,34.913C17.184,35.616 17.324,36.319 17.605,37.302C17.887,38.286 18.027,38.848 18.027,38.989L18.027,39.27L18.027,39.551C17.184,39.551 16.481,38.989 15.919,38.005C15.357,37.021 15.216,35.757 15.216,34.07L15.216,33.789C15.076,33.93 14.935,34.07 14.795,34.07C14.654,34.07 14.514,34.211 14.233,34.211L13.67,34.211C13.53,34.211 13.389,34.07 13.108,34.07C13.108,34.351 13.249,34.492 13.249,34.773L13.249,35.335C13.249,36.038 12.968,36.74 12.406,37.302C11.844,37.865 11.141,38.146 10.298,38.146C9.033,38.146 7.768,37.584 6.363,36.319C5.098,35.054 4.395,33.93 4.395,32.665C4.395,32.384 4.395,32.243 4.536,32.103C4.536,31.4 4.676,31.259 4.817,31.119ZM13.952,31.822C14.233,31.822 14.654,31.681 14.935,31.4C15.216,31.119 15.357,30.697 15.357,30.416C15.357,29.995 15.076,29.151 14.514,27.746C13.952,26.341 13.249,24.935 12.406,23.671C11.844,22.687 11.141,21.844 10.579,21.422C10.017,20.86 9.454,20.719 8.892,20.719C8.471,20.719 8.049,21 7.487,21.562C6.925,22.125 6.784,22.546 6.784,23.108C6.784,23.53 7.065,24.373 7.487,25.357C8.049,26.341 8.611,27.324 9.454,28.449C10.298,29.573 11.141,30.557 11.984,31.259C12.827,31.54 13.389,31.822 13.952,31.822ZM16.903,17.206L13.53,7.79C12.687,5.401 12.125,3.714 11.562,3.012C11.141,2.309 10.719,1.887 10.157,1.887C9.735,1.887 9.454,2.028 9.173,2.309C8.752,2.731 8.611,3.152 8.611,3.714C8.611,4.698 9.033,6.244 9.735,8.493C10.438,10.741 11.562,13.833 12.968,17.487C13.108,17.206 13.249,17.065 13.53,17.065C13.811,16.925 14.092,16.925 14.373,16.925L15.076,16.925C15.497,17.065 16.06,17.065 16.903,17.206ZM20.276,26.341C19.432,26.341 18.589,26.2 17.746,26.06C16.903,25.919 16.2,25.779 15.497,25.497C15.779,26.2 16.06,26.762 16.341,27.465C16.622,28.168 16.762,28.73 16.903,29.432C17.324,28.87 17.887,28.308 18.449,27.746C19.151,27.184 19.714,26.762 20.276,26.341ZM24.351,18.19C25.757,14.536 26.74,11.444 27.583,9.055C28.286,6.666 28.708,5.26 28.708,4.698C28.708,4.136 28.567,3.714 28.286,3.293C28.005,3.012 27.724,2.871 27.302,2.871C26.74,2.871 26.178,3.293 25.616,4.277C25.054,5.26 24.351,6.666 23.648,8.774L20.557,17.487L24.351,18.19Z" fill="#FFFFFF"/>
</svg>
