<svg width="30" height="40" viewBox="0 0 30 40" fill="none" xmlns="http://www.w3.org/2000/svg" xmlns:xlink="http://www.w3.org/1999/xlink">
<path d="M13.928,40C23.322,40 29.167,33.078 29.167,24.148C29.167,20.782 28.618,17.742 24.797,16.828C25.727,14.282 28.41,6.915 28.41,4.555C28.41,2.477 27.16,0.735 24.932,0.735C21.38,0.735 18.197,11.023 17.2,13.477C16.428,11.25 12.815,0 9.63,0C7.155,0 5.993,1.788 5.993,4.038C5.993,6.797 8.715,13.945 9.702,16.695C9.202,16.515 8.66,16.358 8.108,16.358C6.245,16.358 4.263,18.632 4.263,20.468C4.263,21.163 4.653,22.14 4.9,22.788C1.963,23.57 0.833,25.492 0.833,28.39C0.825,34.03 6.272,40 13.928,40L13.928,40ZM21.978,8.438C22.298,7.477 23.658,3.415 24.932,3.415C25.617,3.415 25.8,4.11 25.8,4.665C25.8,6.157 22.728,14.4 22.05,16.227L19.343,15.758L21.978,8.438ZM8.493,3.775L8.493,3.773C8.493,2.843 9.648,0.203 12.178,7.453L14.933,15.29C13.692,15.188 12.728,15.055 12.117,15.4C11.248,13.15 8.493,6.048 8.493,3.775L8.493,3.775ZM8.31,19.062L8.312,19.063C10.643,19.063 13.653,26.453 13.653,27.453C13.653,27.852 13.263,28.343 12.81,28.343C11.145,28.343 6.687,22.335 6.687,20.71C6.693,20.108 7.697,19.062 8.31,19.062L8.31,19.062ZM5.63,25.178C6.537,25.178 9.952,29.89 9.952,30.89C9.952,31.273 9.338,31.538 9.022,31.538C7.74,31.538 7.238,30.327 4.955,27.523C2.59,29.843 6.587,34.312 9.597,34.312C11.673,34.312 13.027,32.422 12.622,31.03C12.917,31.03 13.282,31.053 13.553,30.983C13.642,33.1 14.278,35.623 16.873,35.803C16.873,35.733 17.033,35.248 17.033,35.225C17.033,33.865 16.19,32.678 16.19,31.295C16.19,29.083 17.917,26.943 19.668,25.693C20.305,25.225 21.078,24.935 21.825,24.67C22.598,24.382 23.418,24.045 24.005,23.467C23.917,22.592 23.552,21.818 22.66,21.818C20.455,21.818 13.06,22.132 13.06,18.717C13.06,18.193 13.068,17.693 14.447,17.693C17.018,17.693 23.547,18.318 25.457,19.967C26.897,21.225 27.392,28.81 22.988,33.615L22.983,33.617C20.667,36.117 17.705,37.413 14.25,37.413C9.522,37.413 5.787,34.867 3.988,30.515C2.627,27.125 4.292,25.178 5.63,25.178L5.63,25.178ZM15.132,23.772C15.907,24.015 16.702,24.087 17.498,24.242C16.908,24.663 16.385,25.18 15.882,25.733C15.658,25.07 15.387,24.422 15.132,23.772Z" fill="#FFFFFF"/>
</svg>
