<svg width="48" height="46" viewBox="0 0 48 46" fill="none" xmlns="http://www.w3.org/2000/svg" xmlns:xlink="http://www.w3.org/1999/xlink">
<path d="M24,0C10.74,0 0,10.56 0,23.584C0,34.006 6.876,42.844 16.41,45.96C17.61,46.182 18.05,45.452 18.05,44.826C18.05,44.266 18.03,42.782 18.02,40.816C11.344,42.238 9.936,37.652 9.936,37.652C8.844,34.93 7.266,34.202 7.266,34.202C5.092,32.74 7.434,32.77 7.434,32.77C9.844,32.934 11.11,35.2 11.11,35.2C13.25,38.806 16.728,37.764 18.1,37.162C18.316,35.636 18.934,34.598 19.62,34.008C14.29,33.418 8.688,31.39 8.688,22.354C8.688,19.78 9.618,17.676 11.158,16.026C10.888,15.43 10.078,13.032 11.368,9.784C11.368,9.784 13.378,9.152 17.968,12.202C19.888,11.678 21.928,11.418 23.968,11.406C26.008,11.418 28.048,11.678 29.968,12.202C34.528,9.152 36.538,9.784 36.538,9.784C37.828,13.032 37.018,15.43 36.778,16.026C38.308,17.676 39.238,19.78 39.238,22.354C39.238,31.414 33.628,33.408 28.288,33.988C29.128,34.696 29.908,36.142 29.908,38.352C29.908,41.508 29.878,44.044 29.878,44.81C29.878,45.428 30.298,46.166 31.528,45.93C41.13,42.834 48,33.99 48,23.584C48,10.56 37.254,0 24,0L24,0Z" fill="#FFFFFF"/>
</svg>
