<svg width="28" height="34" viewBox="0 0 28 34" fill="none" xmlns="http://www.w3.org/2000/svg" xmlns:xlink="http://www.w3.org/1999/xlink">
<path d="M13.419,-0.107C6.441,-0.107 0.707,5.548 0.707,12.582L0.707,32.444C0.707,33.203 1.329,33.824 2.089,33.824L9.274,33.824C10.033,33.824 10.655,33.203 10.655,32.444L10.655,13.134C10.655,11.617 11.899,10.375 13.419,10.375C14.938,10.375 16.182,11.617 16.182,13.134L16.182,32.444C16.182,33.203 16.804,33.824 17.564,33.824L24.748,33.824C25.508,33.824 26.13,33.203 26.13,32.444L26.13,12.582C26.13,5.617 20.465,-0.107 13.419,-0.107Z" fill="#505F79"/>
</svg>
