<svg width="36" height="40" viewBox="0 0 36 40" fill="none" xmlns="http://www.w3.org/2000/svg" xmlns:xlink="http://www.w3.org/1999/xlink">
<path d="M35.97,14.922C35.97,12.642 35.238,10.501 33.841,8.636C34.373,6.839 34.506,4.56 34.373,1.934C34.307,0.829 33.442,0 32.377,0C31.778,0 26.721,0.069 23.793,2.763C21.264,2.28 18.603,2.28 16.007,2.763C13.146,0.069 8.089,0 7.423,0C6.359,0 5.494,0.829 5.427,1.934C5.227,4.56 5.427,6.839 5.959,8.636C4.562,10.57 3.83,12.712 3.83,14.922C3.83,19.758 7.423,24.111 12.88,26.183C12.68,26.598 12.547,27.081 12.414,27.565C6.625,26.943 3.896,21.485 3.763,21.278C3.298,20.242 2.1,19.827 1.102,20.38C0.103,20.864 -0.296,22.107 0.237,23.143C0.37,23.489 4.03,30.881 12.081,31.71L12.081,37.927C12.081,39.102 12.946,40 14.078,40L25.723,40C26.854,40 27.719,39.102 27.719,37.927L27.719,29.706C27.719,28.463 27.453,27.288 26.987,26.252C32.377,24.111 35.97,19.827 35.97,14.922Z" fill="#505F79"/>
</svg>
