<svg width="36" height="40" viewBox="0 0 36 40" fill="none" xmlns="http://www.w3.org/2000/svg" xmlns:xlink="http://www.w3.org/1999/xlink">
<path d="M34.998,14.922C34.998,12.642 34.266,10.501 32.869,8.636C33.401,6.839 33.534,4.56 33.401,1.934C33.335,0.829 32.47,0 31.405,0C30.806,0 25.749,0.069 22.821,2.763C20.292,2.28 17.63,2.28 15.035,2.763C12.174,0.069 7.117,0 6.451,0C5.386,0 4.521,0.829 4.455,1.934C4.255,4.56 4.455,6.839 4.987,8.636C3.59,10.57 2.858,12.712 2.858,14.922C2.858,19.758 6.451,24.111 11.908,26.183C11.708,26.598 11.575,27.081 11.442,27.565C5.653,26.943 2.924,21.485 2.791,21.278C2.325,20.242 1.128,19.827 0.13,20.38C-0.869,20.864 -1.268,22.107 -0.735,23.143C-0.602,23.489 3.057,30.881 11.109,31.71L11.109,37.927C11.109,39.102 11.974,40 13.106,40L24.751,40C25.882,40 26.747,39.102 26.747,37.927L26.747,29.706C26.747,28.463 26.481,27.288 26.015,26.252C31.405,24.111 34.998,19.827 34.998,14.922Z" fill="#FFFFFF"/>
</svg>
