<svg width="40" height="32" viewBox="0 0 40 32" fill="none" xmlns="http://www.w3.org/2000/svg" xmlns:xlink="http://www.w3.org/1999/xlink">
<path d="M35.808,3.761L39,0.675L39,0L27.943,0L20.063,19.82L11.098,0L-0.495,0L-0.495,0.675L3.233,5.211C3.597,5.546 3.787,6.036 3.738,6.53L3.738,24.354C3.853,24.995 3.647,25.656 3.2,26.122L-1,31.266L-1,31.933L10.908,31.933L10.908,31.257L6.708,26.122C6.253,25.654 6.038,25.005 6.13,24.354L6.13,8.936L16.583,31.941L17.798,31.941L26.787,8.936L26.787,27.262C26.787,27.746 26.787,27.845 26.473,28.162L23.24,31.323L23.24,32L38.927,32L38.927,31.325L35.81,28.241C35.537,28.032 35.395,27.682 35.453,27.341L35.453,4.66C35.395,4.318 35.535,3.968 35.808,3.761Z" fill="#FFFFFF"/>
</svg>
