<svg width="48" height="38" viewBox="0 0 48 38" fill="none" xmlns="http://www.w3.org/2000/svg" xmlns:xlink="http://www.w3.org/1999/xlink">
<path d="M44.17,4.466L48,0.802L48,0L34.732,0L25.276,23.536L14.518,0L0.606,0L0.606,0.802L5.08,6.188C5.516,6.586 5.744,7.168 5.686,7.754L5.686,28.92C5.824,29.682 5.576,30.466 5.04,31.02L0,37.128L0,37.92L14.29,37.92L14.29,37.118L9.25,31.02C8.704,30.464 8.446,29.694 8.556,28.92L8.556,10.612L21.1,37.93L22.558,37.93L33.344,10.612L33.344,32.374C33.344,32.948 33.344,33.066 32.968,33.442L29.088,37.196L29.088,38L47.912,38L47.912,37.198L44.172,33.536C43.844,33.288 43.674,32.872 43.744,32.468L43.744,5.534C43.674,5.128 43.842,4.712 44.17,4.466L44.17,4.466Z" fill="#FFFFFF"/>
</svg>
