<svg width="26" height="36" viewBox="0 0 26 36" fill="none" xmlns="http://www.w3.org/2000/svg" xmlns:xlink="http://www.w3.org/1999/xlink">
<path d="M12.289,0.37C5.311,0.37 -0.423,6.025 -0.423,13.06L-0.423,32.922C-0.423,33.681 0.199,34.301 0.959,34.301L8.144,34.301C8.904,34.301 9.525,33.681 9.525,32.922L9.525,13.611C9.525,12.094 10.769,10.853 12.289,10.853C13.809,10.853 15.052,12.094 15.052,13.611L15.052,32.922C15.052,33.681 15.674,34.301 16.434,34.301L23.619,34.301C24.379,34.301 25,33.681 25,32.922L25,13.06C25,6.094 19.335,0.37 12.289,0.37Z" fill="#A2A3AE"/>
</svg>
