<svg width="38" height="40" viewBox="0 0 38 40" fill="none" xmlns="http://www.w3.org/2000/svg" xmlns:xlink="http://www.w3.org/1999/xlink">
<path d="M36.128,14.746C36.128,12.467 35.396,10.325 33.999,8.46C34.531,6.664 34.664,4.384 34.531,1.759C34.465,0.653 33.6,-0.176 32.535,-0.176C31.936,-0.176 26.879,-0.107 23.951,2.588C21.422,2.104 18.76,2.104 16.165,2.588C13.304,-0.107 8.246,-0.176 7.581,-0.176C6.516,-0.176 5.651,0.653 5.585,1.759C5.385,4.384 5.585,6.664 6.117,8.46C4.72,10.394 3.988,12.536 3.988,14.746C3.988,19.582 7.581,23.935 13.038,26.007C12.838,26.422 12.705,26.905 12.572,27.389C6.782,26.767 4.054,21.31 3.921,21.102C3.455,20.066 2.257,19.651 1.259,20.204C0.261,20.688 -0.138,21.931 0.394,22.968C0.527,23.313 4.187,30.705 12.239,31.534L12.239,37.752C12.239,38.926 13.104,39.824 14.235,39.824L25.881,39.824C27.012,39.824 27.877,38.926 27.877,37.752L27.877,29.531C27.877,28.287 27.611,27.113 27.145,26.076C32.535,23.935 36.128,19.651 36.128,14.746Z" fill="#505F79"/>
</svg>
