<svg width="40" height="34" viewBox="0 0 40 34" fill="none" xmlns="http://www.w3.org/2000/svg" xmlns:xlink="http://www.w3.org/1999/xlink">
<path d="M35.808,4.062L39,0.976L39,0.301L27.943,0.301L20.063,20.121L11.098,0.301L-0.495,0.301L-0.495,0.976L3.233,5.512C3.597,5.847 3.787,6.337 3.738,6.831L3.738,24.655C3.853,25.296 3.647,25.957 3.2,26.423L-1,31.567L-1,32.234L10.908,32.234L10.908,31.558L6.708,26.423C6.253,25.955 6.038,25.306 6.13,24.655L6.13,9.237L16.583,32.242L17.798,32.242L26.787,9.237L26.787,27.563C26.787,28.047 26.787,28.146 26.473,28.463L23.24,31.624L23.24,32.301L38.927,32.301L38.927,31.626L35.81,28.542C35.537,28.333 35.395,27.983 35.453,27.642L35.453,4.961C35.395,4.619 35.535,4.269 35.808,4.062Z" fill="#A2A3AE"/>
</svg>
