<svg width="36" height="40" viewBox="0 0 36 40" fill="none" xmlns="http://www.w3.org/2000/svg" xmlns:xlink="http://www.w3.org/1999/xlink">
<path d="M35.999,14.922C35.999,12.642 35.267,10.501 33.869,8.636C34.402,6.839 34.535,4.56 34.402,1.934C34.335,0.829 33.47,0 32.405,0C31.807,0 26.749,0.069 23.821,2.763C21.293,2.28 18.631,2.28 16.036,2.763C13.174,0.069 8.117,0 7.452,0C6.387,0 5.522,0.829 5.455,1.934C5.256,4.56 5.455,6.839 5.988,8.636C4.59,10.57 3.858,12.712 3.858,14.922C3.858,19.758 7.452,24.111 12.908,26.183C12.709,26.598 12.575,27.081 12.442,27.565C6.653,26.943 3.925,21.485 3.792,21.278C3.326,20.242 2.128,19.827 1.13,20.38C0.132,20.864 -0.267,22.107 0.265,23.143C0.398,23.489 4.058,30.881 12.11,31.71L12.11,37.927C12.11,39.102 12.975,40 14.106,40L25.751,40C26.882,40 27.747,39.102 27.747,37.927L27.747,29.706C27.747,28.463 27.481,27.288 27.015,26.252C32.405,24.111 35.999,19.827 35.999,14.922Z" fill="#FFFFFF"/>
</svg>
