<svg width="40" height="40" viewBox="0 0 40 40" fill="none" xmlns="http://www.w3.org/2000/svg" xmlns:xlink="http://www.w3.org/1999/xlink">
<path d="M39.517,0.789C38.851,-0.008 37.717,-0.208 36.851,0.39L32.984,3.048C31.184,1.121 28.651,0.058 25.917,0.058C20.517,0.058 16.051,4.443 16.051,9.892C16.051,10.689 16.117,11.42 16.317,12.151C11.651,11.154 8.851,7.766 7.784,1.653C7.651,0.855 7.051,0.257 6.251,0.058C5.517,-0.141 4.717,0.191 4.251,0.789C4.117,0.922 -6.883,16.204 9.051,29.161C7.517,32.417 2.917,35.207 1.117,36.138C0.251,36.536 -0.149,37.466 0.051,38.397C0.251,39.327 1.051,39.925 1.984,39.925L5.451,39.925C25.717,39.925 34.917,29.892 35.117,7.433L39.317,3.447C40.117,2.782 40.184,1.586 39.517,0.789Z" fill="#505F79"/>
</svg>
