<svg width="26" height="34" viewBox="0 0 26 34" fill="none" xmlns="http://www.w3.org/2000/svg" xmlns:xlink="http://www.w3.org/1999/xlink">
<path d="M13.289,0.068C6.311,0.068 0.577,5.724 0.577,12.758L0.577,32.62C0.577,33.379 1.199,33.999 1.959,33.999L9.144,33.999C9.904,33.999 10.525,33.379 10.525,32.62L10.525,13.31C10.525,11.792 11.769,10.551 13.289,10.551C14.809,10.551 16.052,11.792 16.052,13.31L16.052,32.62C16.052,33.379 16.674,33.999 17.434,33.999L24.619,33.999C25.379,33.999 26,33.379 26,32.62L26,12.758C26,5.792 20.335,0.068 13.289,0.068Z" fill="#505F79"/>
</svg>
