<svg width="40" height="32" viewBox="0 0 40 32" fill="none" xmlns="http://www.w3.org/2000/svg" xmlns:xlink="http://www.w3.org/1999/xlink">
<path d="M36.808,3.761L40,0.675L40,0L28.943,0L21.063,19.82L12.098,0L0.505,0L0.505,0.675L4.233,5.211C4.597,5.546 4.787,6.036 4.738,6.53L4.738,24.354C4.853,24.995 4.647,25.656 4.2,26.122L0,31.266L0,31.933L11.908,31.933L11.908,31.257L7.708,26.122C7.253,25.654 7.038,25.005 7.13,24.354L7.13,8.936L17.583,31.941L18.798,31.941L27.787,8.936L27.787,27.262C27.787,27.746 27.787,27.845 27.473,28.162L24.24,31.323L24.24,32L39.927,32L39.927,31.325L36.81,28.241C36.537,28.032 36.395,27.682 36.453,27.341L36.453,4.66C36.395,4.318 36.535,3.968 36.808,3.761L36.808,3.761Z" fill="#DBD8D7"/>
</svg>
