<svg width="40" height="40" viewBox="0 0 40 40" fill="none" xmlns="http://www.w3.org/2000/svg" xmlns:xlink="http://www.w3.org/1999/xlink">
<path d="M38.533,0.739C37.866,-0.058 36.733,-0.257 35.866,0.341L31.999,2.998C30.199,1.072 27.666,0.008 24.933,0.008C19.533,0.008 15.066,4.394 15.066,9.842C15.066,10.64 15.133,11.37 15.333,12.101C10.666,11.105 7.866,7.716 6.799,1.603C6.666,0.806 6.066,0.208 5.266,0.008C4.533,-0.191 3.733,0.141 3.266,0.739C3.133,0.872 -7.867,16.155 8.066,29.111C6.533,32.367 1.933,35.158 0.133,36.088C-0.734,36.487 -1.134,37.417 -0.934,38.347C-0.734,39.277 0.066,39.875 0.999,39.875L4.466,39.875C24.733,39.875 33.933,29.842 34.133,7.384L38.333,3.397C39.133,2.733 39.199,1.537 38.533,0.739Z" fill="#FFFFFF"/>
</svg>
