<svg width="40" height="40" viewBox="0 0 40 40" fill="none" xmlns="http://www.w3.org/2000/svg" xmlns:xlink="http://www.w3.org/1999/xlink">
<path d="M39.533,0.74C38.866,-0.057 37.733,-0.257 36.866,0.341L32.999,2.999C31.199,1.072 28.666,0.009 25.933,0.009C20.533,0.009 16.066,4.394 16.066,9.843C16.066,10.64 16.132,11.371 16.332,12.102C11.666,11.105 8.866,7.717 7.799,1.604C7.666,0.806 7.066,0.208 6.266,0.009C5.532,-0.19 4.732,0.142 4.266,0.74C4.132,0.873 -6.868,16.155 9.066,29.112C7.532,32.368 2.932,35.159 1.132,36.089C0.266,36.487 -0.134,37.418 0.066,38.348C0.266,39.278 1.066,39.876 1.999,39.876L5.466,39.876C25.733,39.876 34.933,29.843 35.133,7.385L39.333,3.398C40.133,2.733 40.199,1.537 39.533,0.74Z" fill="#505F79"/>
</svg>
