<svg width="48" height="48" viewBox="0 0 48 48" fill="none" xmlns="http://www.w3.org/2000/svg" xmlns:xlink="http://www.w3.org/1999/xlink">
<path d="M44.538,0L3.462,0C1.55,0 0,1.55 0,3.462L0,44.538C0,46.45 1.55,48 3.462,48L44.538,48C46.45,48 48,46.45 48,44.538L48,3.462C48,1.55 46.45,0 44.538,0L44.538,0ZM17.026,36.281L11.181,36.281L11.181,18.696L17.026,18.696L17.026,36.281ZM14.104,16.295L14.065,16.295C12.104,16.295 10.835,14.945 10.835,13.257C10.835,11.532 12.143,10.219 14.142,10.219C16.142,10.219 17.372,11.532 17.41,13.257C17.41,14.945 16.142,16.295 14.104,16.295ZM38.102,36.281L32.258,36.281L32.258,26.874C32.258,24.509 31.411,22.897 29.297,22.897C27.682,22.897 26.72,23.985 26.298,25.035C26.143,25.41 26.105,25.935 26.105,26.461L26.105,36.281L20.261,36.281C20.261,36.281 20.337,20.346 20.261,18.696L26.105,18.696L26.105,21.186C26.882,19.988 28.272,18.283 31.373,18.283C35.219,18.283 38.102,20.797 38.102,26.198L38.102,36.281Z" fill="#FFFFFF"/>
</svg>
