<svg width="40" height="40" viewBox="0 0 40 40" fill="none" xmlns="http://www.w3.org/2000/svg" xmlns:xlink="http://www.w3.org/1999/xlink">
<path d="M39.533,0.74C38.866,-0.058 37.733,-0.257 36.866,0.341L32.999,2.999C31.199,1.072 28.666,0.009 25.933,0.009C20.533,0.009 16.066,4.394 16.066,9.843C16.066,10.64 16.133,11.371 16.333,12.102C11.666,11.105 8.866,7.716 7.799,1.603C7.666,0.806 7.066,0.208 6.266,0.009C5.533,-0.191 4.733,0.142 4.266,0.74C4.133,0.872 -6.867,16.155 9.066,29.111C7.533,32.367 2.933,35.158 1.133,36.088C0.266,36.487 -0.134,37.417 0.066,38.347C0.266,39.278 1.066,39.876 1.999,39.876L5.466,39.876C25.733,39.876 34.933,29.842 35.133,7.384L39.333,3.397C40.133,2.733 40.199,1.537 39.533,0.74Z" fill="#FFFFFF"/>
</svg>
