<svg width="30" height="40" viewBox="0 0 30 40" fill="none" xmlns="http://www.w3.org/2000/svg" xmlns:xlink="http://www.w3.org/1999/xlink">
<path d="M13.058,39.824C22.452,39.824 28.297,32.903 28.297,23.973C28.297,20.606 27.748,17.566 23.927,16.653C24.857,14.106 27.54,6.739 27.54,4.379C27.54,2.301 26.29,0.559 24.062,0.559C20.51,0.559 17.327,10.848 16.33,13.301C15.558,11.074 11.945,-0.176 8.76,-0.176C6.285,-0.176 5.123,1.613 5.123,3.863C5.123,6.621 7.845,13.769 8.832,16.519C8.332,16.339 7.79,16.183 7.238,16.183C5.375,16.183 3.393,18.456 3.393,20.293C3.393,20.988 3.783,21.964 4.03,22.613C1.093,23.394 -0.037,25.316 -0.037,28.214C-0.045,33.854 5.402,39.824 13.058,39.824L13.058,39.824ZM21.108,8.263C21.428,7.301 22.788,3.239 24.062,3.239C24.747,3.239 24.93,3.934 24.93,4.489C24.93,5.981 21.858,14.224 21.18,16.051L18.473,15.583L21.108,8.263ZM7.623,3.599L7.623,3.598C7.623,2.668 8.778,0.028 11.308,7.278L14.063,15.114C12.822,15.013 11.858,14.879 11.247,15.224C10.378,12.974 7.623,5.873 7.623,3.599L7.623,3.599ZM7.44,18.886L7.442,18.888C9.773,18.888 12.783,26.278 12.783,27.278C12.783,27.676 12.393,28.168 11.94,28.168C10.275,28.168 5.817,22.159 5.817,20.534C5.823,19.933 6.827,18.886 7.44,18.886L7.44,18.886ZM4.76,25.003C5.667,25.003 9.082,29.714 9.082,30.714C9.082,31.098 8.468,31.363 8.152,31.363C6.87,31.363 6.368,30.151 4.085,27.348C1.72,29.668 5.717,34.136 8.727,34.136C10.803,34.136 12.157,32.246 11.752,30.854C12.047,30.854 12.412,30.878 12.683,30.808C12.772,32.924 13.408,35.448 16.003,35.628C16.003,35.558 16.163,35.073 16.163,35.049C16.163,33.689 15.32,32.503 15.32,31.119C15.32,28.908 17.047,26.768 18.798,25.518C19.435,25.049 20.208,24.759 20.955,24.494C21.728,24.206 22.548,23.869 23.135,23.291C23.047,22.416 22.682,21.643 21.79,21.643C19.585,21.643 12.19,21.956 12.19,18.541C12.19,18.018 12.198,17.518 13.577,17.518C16.148,17.518 22.677,18.143 24.587,19.791C26.027,21.049 26.522,28.634 22.118,33.439L22.113,33.441C19.797,35.941 16.835,37.238 13.38,37.238C8.652,37.238 4.917,34.691 3.118,30.339C1.757,26.949 3.422,25.003 4.76,25.003L4.76,25.003ZM14.262,23.596C15.037,23.839 15.832,23.911 16.628,24.066C16.038,24.488 15.515,25.004 15.012,25.558C14.788,24.894 14.517,24.246 14.262,23.596Z" fill="#505F79"/>
</svg>
