<svg width="36" height="42" viewBox="0 0 36 42" fill="none" xmlns="http://www.w3.org/2000/svg" xmlns:xlink="http://www.w3.org/1999/xlink">
<path d="M34.999,15.223C34.999,12.944 34.267,10.802 32.869,8.937C33.402,7.14 33.535,4.861 33.402,2.235C33.335,1.13 32.47,0.301 31.405,0.301C30.807,0.301 25.749,0.37 22.821,3.064C20.293,2.581 17.631,2.581 15.036,3.064C12.174,0.37 7.117,0.301 6.452,0.301C5.387,0.301 4.522,1.13 4.455,2.235C4.256,4.861 4.455,7.14 4.988,8.937C3.59,10.871 2.858,13.013 2.858,15.223C2.858,20.059 6.452,24.412 11.908,26.484C11.709,26.899 11.575,27.382 11.442,27.866C5.653,27.244 2.925,21.786 2.792,21.579C2.326,20.543 1.128,20.128 0.13,20.681C-0.868,21.165 -1.267,22.408 -0.735,23.444C-0.602,23.79 3.058,31.182 11.11,32.011L11.11,38.228C11.11,39.403 11.975,40.301 13.106,40.301L24.751,40.301C25.882,40.301 26.747,39.403 26.747,38.228L26.747,30.007C26.747,28.764 26.481,27.589 26.015,26.553C31.405,24.412 34.999,20.128 34.999,15.223Z" fill="#A2A3AE"/>
</svg>
