<svg width="36" height="40" viewBox="0 0 36 40" fill="none" xmlns="http://www.w3.org/2000/svg" xmlns:xlink="http://www.w3.org/1999/xlink">
<path d="M35.998,14.922C35.998,12.642 35.266,10.501 33.869,8.636C34.401,6.839 34.534,4.56 34.401,1.934C34.335,0.829 33.47,0 32.405,0C31.806,0 26.749,0.069 23.821,2.763C21.292,2.28 18.631,2.28 16.035,2.763C13.174,0.069 8.117,0 7.451,0C6.387,0 5.521,0.829 5.455,1.934C5.255,4.56 5.455,6.839 5.987,8.636C4.59,10.57 3.858,12.712 3.858,14.922C3.858,19.758 7.451,24.111 12.908,26.183C12.708,26.598 12.575,27.081 12.442,27.565C6.653,26.943 3.924,21.485 3.791,21.278C3.326,20.242 2.128,19.827 1.13,20.38C0.131,20.864 -0.268,22.107 0.265,23.143C0.398,23.489 4.057,30.881 12.109,31.71L12.109,37.927C12.109,39.102 12.974,40 14.106,40L25.751,40C26.882,40 27.747,39.102 27.747,37.927L27.747,29.706C27.747,28.463 27.481,27.288 27.015,26.252C32.405,24.111 35.998,19.827 35.998,14.922Z" fill="#505F79"/>
</svg>
