<svg width="18" height="32" viewBox="0 0 18 32" fill="none" xmlns="http://www.w3.org/2000/svg" xmlns:xlink="http://www.w3.org/1999/xlink">
<g filter="url(#filterI34_2952;1175_329)">
<path d="M16,2C16.552,2 17,1.552 17,1C17,0.448 16.552,0 16,0L16,2ZM2,0C1.448,0 1,0.448 1,1C1,1.552 1.448,2 2,2L2,0ZM16,32C16.552,32 17,31.552 17,31C17,30.447 16.552,30 16,30L16,32ZM2,30C1.448,30 1,30.447 1,31C1,31.552 1.448,32 2,32L2,30ZM6,16C5.448,16 5,16.448 5,17C5,17.552 5.448,18 6,18L6,16ZM12,18C12.552,18 13,17.552 13,17C13,16.448 12.552,16 12,16L12,18ZM10,26L10,6L8,6L8,26L10,26ZM9,6C9.981,6.196 9.98,6.197 9.98,6.197C9.98,6.197 9.98,6.198 9.98,6.198C9.98,6.199 9.98,6.199 9.98,6.2C9.98,6.201 9.98,6.201 9.98,6.201C9.979,6.202 9.979,6.202 9.98,6.2C9.981,6.197 9.982,6.189 9.985,6.177C9.991,6.154 10.001,6.114 10.016,6.06C10.047,5.952 10.099,5.789 10.178,5.59C10.339,5.19 10.606,4.656 11.031,4.125C11.856,3.094 13.327,2 16,2L16,0C12.673,0 10.644,1.406 9.469,2.875C8.894,3.594 8.536,4.31 8.322,4.847C8.214,5.117 8.14,5.345 8.093,5.51C8.069,5.593 8.052,5.661 8.04,5.71C8.034,5.735 8.03,5.756 8.026,5.771C8.025,5.779 8.023,5.786 8.022,5.791C8.021,5.794 8.021,5.796 8.02,5.799C8.02,5.8 8.02,5.801 8.02,5.801C8.02,5.802 8.02,5.803 8.02,5.803C8.02,5.803 8.019,5.804 9,6ZM9,6C9.981,5.804 9.98,5.803 9.98,5.803C9.98,5.803 9.98,5.802 9.98,5.801C9.98,5.801 9.98,5.8 9.98,5.799C9.979,5.796 9.979,5.794 9.978,5.791C9.977,5.786 9.975,5.779 9.974,5.771C9.97,5.756 9.966,5.735 9.96,5.71C9.948,5.661 9.931,5.593 9.907,5.51C9.86,5.345 9.786,5.117 9.678,4.847C9.464,4.31 9.106,3.594 8.531,2.875C7.356,1.406 5.327,0 2,0L2,2C4.673,2 6.144,3.094 6.969,4.125C7.394,4.656 7.661,5.19 7.822,5.59C7.901,5.789 7.953,5.952 7.984,6.06C7.999,6.114 8.009,6.154 8.015,6.177C8.018,6.189 8.019,6.197 8.02,6.2C8.021,6.202 8.021,6.202 8.02,6.201C8.02,6.201 8.02,6.201 8.02,6.2C8.02,6.199 8.02,6.199 8.02,6.198C8.02,6.198 8.02,6.197 8.02,6.197C8.02,6.197 8.019,6.196 9,6ZM9,26C8.019,26.196 8.02,26.197 8.02,26.197C8.02,26.198 8.02,26.198 8.02,26.199C8.02,26.199 8.02,26.2 8.02,26.201C8.021,26.204 8.021,26.206 8.022,26.209C8.023,26.214 8.025,26.221 8.026,26.229C8.03,26.244 8.034,26.265 8.04,26.29C8.052,26.339 8.069,26.407 8.093,26.49C8.14,26.655 8.214,26.883 8.322,27.153C8.536,27.69 8.894,28.406 9.469,29.125C10.644,30.593 12.674,32 16,32L16,30C13.326,30 11.856,28.906 11.031,27.875C10.606,27.344 10.339,26.81 10.178,26.41C10.099,26.211 10.047,26.048 10.016,25.94C10.001,25.886 9.991,25.846 9.985,25.823C9.982,25.811 9.981,25.803 9.98,25.8C9.979,25.798 9.979,25.798 9.98,25.799C9.98,25.799 9.98,25.799 9.98,25.8C9.98,25.801 9.98,25.801 9.98,25.802C9.98,25.802 9.98,25.803 9.98,25.803C9.98,25.803 9.981,25.804 9,26ZM9,26C8.019,25.804 8.02,25.803 8.02,25.803C8.02,25.803 8.02,25.802 8.02,25.802C8.02,25.801 8.02,25.801 8.02,25.8C8.02,25.799 8.02,25.799 8.02,25.799C8.021,25.798 8.021,25.798 8.02,25.8C8.019,25.803 8.018,25.811 8.015,25.823C8.009,25.846 7.999,25.886 7.984,25.94C7.953,26.048 7.901,26.211 7.822,26.41C7.661,26.81 7.394,27.344 6.969,27.875C6.144,28.906 4.674,30 2,30L2,32C5.326,32 7.356,30.593 8.531,29.125C9.106,28.406 9.464,27.69 9.678,27.153C9.786,26.883 9.86,26.655 9.907,26.49C9.931,26.407 9.948,26.339 9.96,26.29C9.966,26.265 9.97,26.244 9.974,26.229C9.975,26.221 9.977,26.214 9.978,26.209C9.979,26.206 9.979,26.204 9.98,26.201C9.98,26.2 9.98,26.199 9.98,26.199C9.98,26.198 9.98,26.198 9.98,26.197C9.98,26.197 9.981,26.196 9,26ZM6,18L12,18L12,16L6,16L6,18Z" fill="#181E25"/>
</g>
<defs>
<filter id="filterI34_2952;1175_329" x="0" y="-1" width="11" height="18.999803" filterUnits="userSpaceOnUse" color-interpolation-filters="sRGB">
<feFlood flood-opacity="0" result="BackgroundImageFix"/>
<feColorMatrix in="SourceAlpha" type="matrix" values="0 0 0 0 0 0 0 0 0 0 0 0 0 0 0 0 0 0 127 0" result="hardAlpha"/>
<feMorphology radius="0" operator="dilate" in="SourceAlpha" result="0dropshadow"/>
<feOffset dx="0" dy="1"/>
<feGaussianBlur stdDeviation="1"/>
<feComposite in2="hardAlpha" operator="out"/>
<feColorMatrix type="matrix" values="0 0 0 0 0 0 0 0 0 0 0 0 0 0 0 0 0 0 0.24 0"/>
<feBlend mode="normal" in2="BackgroundImageFix" result="0dropshadow"/>
<feBlend mode="normal" in="SourceGraphic" in2="0dropshadow" result="shape"/>
</filter>
</defs>
</svg>
