<svg width="42" height="40" viewBox="0 0 42 40" fill="none" xmlns="http://www.w3.org/2000/svg" xmlns:xlink="http://www.w3.org/1999/xlink">
<path d="M39.662,0.564C38.996,-0.233 37.862,-0.432 36.996,0.166L33.129,2.823C31.329,0.896 28.796,-0.167 26.062,-0.167C20.662,-0.167 16.196,4.219 16.196,9.667C16.196,10.465 16.262,11.195 16.462,11.926C11.796,10.93 8.996,7.541 7.929,1.428C7.796,0.631 7.196,0.033 6.396,-0.167C5.662,-0.366 4.862,-0.034 4.396,0.564C4.262,0.697 -6.738,15.979 9.196,28.936C7.662,32.192 3.062,34.983 1.262,35.913C0.396,36.312 -0.004,37.242 0.196,38.172C0.396,39.102 1.196,39.7 2.129,39.7L5.596,39.7C25.862,39.7 35.062,29.667 35.262,7.209L39.462,3.222C40.262,2.558 40.329,1.362 39.662,0.564Z" fill="#505F79"/>
</svg>
