<svg width="48" height="38" viewBox="0 0 48 38" fill="none" xmlns="http://www.w3.org/2000/svg" xmlns:xlink="http://www.w3.org/1999/xlink">
<path d="M44.17,3.466L48,-0.198L48,-1L34.732,-1L25.276,22.536L14.518,-1L0.606,-1L0.606,-0.198L5.08,5.188C5.516,5.586 5.744,6.168 5.686,6.754L5.686,27.92C5.824,28.682 5.576,29.466 5.04,30.02L0,36.128L0,36.92L14.29,36.92L14.29,36.118L9.25,30.02C8.704,29.464 8.446,28.694 8.556,27.92L8.556,9.612L21.1,36.93L22.558,36.93L33.344,9.612L33.344,31.374C33.344,31.948 33.344,32.066 32.968,32.442L29.088,36.196L29.088,37L47.912,37L47.912,36.198L44.172,32.536C43.844,32.288 43.674,31.872 43.744,31.468L43.744,4.534C43.674,4.128 43.842,3.712 44.17,3.466L44.17,3.466Z" fill="#FFFFFF"/>
</svg>
