<svg width="30" height="40" viewBox="0 0 30 40" fill="none" xmlns="http://www.w3.org/2000/svg" xmlns:xlink="http://www.w3.org/1999/xlink">
<path d="M12.928,40C22.321,40 28.166,33.078 28.166,24.148C28.166,20.782 27.618,17.742 23.796,16.828C24.726,14.282 27.41,6.915 27.41,4.555C27.41,2.477 26.16,0.735 23.931,0.735C20.38,0.735 17.196,11.023 16.2,13.477C15.428,11.25 11.815,0 8.63,0C6.155,0 4.993,1.788 4.993,4.038C4.993,6.797 7.715,13.945 8.701,16.695C8.201,16.515 7.66,16.358 7.108,16.358C5.245,16.358 3.263,18.632 3.263,20.468C3.263,21.163 3.653,22.14 3.9,22.788C0.963,23.57 -0.167,25.492 -0.167,28.39C-0.175,34.03 5.271,40 12.928,40L12.928,40ZM20.978,8.438C21.298,7.477 22.658,3.415 23.931,3.415C24.616,3.415 24.8,4.11 24.8,4.665C24.8,6.157 21.728,14.4 21.05,16.227L18.343,15.758L20.978,8.438ZM7.493,3.775L7.493,3.773C7.493,2.843 8.648,0.203 11.178,7.453L13.933,15.29C12.691,15.188 11.728,15.055 11.116,15.4C10.248,13.15 7.493,6.048 7.493,3.775L7.493,3.775ZM7.31,19.062L7.311,19.063C9.643,19.063 12.653,26.453 12.653,27.453C12.653,27.852 12.263,28.343 11.81,28.343C10.145,28.343 5.686,22.335 5.686,20.71C5.693,20.108 6.696,19.062 7.31,19.062L7.31,19.062ZM4.63,25.178C5.536,25.178 8.951,29.89 8.951,30.89C8.951,31.273 8.338,31.538 8.021,31.538C6.74,31.538 6.238,30.327 3.955,27.523C1.59,29.843 5.586,34.312 8.596,34.312C10.673,34.312 12.026,32.422 11.621,31.03C11.916,31.03 12.281,31.053 12.553,30.983C12.641,33.1 13.278,35.623 15.873,35.803C15.873,35.733 16.033,35.248 16.033,35.225C16.033,33.865 15.19,32.678 15.19,31.295C15.19,29.083 16.916,26.943 18.668,25.693C19.305,25.225 20.078,24.935 20.825,24.67C21.598,24.382 22.418,24.045 23.005,23.467C22.916,22.592 22.551,21.818 21.66,21.818C19.455,21.818 12.06,22.132 12.06,18.717C12.06,18.193 12.068,17.693 13.446,17.693C16.018,17.693 22.546,18.318 24.456,19.967C25.896,21.225 26.391,28.81 21.988,33.615L21.983,33.617C19.666,36.117 16.705,37.413 13.25,37.413C8.521,37.413 4.786,34.867 2.988,30.515C1.626,27.125 3.291,25.178 4.63,25.178L4.63,25.178ZM14.131,23.772C14.906,24.015 15.701,24.087 16.498,24.242C15.908,24.663 15.385,25.18 14.881,25.733C14.658,25.07 14.386,24.422 14.131,23.772Z" fill="#FFFFFF"/>
</svg>
