<svg width="30" height="42" viewBox="0 0 30 42" fill="none" xmlns="http://www.w3.org/2000/svg" xmlns:xlink="http://www.w3.org/1999/xlink">
<path d="M13.928,40.301C23.321,40.301 29.166,33.379 29.166,24.449C29.166,21.083 28.618,18.043 24.796,17.129C25.726,14.583 28.41,7.216 28.41,4.856C28.41,2.778 27.16,1.036 24.931,1.036C21.38,1.036 18.196,11.324 17.2,13.778C16.428,11.551 12.815,0.301 9.63,0.301C7.155,0.301 5.993,2.089 5.993,4.339C5.993,7.098 8.715,14.246 9.701,16.996C9.201,16.816 8.66,16.659 8.108,16.659C6.245,16.659 4.263,18.933 4.263,20.769C4.263,21.464 4.653,22.441 4.9,23.089C1.963,23.871 0.833,25.793 0.833,28.691C0.825,34.331 6.271,40.301 13.928,40.301L13.928,40.301ZM21.978,8.739C22.298,7.778 23.658,3.716 24.931,3.716C25.616,3.716 25.8,4.411 25.8,4.966C25.8,6.458 22.728,14.701 22.05,16.528L19.343,16.059L21.978,8.739ZM8.493,4.076L8.493,4.074C8.493,3.144 9.648,0.504 12.178,7.754L14.933,15.591C13.691,15.489 12.728,15.356 12.116,15.701C11.248,13.451 8.493,6.349 8.493,4.076L8.493,4.076ZM8.31,19.363L8.311,19.364C10.643,19.364 13.653,26.754 13.653,27.754C13.653,28.153 13.263,28.644 12.81,28.644C11.145,28.644 6.686,22.636 6.686,21.011C6.693,20.409 7.696,19.363 8.31,19.363L8.31,19.363ZM5.63,25.479C6.536,25.479 9.951,30.191 9.951,31.191C9.951,31.574 9.338,31.839 9.021,31.839C7.74,31.839 7.238,30.628 4.955,27.824C2.59,30.144 6.586,34.613 9.596,34.613C11.673,34.613 13.026,32.723 12.621,31.331C12.916,31.331 13.281,31.354 13.553,31.284C13.641,33.401 14.278,35.924 16.873,36.104C16.873,36.034 17.033,35.549 17.033,35.526C17.033,34.166 16.19,32.979 16.19,31.596C16.19,29.384 17.916,27.244 19.668,25.994C20.305,25.526 21.078,25.236 21.825,24.971C22.598,24.683 23.418,24.346 24.005,23.768C23.916,22.893 23.551,22.119 22.66,22.119C20.455,22.119 13.06,22.433 13.06,19.018C13.06,18.494 13.068,17.994 14.446,17.994C17.018,17.994 23.546,18.619 25.456,20.268C26.896,21.526 27.391,29.111 22.988,33.916L22.983,33.918C20.666,36.418 17.705,37.714 14.25,37.714C9.521,37.714 5.786,35.168 3.988,30.816C2.626,27.426 4.291,25.479 5.63,25.479L5.63,25.479ZM15.131,24.073C15.906,24.316 16.701,24.388 17.498,24.543C16.908,24.964 16.385,25.481 15.881,26.034C15.658,25.371 15.386,24.723 15.131,24.073Z" fill="#FFFFFF"/>
</svg>
